<?xml version="1.0" standalone="no"?>
<!DOCTYPE svg PUBLIC "-//W3C//DTD SVG 1.1//EN" "http://www.w3.org/Graphics/SVG/1.1/DTD/svg11.dtd" >
<svg xmlns="http://www.w3.org/2000/svg" xmlns:xlink="http://www.w3.org/1999/xlink" version="1.1">
<metadata>
Created by FontForge 20170731 at Wed Mar 16 00:17:00 2016
 By Aleksey,,,
Copyright (C) 1996, 2016 Hoefler &#38; Co. http://www.typography.com
</metadata>
<defs>
<font id="Whitney-Book" horiz-adv-x="523" >
  <font-face 
    font-family="Whitney Book"
    font-weight="325"
    font-stretch="normal"
    units-per-em="1000"
    panose-1="0 0 0 0 0 0 0 0 0 0"
    ascent="800"
    descent="-200"
    x-height="473"
    cap-height="690"
    bbox="-94 -268 988 1012"
    underline-thickness="50"
    underline-position="-200"
    unicode-range="U+0020-FB04"
  />
<missing-glyph horiz-adv-x="500" 
d="M0 -200v1000h500v-1000h-500zM71 750l179 -390l179 390h-358zM450 676l-172 -376l172 -376v752zM50 -76l172 376l-172 376v-752zM250 240l-179 -390h358z" />
    <glyph glyph-name=".notdef" horiz-adv-x="500" 
d="M0 -200v1000h500v-1000h-500zM71 750l179 -390l179 390h-358zM450 676l-172 -376l172 -376v752zM50 -76l172 376l-172 376v-752zM250 240l-179 -390h358z" />
    <glyph glyph-name=".null" horiz-adv-x="0" 
 />
    <glyph glyph-name="nonmarkingreturn" horiz-adv-x="333" 
 />
    <glyph glyph-name="space" unicode=" " horiz-adv-x="226" 
 />
    <glyph glyph-name="exclam" unicode="!" horiz-adv-x="268" 
d="M174 690l-20 -490l-40 -9l-20 499h80zM173 0h-78v98h78v-98z" />
    <glyph glyph-name="quotedbl" unicode="&#x22;" horiz-adv-x="387" 
d="M149 676l-21 -195l-38 8l-20 187h79zM317 676l-21 -195l-37 8l-22 187h80z" />
    <glyph glyph-name="numbersign" unicode="#" horiz-adv-x="648" 
d="M400 236l33 204h-186l-32 -204h185zM363 -2l28 182h-185l-30 -187l-51 11l28 176h-109v56h118l32 204h-121l-9 56h139l29 182h53l-29 -182h186l29 187l51 -11l-28 -176h110v-56h-118l-33 -204h121l9 -56h-138l-29 -182h-53z" />
    <glyph glyph-name="dollar" unicode="$" horiz-adv-x="536" 
d="M129 513q0 -47 27.5 -73t95.5 -51l37 236q-8 1 -23 1q-66 0 -101.5 -31t-35.5 -82zM263 51q73 0 112.5 35.5t39.5 92.5q0 47 -26.5 77.5t-99.5 57.5l-41 -263h15zM257 -4h-17l-19 -119l-48 11l18 113q-65 9 -137 40l9 62q67 -35 138 -47l42 274q-92 31 -133.5 70
t-41.5 108q0 80 56 126t149 46q16 0 24 -1l12 76l49 -12l-12 -69q55 -8 103 -30l-10 -62q-54 27 -102 36l-39 -245q95 -34 136.5 -77t41.5 -112q0 -86 -58.5 -137t-160.5 -51z" />
    <glyph glyph-name="percent" unicode="%" horiz-adv-x="880" 
d="M212 304q-67 0 -111 51.5t-44 138.5q0 86 44 138t111 52t110.5 -52t43.5 -138q0 -87 -43.5 -138.5t-110.5 -51.5zM249 -7l-51 13l217 338l214 339l52 -13l-217 -338zM213 352q45 0 69.5 39.5t24.5 102.5q0 61 -25.5 101t-70.5 40t-69.5 -39.5t-24.5 -101.5t25.5 -102
t70.5 -40zM668 -8q-67 0 -110.5 52t-43.5 138q0 87 43.5 138.5t110.5 51.5t111 -51.5t44 -138.5q0 -86 -44 -138t-111 -52zM669 41q45 0 69.5 39.5t24.5 101.5t-25 102t-70 40q-46 0 -70.5 -39.5t-24.5 -102.5q0 -61 25.5 -101t70.5 -40z" />
    <glyph glyph-name="ampersand" unicode="&#x26;" horiz-adv-x="683" 
d="M264 48q110 0 183 99l-198 197q-135 -57 -135 -163q0 -58 42 -95.5t108 -37.5zM600 -6l-110 110q-89 -115 -227 -115q-101 0 -160 51t-59 135q0 135 165 211q-39 40 -56 75t-17 80q0 69 49 114.5t131 45.5q87 0 163 -43l-13 -69q-82 52 -152 52q-51 0 -80 -27t-29 -70
q0 -36 16.5 -66t56.5 -71l202 -203q41 83 57 198l63 -13q-23 -139 -75 -231l146 -146z" />
    <glyph glyph-name="quotesingle" unicode="'" horiz-adv-x="219" 
d="M149 676l-21 -195l-38 8l-20 187h79z" />
    <glyph glyph-name="parenleft" unicode="(" horiz-adv-x="392" 
d="M349 -82l-66 -14q-104 92 -158.5 189.5t-54.5 217.5q0 254 253 416l11 -62q-99 -70 -146.5 -156t-47.5 -200q0 -205 209 -391z" />
    <glyph glyph-name="parenright" unicode=")" horiz-adv-x="392" 
d="M42 709l67 14q104 -92 158.5 -189.5t54.5 -217.5q0 -254 -253 -416l-12 62q100 70 147.5 155.5t47.5 200.5q0 206 -210 391z" />
    <glyph glyph-name="asterisk" unicode="*" horiz-adv-x="406" 
d="M357 576l-116 -51l64 -112l-17 -12l-85 97l-85 -97l-18 12l64 112l-115 51l6 20l124 -26l12 126h23l12 -126l124 26z" />
    <glyph glyph-name="plus" unicode="+" horiz-adv-x="570" 
d="M513 311h-199v-202h-58v202h-199v54h199v202h58v-202h199v-54z" />
    <glyph glyph-name="comma" unicode="," horiz-adv-x="219" 
d="M164 98l-96 -231l-35 9l51 222h80z" />
    <glyph glyph-name="hyphen" unicode="-" horiz-adv-x="364" 
d="M303 250h-242v66h242v-66z" />
    <glyph glyph-name="period" unicode="." horiz-adv-x="219" 
d="M148 0h-77v98h77v-98z" />
    <glyph glyph-name="slash" unicode="/" horiz-adv-x="517" 
d="M496 684l-472 -808l-59 12l472 809z" />
    <glyph glyph-name="zero" unicode="0" horiz-adv-x="616" 
d="M556 339q0 -161 -67 -256.5t-181 -95.5q-115 0 -181.5 94.5t-66.5 255.5t67 256.5t181 95.5q115 0 181.5 -94.5t66.5 -255.5zM488 338q0 135 -47 213.5t-133 78.5t-133 -78.5t-47 -213.5t47 -213.5t133 -78.5t133 78.5t47 213.5z" />
    <glyph glyph-name="one" unicode="1" horiz-adv-x="355" 
d="M249 0h-66v607l-145 -58l-9 54l166 76h54v-679z" />
    <glyph glyph-name="two" unicode="2" horiz-adv-x="535" 
d="M50 0v49l249 265q54 58 75.5 99t21.5 88q0 61 -35.5 94.5t-98.5 33.5q-91 0 -184 -81l-10 66q89 75 198 75q93 0 146 -50t53 -134q0 -61 -26.5 -111t-90.5 -117l-208 -218h328l8 -59h-426z" />
    <glyph glyph-name="three" unicode="3" 
d="M234 -13q-107 0 -189 53l11 66q86 -59 182 -59q72 0 114.5 36.5t42.5 98.5q0 68 -48.5 106t-147.5 38h-30l-9 60h46q86 0 131 34.5t45 94.5q0 51 -35 82.5t-101 31.5q-96 0 -181 -65l-9 63q87 62 193 62q98 0 150 -48.5t52 -122.5q0 -118 -129 -160q142 -41 142 -175
q0 -86 -64 -141t-166 -55z" />
    <glyph glyph-name="four" unicode="4" horiz-adv-x="593" 
d="M387 0v160h-346v47l327 472h81v-464h111v-55h-111v-160h-62zM387 215v391l-273 -391h273z" />
    <glyph glyph-name="five" unicode="5" horiz-adv-x="534" 
d="M481 208q0 -101 -69.5 -160.5t-172.5 -59.5q-109 0 -188 49l10 64q88 -55 180 -55q73 0 122.5 42t49.5 117q0 68 -41.5 107t-117.5 39q-67 0 -128 -26l-45 11l24 340h341l9 -59h-294l-16 -227q58 20 115 20q102 0 161.5 -55t59.5 -147z" />
    <glyph glyph-name="six" unicode="6" horiz-adv-x="568" 
d="M299 -13q-105 0 -171.5 77.5t-66.5 209.5q0 318 352 416l10 -61q-259 -71 -292 -283q88 61 183 61q94 0 150 -54.5t56 -147.5q0 -97 -62.5 -157.5t-158.5 -60.5zM300 45q69 0 110.5 43t41.5 114q0 67 -38 107t-111 40q-90 0 -176 -68v-4q0 -103 48 -167.5t125 -64.5z" />
    <glyph glyph-name="seven" unicode="7" horiz-adv-x="532" 
d="M198 -7l-64 15l269 608h-348l-9 60h432v-50z" />
    <glyph glyph-name="eight" unicode="8" horiz-adv-x="571" 
d="M286 -13q-104 0 -166.5 52.5t-62.5 130.5q0 117 145 187q-119 55 -119 163q0 72 58.5 120.5t148.5 48.5q91 0 146.5 -47.5t55.5 -119.5q0 -100 -120 -167q70 -31 106 -74.5t36 -108.5q0 -79 -64.5 -132t-163.5 -53zM149 521q0 -50 35 -81.5t128 -62.5q114 56 114 142
q0 50 -38 82.5t-100 32.5q-64 0 -101.5 -33.5t-37.5 -79.5zM288 43q68 0 114 37t46 93t-39.5 90t-146.5 70q-65 -26 -102 -67t-37 -92q0 -58 46 -94.5t119 -36.5z" />
    <glyph glyph-name="nine" unicode="9" horiz-adv-x="568" 
d="M146 -14l-10 61q260 58 299 273q-85 -60 -180 -60q-94 0 -150 56t-56 152t61.5 158.5t159.5 62.5q106 0 171.5 -77t65.5 -210q0 -165 -96 -270t-265 -146zM266 319q92 0 176 66v14q0 104 -48 168t-125 64q-70 0 -111.5 -44t-41.5 -116q0 -70 38.5 -111t111.5 -41z" />
    <glyph glyph-name="colon" unicode=":" horiz-adv-x="227" 
d="M153 375h-78v98h78v-98zM153 0h-78v98h78v-98z" />
    <glyph glyph-name="semicolon" unicode=";" horiz-adv-x="227" 
d="M158 375h-78v98h78v-98zM160 98l-96 -231l-36 9l52 222h80z" />
    <glyph glyph-name="less" unicode="&#x3c;" horiz-adv-x="570" 
d="M496 89l-438 223v52l438 223v-64l-370 -184l370 -185v-65z" />
    <glyph glyph-name="equal" unicode="=" horiz-adv-x="604" 
d="M527 418h-450v60h450v-60zM527 198h-450v60h450v-60z" />
    <glyph glyph-name="greater" unicode="&#x3e;" horiz-adv-x="570" 
d="M74 587l438 -223v-52l-438 -223v64l370 184l-370 185v65z" />
    <glyph glyph-name="question" unicode="?" horiz-adv-x="498" 
d="M206 190l-12 166l28 12q84 41 117 76.5t33 85.5q0 52 -35.5 81.5t-94.5 29.5q-95 0 -186 -73l-9 67q90 68 198 68q87 0 142 -46t55 -124q0 -72 -43.5 -117.5t-138.5 -93.5l-10 -122zM189 0v98h78v-98h-78z" />
    <glyph glyph-name="at" unicode="@" horiz-adv-x="841" 
d="M378 -140q-151 0 -236.5 84.5t-85.5 238.5q0 189 118 315.5t292 126.5q148 0 232 -84.5t84 -228.5q0 -120 -50.5 -192.5t-126.5 -72.5q-51 0 -82.5 26t-35.5 72q-44 -52 -76.5 -75t-69.5 -23q-43 0 -73 34.5t-30 94.5q0 116 67.5 192.5t156.5 76.5q58 0 123 -28l-36 -211
q-5 -35 -5 -53q0 -32 17 -50.5t52 -18.5q57 0 96 60.5t39 166.5q0 135 -76.5 209.5t-208.5 74.5q-156 0 -263.5 -115.5t-107.5 -295.5q0 -145 78 -220t212 -75q122 0 216 48l5 -29q-96 -48 -225 -48zM356 99q26 0 56 24t77 81l32 178q-32 13 -65 13q-62 0 -110 -59.5
t-48 -152.5q0 -84 58 -84z" />
    <glyph glyph-name="A" unicode="A" horiz-adv-x="691" 
d="M584 -7l-88 230h-300l-85 -223h-72l272 694h71l270 -686zM345 614l-126 -330h254z" />
    <glyph glyph-name="B" unicode="B" horiz-adv-x="547" 
d="M496 199q0 -97 -65.5 -148t-179.5 -51h-159v690h160q104 0 158.5 -46.5t54.5 -125.5q0 -108 -105 -151q136 -38 136 -168zM397 515q0 55 -37 85t-110 30h-90v-240h88q71 0 110 34.5t39 90.5zM428 195q0 69 -46 103.5t-129 34.5h-93v-273h97q79 0 125 35.5t46 99.5z" />
    <glyph glyph-name="C" unicode="C" horiz-adv-x="638" 
d="M584 56q-92 -69 -210 -69q-140 0 -226.5 98.5t-86.5 258.5q0 159 88 259t230 100q109 0 194 -59l-11 -70q-90 67 -184 67q-113 0 -179.5 -81t-66.5 -214q0 -134 66.5 -215t178.5 -81q103 0 197 72z" />
    <glyph glyph-name="D" unicode="D" horiz-adv-x="701" 
d="M639 346q0 -159 -97.5 -252.5t-264.5 -93.5h-185v690h188q170 0 264.5 -93.5t94.5 -250.5zM568 345q0 137 -77.5 210t-209.5 73h-120v-566h120q134 0 210.5 72t76.5 211z" />
    <glyph glyph-name="E" unicode="E" horiz-adv-x="507" 
d="M462 0h-370v690h360v-63h-291v-235h230l10 -62h-240v-267h301v-63z" />
    <glyph glyph-name="F" unicode="F" horiz-adv-x="477" 
d="M438 627h-277v-246h222l10 -62h-232v-319h-69v690h346v-63z" />
    <glyph glyph-name="G" unicode="G" horiz-adv-x="694" 
d="M612 57q-105 -70 -227 -70q-151 0 -237.5 98t-86.5 259q0 160 87 259.5t231 99.5q118 0 204 -60l-12 -71q-86 69 -193 69q-114 0 -180 -80.5t-66 -215.5t67 -215.5t187 -80.5q86 0 158 44v206h-166l-10 63h244v-305z" />
    <glyph glyph-name="H" unicode="H" horiz-adv-x="705" 
d="M613 0h-69v330h-383v-330h-69v690h69v-298h383v298h69v-690z" />
    <glyph glyph-name="I" unicode="I" horiz-adv-x="268" 
d="M168 0h-69v690h69v-690z" />
    <glyph glyph-name="J" unicode="J" horiz-adv-x="364" 
d="M276 168q0 -86 -48 -130t-130 -44q-27 0 -61 6l-10 64q35 -10 72 -10q108 0 108 115v521h69v-522z" />
    <glyph glyph-name="K" unicode="K" horiz-adv-x="606" 
d="M589 10l-78 -17l-350 363v-356h-69v690h69v-314l320 314h89l-332 -322z" />
    <glyph glyph-name="L" unicode="L" horiz-adv-x="466" 
d="M437 0h-345v690h69v-626h266z" />
    <glyph glyph-name="M" unicode="M" horiz-adv-x="907" 
d="M831 0h-67l-45 592l-238 -596h-56l-239 596l-45 -592h-64l55 690h85l237 -602l238 602h84z" />
    <glyph glyph-name="N" unicode="N" horiz-adv-x="705" 
d="M613 0h-53l-403 581v-581h-65v690h65l391 -563v563h65v-690z" />
    <glyph glyph-name="O" unicode="O" horiz-adv-x="745" 
d="M684 346q0 -159 -87 -259t-226 -100q-138 0 -224 99.5t-86 257.5q0 159 87 259t225 100q139 0 225 -99t86 -258zM613 344q0 133 -66 215t-175 82q-108 0 -174 -81.5t-66 -213.5q0 -133 66 -215t175 -82q108 0 174 81.5t66 213.5z" />
    <glyph glyph-name="P" unicode="P" horiz-adv-x="531" 
d="M92 0v690h170q107 0 167 -51t60 -143q0 -99 -66.5 -152t-175.5 -53h-86v-291h-69zM419 494q0 135 -161 135h-97v-277h89q80 0 124.5 35.5t44.5 106.5z" />
    <glyph glyph-name="Q" unicode="Q" horiz-adv-x="747" 
d="M650 -145l-363 141q-226 88 -226 348q0 159 87 259t225 100q139 0 225 -99t86 -258q0 -137 -64.5 -229t-173.5 -117l217 -80zM613 344q0 134 -66 215.5t-175 81.5t-174.5 -81t-65.5 -215t66.5 -216.5t174.5 -82.5q109 0 174.5 82t65.5 216z" />
    <glyph glyph-name="R" unicode="R" horiz-adv-x="567" 
d="M472 -7l-220 308h-91v-301h-69v690h175q103 0 162.5 -50.5t59.5 -139.5q0 -77 -44.5 -125.5t-116.5 -64.5l216 -301zM419 496q0 63 -40 98t-116 35h-102v-269h91q77 0 122 35.5t45 100.5z" />
    <glyph glyph-name="S" unicode="S" horiz-adv-x="512" 
d="M459 182q0 -87 -61 -138.5t-154 -51.5q-101 0 -183 43l10 70q81 -52 176 -52q62 0 102 33.5t40 90.5q0 51 -30 82t-109 66q-102 45 -141 86.5t-39 112.5q0 77 56 125.5t142 48.5q90 0 152 -36l-10 -69q-66 44 -145 44q-59 0 -92.5 -31t-33.5 -78q0 -46 29.5 -74.5
t110.5 -64.5q98 -43 139 -88t41 -119z" />
    <glyph glyph-name="T" unicode="T" horiz-adv-x="579" 
d="M550 627h-226v-627h-69v627h-222v63h508z" />
    <glyph glyph-name="U" unicode="U" horiz-adv-x="681" 
d="M600 263q0 -126 -70 -200t-191 -74q-120 0 -189 73.5t-69 195.5v432h69v-423q0 -99 48.5 -157.5t141.5 -58.5q92 0 141.5 56.5t49.5 155.5v427h69v-427z" />
    <glyph glyph-name="V" unicode="V" horiz-adv-x="680" 
d="M641 690l-271 -694h-63l-268 686l69 15l232 -611l228 604h73z" />
    <glyph glyph-name="W" unicode="W" horiz-adv-x="1026" 
d="M980 690l-208 -692h-60l-200 597l-199 -597h-58l-207 684l69 15l171 -591l190 584h71l192 -584l169 584h70z" />
    <glyph glyph-name="X" unicode="X" horiz-adv-x="635" 
d="M527 -6l-210 317l-205 -311h-76l242 360l-218 321l69 14l189 -285l182 280h76l-220 -328l240 -353z" />
    <glyph glyph-name="Y" unicode="Y" horiz-adv-x="628" 
d="M595 690l-248 -404v-286h-69v286l-244 397l71 14l209 -349l203 342h78z" />
    <glyph glyph-name="Z" unicode="Z" horiz-adv-x="598" 
d="M550 0h-498v50l408 580h-379l-9 60h472v-50l-408 -580h405z" />
    <glyph glyph-name="bracketleft" unicode="[" horiz-adv-x="407" 
d="M352 -105h-255v795h250v-52h-187v-691h184z" />
    <glyph glyph-name="backslash" unicode="\" horiz-adv-x="517" 
d="M552 -112l-59 -13l-472 809l59 12z" />
    <glyph glyph-name="bracketright" unicode="]" horiz-adv-x="407" 
d="M54 690h255v-795h-250v52h187v691h-184z" />
    <glyph glyph-name="asciicircum" unicode="^" horiz-adv-x="456" 
d="M362 550h-43l-92 83l-91 -83h-43l103 145h62z" />
    <glyph glyph-name="underscore" unicode="_" horiz-adv-x="466" 
d="M465 -105h-464v54h464v-54z" />
    <glyph glyph-name="grave" unicode="`" horiz-adv-x="456" 
d="M312 550h-46l-136 134l86 19z" />
    <glyph glyph-name="a" unicode="a" horiz-adv-x="489" 
d="M351 117v134q-90 -9 -144 -27.5t-74 -42.5t-20 -58q0 -37 23.5 -57t61.5 -20q77 0 153 71zM416 0h-50l-11 63q-78 -73 -167 -73q-63 0 -102 34t-39 95q0 83 71.5 125.5t232.5 58.5v31q0 91 -98 91q-76 0 -163 -42l-9 59q94 41 176 41q159 0 159 -146v-337z" />
    <glyph glyph-name="b" unicode="b" horiz-adv-x="528" 
d="M479 250q0 -125 -63.5 -190.5t-166.5 -65.5q-81 0 -172 31v681l66 12v-307q64 72 146 72t136 -60t54 -173zM412 247q0 84 -36 130.5t-94 46.5q-69 0 -139 -82v-272q52 -19 109 -19q74 0 117 49t43 147z" />
    <glyph glyph-name="c" unicode="c" horiz-adv-x="465" 
d="M422 43q-67 -53 -160 -53t-153.5 66t-60.5 180q0 116 61.5 181.5t156.5 65.5q86 0 152 -48l-11 -66q-68 57 -142 57q-67 0 -108.5 -50t-41.5 -139q0 -88 42.5 -138.5t110.5 -50.5q80 0 145 57z" />
    <glyph glyph-name="d" unicode="d" horiz-adv-x="531" 
d="M117 226q0 -84 35.5 -130.5t93.5 -46.5q72 0 142 85v261q-55 28 -121 28q-67 0 -108.5 -50.5t-41.5 -146.5zM49 223q0 124 62 190.5t154 66.5q69 0 123 -23v249l66 12v-718h-50l-12 69q-66 -79 -152 -79q-83 0 -137 59.5t-54 173.5z" />
    <glyph glyph-name="e" unicode="e" horiz-adv-x="491" 
d="M250 430q-53 0 -88.5 -38t-44.5 -108h258q-5 66 -37 106t-88 40zM442 57q-79 -67 -181 -67q-96 0 -154.5 64t-58.5 183q0 112 57 179t146 67q92 0 142 -67t50 -170v-14h-329q2 -88 41.5 -136.5t110.5 -48.5q84 0 166 70z" />
    <glyph glyph-name="f" unicode="f" horiz-adv-x="298" 
d="M281 651q-18 4 -40 4q-72 0 -72 -73v-109h97l9 -56h-106v-417h-65v417h-72v56h72v114q0 64 35 95.5t98 31.5q14 0 34 -2z" />
    <glyph glyph-name="g" unicode="g" horiz-adv-x="502" 
d="M345 322q0 48 -32 80t-82 32t-80 -32t-30 -82q0 -47 30.5 -78.5t81.5 -31.5t81.5 31.5t30.5 80.5zM464 -38q0 -66 -64.5 -104t-160.5 -38t-156 32t-60 91q0 70 108 126q-35 20 -35 49q0 34 48 63q-41 20 -64.5 56.5t-23.5 84.5q0 72 51.5 116.5t123.5 44.5q71 0 120 -40
l118 38l11 -65l-95 -10q25 -38 25 -84q0 -73 -52 -117t-125 -44q-24 0 -41 4q-31 -17 -31 -34q0 -14 20 -22t86 -20l35 -7q83 -15 122.5 -42.5t39.5 -77.5zM243 -130q71 0 114.5 24t43.5 60q0 28 -25.5 44.5t-88.5 28.5l-46 8q-52 11 -57 12q-96 -44 -96 -100
q0 -36 42 -56.5t113 -20.5z" />
    <glyph glyph-name="h" unicode="h" 
d="M450 0h-66v326q0 98 -88 98q-69 0 -153 -82v-342h-66v706l66 12v-312q88 77 166 77q69 0 105 -37.5t36 -106.5v-339z" />
    <glyph glyph-name="i" unicode="i" horiz-adv-x="234" 
d="M164 634q0 -20 -14 -34t-33 -14t-33.5 14t-14.5 34t14.5 34t33.5 14t33 -14t14 -34zM150 0h-66v473h66v-473z" />
    <glyph glyph-name="j" unicode="j" horiz-adv-x="234" 
d="M164 634q0 -20 -14 -34t-33 -14t-33.5 14t-14.5 34t14.5 34t33.5 14t33 -14t14 -34zM150 -73q0 -54 -29.5 -80.5t-78.5 -26.5q-26 0 -38 3l-10 59q16 -4 39 -4q51 0 51 56v539h66v-546z" />
    <glyph glyph-name="k" unicode="k" horiz-adv-x="466" 
d="M378 -7l-235 258v-251h-66v706l66 12v-448l206 203h85l-221 -211l237 -256z" />
    <glyph glyph-name="l" unicode="l" horiz-adv-x="234" 
d="M150 0h-66v706l66 12v-718z" />
    <glyph glyph-name="m" unicode="m" horiz-adv-x="819" 
d="M746 0h-66v326q0 98 -86 98q-67 0 -150 -81v-343h-65v326q0 98 -86 98q-68 0 -150 -80v-344h-66v473h51l11 -68q88 78 167 78q103 0 130 -82q91 82 172 82q69 0 103.5 -37.5t34.5 -106.5v-339z" />
    <glyph glyph-name="n" unicode="n" 
d="M450 0h-66v326q0 98 -88 98q-69 0 -153 -82v-342h-66v473h51l11 -70q90 80 170 80q69 0 105 -38t36 -107v-338z" />
    <glyph glyph-name="o" unicode="o" 
d="M475 236q0 -114 -60.5 -180t-154.5 -66q-93 0 -152.5 66t-59.5 180q0 115 60 181t152 66q95 0 155 -66t60 -181zM407 236q0 87 -40 139t-107 52q-66 0 -105.5 -51t-39.5 -140q0 -86 40 -138t105 -52q67 0 107 51t40 139z" />
    <glyph glyph-name="p" unicode="p" horiz-adv-x="531" 
d="M415 247q0 84 -36 130.5t-94 46.5q-72 0 -142 -85v-261q58 -28 121 -28q67 0 109 51t42 146zM482 250q0 -123 -62 -189.5t-154 -66.5q-67 0 -123 23v-189l-66 -11v656h51l11 -68q69 78 153 78q82 0 136 -60t54 -173z" />
    <glyph glyph-name="q" unicode="q" horiz-adv-x="528" 
d="M451 -172l-66 -11v245q-66 -72 -146 -72q-82 0 -136 59.5t-54 173.5q0 125 63.5 191t166.5 66q81 0 172 -31v-621zM117 226q0 -84 35.5 -130.5t93.5 -46.5q70 0 139 83v271q-55 20 -109 20q-73 0 -116 -49.5t-43 -147.5z" />
    <glyph glyph-name="r" unicode="r" horiz-adv-x="344" 
d="M320 421q-56 -4 -104 -39t-73 -85v-297h-66v473h49l15 -97q69 104 168 107z" />
    <glyph glyph-name="s" unicode="s" horiz-adv-x="438" 
d="M391 128q0 -64 -47 -100.5t-129 -36.5q-93 0 -170 43l11 64q79 -50 165 -50q50 0 78.5 19.5t28.5 55.5q0 35 -25.5 54.5t-96.5 38.5q-81 21 -115.5 51.5t-34.5 87.5q0 56 44 92t117 36q76 0 147 -32l-11 -63q-69 37 -138 37q-47 0 -71.5 -18.5t-24.5 -48.5
q0 -29 23 -46.5t83 -33.5q88 -24 127 -56.5t39 -93.5z" />
    <glyph glyph-name="t" unicode="t" horiz-adv-x="330" 
d="M289 0q-28 -8 -66 -8q-123 0 -123 116v309h-73v56h73v164l65 11v-175h109l9 -56h-118v-298q0 -36 16 -52.5t54 -16.5q17 0 44 5z" />
    <glyph glyph-name="u" unicode="u" 
d="M73 473h66v-326q0 -97 88 -97q70 0 153 81v342h66v-473h-51l-11 70q-90 -80 -170 -80q-70 0 -105.5 38t-35.5 107v338z" />
    <glyph glyph-name="v" unicode="v" horiz-adv-x="469" 
d="M440 473l-175 -477h-63l-172 471l67 12l138 -402l136 396h69z" />
    <glyph glyph-name="w" unicode="w" horiz-adv-x="728" 
d="M696 473l-157 -477h-58l-118 388l-117 -388h-57l-157 473l64 12l122 -397l118 391h58l118 -391l117 389h67z" />
    <glyph glyph-name="x" unicode="x" horiz-adv-x="470" 
d="M369 -7l-135 205l-128 -198h-71l164 243l-154 225l66 13l125 -189l119 181h71l-155 -227l164 -241z" />
    <glyph glyph-name="y" unicode="y" horiz-adv-x="480" 
d="M107 -180q-8 0 -29 3l-10 59q22 -4 38 -4q31 0 50.5 16t33.5 54l19 49l-178 470l65 12l146 -403l139 397h69l-201 -535q-24 -66 -57 -92t-85 -26z" />
    <glyph glyph-name="z" unicode="z" horiz-adv-x="449" 
d="M407 0h-366v51l282 367h-258l-9 55h343v-51l-282 -367h281z" />
    <glyph glyph-name="braceleft" unicode="{" horiz-adv-x="469" 
d="M415 -105h-97q-143 0 -143 130q0 23 6 68.5t6 70.5q0 103 -105 103h-30l-8 51h38q105 0 105 102q0 24 -6 69.5t-6 68.5q0 132 143 132h91v-52h-89q-82 0 -82 -79q0 -20 6.5 -68t6.5 -70q0 -58 -26 -87.5t-75 -40.5v-2q49 -11 75 -40t26 -88q0 -22 -6.5 -70.5t-6.5 -68.5
q0 -77 81 -77h87z" />
    <glyph glyph-name="bar" unicode="|" horiz-adv-x="267" 
d="M163 -179l-59 -10v902l59 10v-902z" />
    <glyph glyph-name="braceright" unicode="}" horiz-adv-x="469" 
d="M54 690h97q143 0 143 -130q0 -23 -6 -68.5t-6 -70.5q0 -103 105 -103h30l8 -51h-38q-105 0 -105 -103q0 -24 6 -69.5t6 -68.5q0 -131 -143 -131h-92v52h90q82 0 82 78q0 20 -6.5 68t-6.5 70q0 106 101 128v2q-49 12 -75 41.5t-26 87.5q0 22 6.5 70.5t6.5 68.5
q0 77 -81 77h-87z" />
    <glyph glyph-name="asciitilde" unicode="~" horiz-adv-x="408" 
d="M352 328q-15 -102 -76 -102q-29 0 -75 25q-48 26 -64 26q-25 0 -36 -53l-45 9q15 103 76 103q28 0 75 -26q50 -25 65 -25q23 0 36 53z" />
    <glyph glyph-name="uni00A0" unicode="&#xa0;" horiz-adv-x="176" 
 />
    <glyph glyph-name="exclamdown" unicode="&#xa1;" horiz-adv-x="268" 
d="M173 592h-78v98h78v-98zM174 0h-80l20 490l40 9z" />
    <glyph glyph-name="cent" unicode="&#xa2;" horiz-adv-x="489" 
d="M119 337q0 -67 26 -112.5t72 -63.5l56 364q-72 -2 -113 -51.5t-41 -136.5zM271 96h-15l-17 -106l-48 11l17 104q-69 20 -110.5 80t-41.5 151q0 111 62.5 177t159.5 66h3l17 106l49 -11l-16 -100q53 -10 97 -40l-10 -61q-47 37 -96 48l-59 -370q5 -1 15 -1q78 0 146 53
l8 -56q-70 -51 -161 -51z" />
    <glyph glyph-name="sterling" unicode="&#xa3;" horiz-adv-x="544" 
d="M485 59l9 -59h-433v47l80 256h-80v59h98l47 151q29 91 77.5 133.5t128.5 42.5q37 0 79 -10l-10 -60q-34 9 -75 9q-54 0 -86 -31t-54 -102l-41 -133h183l9 -59h-211l-76 -244h355z" />
    <glyph glyph-name="yen" unicode="&#xa5;" horiz-adv-x="614" 
d="M504 99h-167v-99h-61v99h-163l-9 52h172v92h-168v51h158l-222 373l63 16l201 -352l195 345h71l-227 -382h153l9 -51h-172v-92h167v-52z" />
    <glyph glyph-name="section" unicode="&#xa7;" horiz-adv-x="553" 
d="M496 354q0 -48 -33 -93l-55 11q27 38 27 73q0 29 -22 46t-79 31l-75 20q-77 19 -110.5 45t-33.5 76q0 53 45 87t115 34q82 0 154 -29l-10 -61q-70 36 -147 36q-44 0 -69 -18t-25 -46q0 -25 20 -40t72 -29l94 -24q67 -17 99.5 -45t32.5 -74zM57 322q0 48 33 93l55 -11
q-27 -38 -27 -73q0 -29 22 -46t79 -31l75 -20q77 -19 110.5 -45t33.5 -76q0 -52 -45.5 -86.5t-114.5 -34.5q-82 0 -154 29l10 61q68 -35 147 -35q44 0 69 17.5t25 45.5q0 25 -20 40t-72 29l-94 24q-68 18 -100 45.5t-32 73.5z" />
    <glyph glyph-name="dieresis" unicode="&#xa8;" horiz-adv-x="456" 
d="M183 559h-82v89h82v-89zM356 559h-83v89h83v-89z" />
    <glyph glyph-name="copyright" unicode="&#xa9;" horiz-adv-x="806" 
d="M747 345q0 -158 -95 -258t-249 -100q-155 0 -250 99.5t-95 258.5q0 158 95 258t249 100q155 0 250 -99.5t95 -258.5zM713 345q0 149 -86.5 239t-224.5 90q-139 0 -224 -90t-85 -239t86 -239t225 -90t224 90t85 239zM537 187q-59 -42 -126 -42q-80 0 -130 56.5t-50 146.5
t50.5 147t130.5 57q62 0 118 -36l-9 -54q-53 41 -109 41q-58 0 -93 -43t-35 -112t35.5 -112t92.5 -43t117 45z" />
    <glyph glyph-name="ordfeminine" unicode="&#xaa;" horiz-adv-x="393" 
d="M169 396q46 0 94 42v85q-82 -8 -114.5 -28t-32.5 -52q0 -22 14 -34.5t39 -12.5zM161 353q-43 0 -69 23.5t-26 63.5q0 54 47.5 84t149.5 39v17q0 56 -63 56q-46 0 -105 -27l-7 46q62 25 116 25q109 0 109 -98v-223h-40l-6 38q-51 -44 -106 -44zM321 230h-252v47h245z" />
    <glyph glyph-name="guillemotleft" unicode="&#xab;" horiz-adv-x="514" 
d="M460 473l-144 -236l140 -230l-49 -12l-167 242l164 236h56zM259 473l-143 -236l139 -230l-49 -12l-167 242l164 236h56z" />
    <glyph glyph-name="registered" unicode="&#xae;" horiz-adv-x="566" 
d="M510 467q0 -102 -63.5 -167t-163.5 -65q-101 0 -163.5 65t-62.5 168q0 102 63 167t164 65q100 0 163 -65t63 -168zM484 467q0 94 -56.5 152t-144.5 58t-144 -57.5t-56 -151.5t56 -152t144 -58t144.5 57.5t56.5 151.5zM246 347h-36v258h69q41 0 65 -20t24 -55
q0 -55 -54 -71l76 -106l-39 -9l-77 110h-28v-107zM331 528q0 43 -53 43h-33v-87h32q54 0 54 44z" />
    <glyph glyph-name="macron" unicode="&#xaf;" horiz-adv-x="456" 
d="M358 577h-260v56h260v-56z" />
    <glyph glyph-name="degree" unicode="&#xb0;" horiz-adv-x="428" 
d="M372 523q0 -69 -45 -113.5t-113 -44.5q-69 0 -114 44.5t-45 113.5q0 68 45.5 113t113.5 45t113 -45t45 -113zM319 523q0 47 -30 79t-76 32q-45 0 -75 -32t-30 -79t30 -79t76 -32t75.5 31.5t29.5 79.5z" />
    <glyph glyph-name="plusminus" unicode="&#xb1;" horiz-adv-x="540" 
d="M456 379h-157v-161h-58v161h-157v53h157v160h58v-160h157v-53zM488 113h-436v55h436v-55z" />
    <glyph glyph-name="two.sup" unicode="&#xb2;" horiz-adv-x="360" 
d="M318 411h-273v44l146 128q33 30 45.5 49.5t12.5 41.5q0 28 -20.5 45.5t-54.5 17.5q-51 0 -113 -40l-7 48q61 40 125 40q60 0 94.5 -30t34.5 -75q0 -33 -18 -60.5t-59 -61.5l-115 -98h193z" />
    <glyph glyph-name="three.sup" unicode="&#xb3;" horiz-adv-x="360" 
d="M307 509q0 -48 -39.5 -77.5t-102.5 -29.5q-68 0 -121 30l8 47q58 -30 113 -30q38 0 61.5 17.5t23.5 46.5q0 66 -112 66h-25l-7 46h36q101 0 101 60q0 25 -19.5 39t-54.5 14q-58 0 -111 -33l-7 46q60 34 120 34q61 0 95 -25.5t34 -67.5q0 -66 -84 -90q91 -23 91 -93z" />
    <glyph glyph-name="acute" unicode="&#xb4;" horiz-adv-x="456" 
d="M326 684l-136 -134h-46l97 153z" />
    <glyph glyph-name="mu" unicode="&#xb5;" horiz-adv-x="547" 
d="M142 -172l-65 -11v656h66v-329q0 -94 88 -94q72 0 153 81v342h66v-378q0 -45 39 -45q17 0 33 6l-8 -56q-18 -7 -43 -7q-36 0 -59 19.5t-25 56.5q-83 -78 -161 -78q-59 0 -93 43q9 -52 9 -149v-57z" />
    <glyph glyph-name="paragraph" unicode="&#xb6;" horiz-adv-x="527" 
d="M430 0h-60v626h-82v-143l-30 -183q-101 4 -158 52t-57 139q0 88 58 136.5t159 48.5h170v-676z" />
    <glyph glyph-name="periodcentered" unicode="&#xb7;" horiz-adv-x="214" 
d="M146 234h-78v98h78v-98z" />
    <glyph glyph-name="cedilla" unicode="&#xb8;" horiz-adv-x="456" 
d="M296 -82l-122 -114h-46l84 134z" />
    <glyph glyph-name="one.sup" unicode="&#xb9;" horiz-adv-x="360" 
d="M320 411h-252v46h99v273l-98 -37l-7 44l120 48h39v-328h91z" />
    <glyph glyph-name="ordmasculine" unicode="&#xba;" horiz-adv-x="395" 
d="M197 353q-64 0 -103 45.5t-39 118.5q0 72 39 117.5t103 45.5q65 0 103.5 -45t38.5 -118q0 -74 -38.5 -119t-103.5 -45zM286 517q0 51 -22.5 84.5t-66.5 33.5q-43 0 -66 -33.5t-23 -84.5q0 -52 23 -85.5t66 -33.5q44 0 66.5 33.5t22.5 85.5zM65 230v47h260l8 -47h-268z
" />
    <glyph glyph-name="guillemotright" unicode="&#xbb;" horiz-adv-x="514" 
d="M274 236l-164 -236h-56l144 236l-140 231l49 11zM474 236l-163 -236h-56l143 236l-139 231l49 11z" />
    <glyph glyph-name="onequarter" unicode="&#xbc;" horiz-adv-x="810" 
d="M248 -8l-47 13l209 342l202 340l47 -13l-210 -342zM320 311h-252v46h99v273l-98 -37l-7 44l120 48h39v-328h91zM764 80h-58v-83h-49v83h-186v38l165 250h70v-247h58v-41zM526 121h131v121l1 80h-5l-37 -61l-60 -91l-31 -46z" />
    <glyph glyph-name="onehalf" unicode="&#xbd;" horiz-adv-x="810" 
d="M233 -8l-47 13l209 342l202 340l47 -13l-210 -342zM320 311h-252v46h99v273l-98 -37l-7 44l120 48h39v-328h91zM768 0h-273v44l146 128q33 30 45.5 49.5t12.5 41.5q0 28 -20.5 45.5t-54.5 17.5q-51 0 -113 -40l-7 48q61 40 125 40q60 0 94.5 -30t34.5 -75
q0 -33 -18 -60.5t-59 -61.5l-115 -98h193z" />
    <glyph glyph-name="threequarters" unicode="&#xbe;" horiz-adv-x="810" 
d="M238 -8l-47 13l209 342l202 340l47 -13l-210 -342zM307 409q0 -48 -39.5 -77.5t-102.5 -29.5q-68 0 -121 30l8 47q58 -30 113 -30q38 0 61.5 17.5t23.5 46.5q0 66 -112 66h-25l-7 46h36q101 0 101 60q0 25 -19.5 39t-54.5 14q-58 0 -111 -33l-7 46q60 34 120 34
q61 0 95 -25.5t34 -67.5q0 -66 -84 -90q91 -23 91 -93zM764 80h-58v-83h-49v83h-186v38l165 250h70v-247h58v-41zM526 121h131v121l1 80h-5l-37 -61l-60 -91l-31 -46z" />
    <glyph glyph-name="questiondown" unicode="&#xbf;" horiz-adv-x="498" 
d="M309 690v-98h-78v98h78zM253 -13q-87 0 -142 46t-55 124q0 72 43.5 117.5t138.5 93.5l10 122l44 10l12 -166l-28 -12q-84 -41 -117 -76.5t-33 -85.5q0 -52 35.5 -81.5t94.5 -29.5q95 0 186 73l9 -67q-90 -68 -198 -68z" />
    <glyph glyph-name="Agrave" unicode="&#xc0;" horiz-adv-x="691" 
d="M375 762h-46l-136 134l86 19zM584 -7l-88 230h-300l-85 -223h-72l272 694h71l270 -686zM345 614l-126 -330h254z" />
    <glyph glyph-name="Aacute" unicode="&#xc1;" horiz-adv-x="691" 
d="M499 896l-136 -134h-46l97 153zM584 -7l-88 230h-300l-85 -223h-72l272 694h71l270 -686zM345 614l-126 -330h254z" />
    <glyph glyph-name="Acircumflex" unicode="&#xc2;" horiz-adv-x="691" 
d="M480 757h-43l-92 83l-91 -83h-43l103 145h62zM584 -7l-88 230h-300l-85 -223h-72l272 694h71l270 -686zM345 614l-126 -330h254z" />
    <glyph glyph-name="Atilde" unicode="&#xc3;" horiz-adv-x="691" 
d="M497 871q-14 -103 -76 -103q-28 0 -75 25q-51 26 -64 26q-24 0 -35 -53l-45 9q15 104 76 104q26 0 75 -26q49 -25 63 -25q24 0 37 52zM584 -7l-88 230h-300l-85 -223h-72l272 694h71l270 -686zM345 614l-126 -330h254z" />
    <glyph glyph-name="Adieresis" unicode="&#xc4;" horiz-adv-x="691" 
d="M301 771h-82v89h82v-89zM474 771h-83v89h83v-89zM584 -7l-88 230h-300l-85 -223h-72l272 694h71l270 -686zM345 614l-126 -330h254z" />
    <glyph glyph-name="Aring" unicode="&#xc5;" horiz-adv-x="691" 
d="M585 -7l-89 230h-302l-85 -223h-70l254 650q-46 26 -46 82q0 41 28.5 70t70.5 29t70 -28.5t28 -70.5q0 -55 -45 -82l253 -642zM404 732q0 26 -16.5 44t-41.5 18t-42 -18t-17 -44t17 -43.5t42 -17.5t41.5 17.5t16.5 43.5zM345 614l-127 -330h255z" />
    <glyph glyph-name="AE" unicode="&#xc6;" horiz-adv-x="873" 
d="M459 283v351l-208 -351h208zM459 0v223h-243l-131 -223h-75l410 690h398v-62h-291v-236h230l9 -62h-239v-268h301v-62h-369z" />
    <glyph glyph-name="Ccedilla" unicode="&#xc7;" horiz-adv-x="638" 
d="M584 56q-92 -69 -210 -69q-140 0 -226.5 98.5t-86.5 258.5q0 159 88 259t230 100q109 0 194 -59l-11 -70q-90 67 -184 67q-113 0 -179.5 -81t-66.5 -214q0 -134 66.5 -215t178.5 -81q103 0 197 72zM422 -84l-122 -114h-46l84 134z" />
    <glyph glyph-name="Egrave" unicode="&#xc8;" horiz-adv-x="507" 
d="M303 752h-46l-136 134l86 19zM462 0h-370v690h360v-63h-291v-235h230l10 -62h-240v-267h301v-63z" />
    <glyph glyph-name="Eacute" unicode="&#xc9;" horiz-adv-x="507" 
d="M427 886l-136 -134h-46l97 153zM462 0h-370v690h360v-63h-291v-235h230l10 -62h-240v-267h301v-63z" />
    <glyph glyph-name="Ecircumflex" unicode="&#xca;" horiz-adv-x="507" 
d="M408 752h-43l-92 83l-91 -83h-43l103 145h62zM462 0h-370v690h360v-63h-291v-235h230l10 -62h-240v-267h301v-63z" />
    <glyph glyph-name="Edieresis" unicode="&#xcb;" horiz-adv-x="507" 
d="M229 761h-82v89h82v-89zM402 761h-83v89h83v-89zM462 0h-370v690h360v-63h-291v-235h230l10 -62h-240v-267h301v-63z" />
    <glyph glyph-name="Igrave" unicode="&#xcc;" horiz-adv-x="268" 
d="M163 752h-46l-136 134l86 19zM168 0h-69v690h69v-690z" />
    <glyph glyph-name="Iacute" unicode="&#xcd;" horiz-adv-x="268" 
d="M287 886l-136 -134h-46l97 153zM168 0h-69v690h69v-690z" />
    <glyph glyph-name="Icircumflex" unicode="&#xce;" horiz-adv-x="268" 
d="M268 752h-43l-92 83l-91 -83h-43l103 145h62zM168 0h-69v690h69v-690z" />
    <glyph glyph-name="Idieresis" unicode="&#xcf;" horiz-adv-x="268" 
d="M89 761h-82v89h82v-89zM262 761h-83v89h83v-89zM168 0h-69v690h69v-690z" />
    <glyph glyph-name="Eth" unicode="&#xd0;" horiz-adv-x="715" 
d="M292 0h-185v331h-80l-10 60h90v299h188q169 0 264 -94t95 -250q0 -159 -98 -252.5t-264 -93.5zM175 62h121q134 0 210.5 72t76.5 211q0 136 -78 209.5t-210 73.5h-120v-237h166v-60h-166v-269z" />
    <glyph glyph-name="Ntilde" unicode="&#xd1;" horiz-adv-x="705" 
d="M506 857q-14 -103 -76 -103q-28 0 -75 25q-51 26 -64 26q-24 0 -35 -53l-45 9q15 104 76 104q26 0 75 -26q49 -25 63 -25q24 0 37 52zM613 0h-53l-403 581v-581h-65v690h65l391 -563v563h65v-690z" />
    <glyph glyph-name="Ograve" unicode="&#xd2;" horiz-adv-x="745" 
d="M402 762h-46l-136 134l86 19zM684 346q0 -159 -87 -259t-226 -100q-138 0 -224 99.5t-86 257.5q0 159 87 259t225 100q139 0 225 -99t86 -258zM613 344q0 133 -66 215t-175 82q-108 0 -174 -81.5t-66 -213.5q0 -133 66 -215t175 -82q108 0 174 81.5t66 213.5z" />
    <glyph glyph-name="Oacute" unicode="&#xd3;" horiz-adv-x="745" 
d="M526 896l-136 -134h-46l97 153zM684 346q0 -159 -87 -259t-226 -100q-138 0 -224 99.5t-86 257.5q0 159 87 259t225 100q139 0 225 -99t86 -258zM613 344q0 133 -66 215t-175 82q-108 0 -174 -81.5t-66 -213.5q0 -133 66 -215t175 -82q108 0 174 81.5t66 213.5z" />
    <glyph glyph-name="Ocircumflex" unicode="&#xd4;" horiz-adv-x="745" 
d="M507 762h-43l-92 83l-91 -83h-43l103 145h62zM684 346q0 -159 -87 -259t-226 -100q-138 0 -224 99.5t-86 257.5q0 159 87 259t225 100q139 0 225 -99t86 -258zM613 344q0 133 -66 215t-175 82q-108 0 -174 -81.5t-66 -213.5q0 -133 66 -215t175 -82q108 0 174 81.5
t66 213.5z" />
    <glyph glyph-name="Otilde" unicode="&#xd5;" horiz-adv-x="745" 
d="M524 871q-14 -103 -76 -103q-28 0 -75 25q-51 26 -64 26q-24 0 -35 -53l-45 9q15 104 76 104q26 0 75 -26q49 -25 63 -25q24 0 37 52zM684 346q0 -159 -87 -259t-226 -100q-138 0 -224 99.5t-86 257.5q0 159 87 259t225 100q139 0 225 -99t86 -258zM613 344
q0 133 -66 215t-175 82q-108 0 -174 -81.5t-66 -213.5q0 -133 66 -215t175 -82q108 0 174 81.5t66 213.5z" />
    <glyph glyph-name="Odieresis" unicode="&#xd6;" horiz-adv-x="745" 
d="M327 771h-82v89h82v-89zM500 771h-83v89h83v-89zM684 346q0 -159 -87 -259t-226 -100q-138 0 -224 99.5t-86 257.5q0 159 87 259t225 100q139 0 225 -99t86 -258zM613 344q0 133 -66 215t-175 82q-108 0 -174 -81.5t-66 -213.5q0 -133 66 -215t175 -82q108 0 174 81.5
t66 213.5z" />
    <glyph glyph-name="multiply" unicode="&#xd7;" horiz-adv-x="570" 
d="M451 131l-167 169l-167 -168l-38 38l168 167l-169 167l41 41l167 -169l167 168l38 -38l-168 -167l169 -167z" />
    <glyph glyph-name="Oslash" unicode="&#xd8;" horiz-adv-x="745" 
d="M371 -13q-116 0 -197 72l-55 -67l-62 13l79 95q-75 97 -75 244q0 159 87 259t225 100q117 0 198 -72l55 67l62 -13l-79 -95q75 -97 75 -244q0 -159 -87 -259t-226 -100zM130 346q0 -115 50 -193l351 427q-64 62 -159 62q-109 0 -175.5 -82t-66.5 -214zM373 48
q109 0 175.5 82t66.5 214q0 115 -50 193l-351 -427q64 -62 159 -62z" />
    <glyph glyph-name="Ugrave" unicode="&#xd9;" horiz-adv-x="681" 
d="M369 748h-46l-136 134l86 19zM600 263q0 -126 -70 -200t-191 -74q-120 0 -189 73.5t-69 195.5v432h69v-423q0 -99 48.5 -157.5t141.5 -58.5q92 0 141.5 56.5t49.5 155.5v427h69v-427z" />
    <glyph glyph-name="Uacute" unicode="&#xda;" horiz-adv-x="681" 
d="M493 882l-136 -134h-46l97 153zM600 263q0 -126 -70 -200t-191 -74q-120 0 -189 73.5t-69 195.5v432h69v-423q0 -99 48.5 -157.5t141.5 -58.5q92 0 141.5 56.5t49.5 155.5v427h69v-427z" />
    <glyph glyph-name="Ucircumflex" unicode="&#xdb;" horiz-adv-x="681" 
d="M475 748h-43l-92 83l-91 -83h-43l103 145h62zM600 263q0 -126 -70 -200t-191 -74q-120 0 -189 73.5t-69 195.5v432h69v-423q0 -99 48.5 -157.5t141.5 -58.5q92 0 141.5 56.5t49.5 155.5v427h69v-427z" />
    <glyph glyph-name="Udieresis" unicode="&#xdc;" horiz-adv-x="681" 
d="M295 757h-82v89h82v-89zM468 757h-83v89h83v-89zM600 263q0 -126 -70 -200t-191 -74q-120 0 -189 73.5t-69 195.5v432h69v-423q0 -99 48.5 -157.5t141.5 -58.5q92 0 141.5 56.5t49.5 155.5v427h69v-427z" />
    <glyph glyph-name="Yacute" unicode="&#xdd;" horiz-adv-x="628" 
d="M467 882l-136 -134h-46l97 153zM595 690l-248 -404v-286h-69v286l-244 397l71 14l209 -349l203 342h78z" />
    <glyph glyph-name="Thorn" unicode="&#xde;" horiz-adv-x="539" 
d="M492 358q0 -98 -66.5 -151t-176.5 -53h-88v-154h-69v690h69v-137h104q105 0 166 -51t61 -144zM422 356q0 67 -41.5 101.5t-119.5 34.5h-100v-277h92q80 0 124.5 35.5t44.5 105.5z" />
    <glyph glyph-name="germandbls" unicode="&#xdf;" horiz-adv-x="603" 
d="M564 146q0 -73 -46 -114t-123 -41q-80 0 -146 37l10 62q75 -44 141 -44q45 0 73 25.5t28 70.5q0 53 -49 93t-176 67l-8 50q93 112 93 198q0 49 -24.5 78t-68.5 29q-45 0 -72 -32t-27 -86v-539h-65v417h-72v56h72v61q0 82 44.5 131t119.5 49t117 -43t42 -117
q0 -55 -24 -101.5t-74 -107.5q120 -28 177.5 -75.5t57.5 -123.5z" />
    <glyph glyph-name="agrave" unicode="&#xe0;" horiz-adv-x="489" 
d="M274 550h-46l-136 134l86 19zM351 117v134q-90 -9 -144 -27.5t-74 -42.5t-20 -58q0 -37 23.5 -57t61.5 -20q77 0 153 71zM416 0h-50l-11 63q-78 -73 -167 -73q-63 0 -102 34t-39 95q0 83 71.5 125.5t232.5 58.5v31q0 91 -98 91q-76 0 -163 -42l-9 59q94 41 176 41
q159 0 159 -146v-337z" />
    <glyph glyph-name="aacute" unicode="&#xe1;" horiz-adv-x="489" 
d="M398 684l-136 -134h-46l97 153zM351 117v134q-90 -9 -144 -27.5t-74 -42.5t-20 -58q0 -37 23.5 -57t61.5 -20q77 0 153 71zM416 0h-50l-11 63q-78 -73 -167 -73q-63 0 -102 34t-39 95q0 83 71.5 125.5t232.5 58.5v31q0 91 -98 91q-76 0 -163 -42l-9 59q94 41 176 41
q159 0 159 -146v-337z" />
    <glyph glyph-name="acircumflex" unicode="&#xe2;" horiz-adv-x="489" 
d="M379 550h-43l-92 83l-91 -83h-43l103 145h62zM351 117v134q-90 -9 -144 -27.5t-74 -42.5t-20 -58q0 -37 23.5 -57t61.5 -20q77 0 153 71zM416 0h-50l-11 63q-78 -73 -167 -73q-63 0 -102 34t-39 95q0 83 71.5 125.5t232.5 58.5v31q0 91 -98 91q-76 0 -163 -42l-9 59
q94 41 176 41q159 0 159 -146v-337z" />
    <glyph glyph-name="atilde" unicode="&#xe3;" horiz-adv-x="489" 
d="M396 659q-14 -103 -76 -103q-28 0 -75 25q-51 26 -64 26q-24 0 -35 -53l-45 9q15 104 76 104q26 0 75 -26q49 -25 63 -25q24 0 37 52zM351 117v134q-90 -9 -144 -27.5t-74 -42.5t-20 -58q0 -37 23.5 -57t61.5 -20q77 0 153 71zM416 0h-50l-11 63q-78 -73 -167 -73
q-63 0 -102 34t-39 95q0 83 71.5 125.5t232.5 58.5v31q0 91 -98 91q-76 0 -163 -42l-9 59q94 41 176 41q159 0 159 -146v-337z" />
    <glyph glyph-name="adieresis" unicode="&#xe4;" horiz-adv-x="489" 
d="M200 559h-82v89h82v-89zM373 559h-83v89h83v-89zM351 117v134q-90 -9 -144 -27.5t-74 -42.5t-20 -58q0 -37 23.5 -57t61.5 -20q77 0 153 71zM416 0h-50l-11 63q-78 -73 -167 -73q-63 0 -102 34t-39 95q0 83 71.5 125.5t232.5 58.5v31q0 91 -98 91q-76 0 -163 -42l-9 59
q94 41 176 41q159 0 159 -146v-337z" />
    <glyph glyph-name="aring" unicode="&#xe5;" horiz-adv-x="489" 
d="M343 644q0 -42 -28 -69t-70 -27t-70 27t-28 69t28 70.5t70 28.5t70 -28.5t28 -70.5zM303 644q0 26 -16.5 44t-41.5 18t-42 -18t-17 -44t17 -43t42 -17t41.5 17t16.5 43zM351 117v134q-90 -9 -144 -27.5t-74 -42.5t-20 -58q0 -37 23.5 -57t61.5 -20q77 0 153 71zM416 0
h-50l-11 63q-78 -73 -167 -73q-63 0 -102 34t-39 95q0 83 71.5 125.5t232.5 58.5v31q0 91 -98 91q-76 0 -163 -42l-9 59q94 41 176 41q159 0 159 -146v-337z" />
    <glyph glyph-name="ae" unicode="&#xe6;" horiz-adv-x="790" 
d="M196 -10q-66 0 -107.5 34t-41.5 95q0 81 70 124t230 59v34q0 89 -94 89q-76 0 -163 -42l-9 59q92 41 173 41q116 0 143 -85q53 85 154 85q92 0 141 -66.5t49 -170.5v-14h-329q1 -87 41.5 -136t109.5 -49q85 0 167 70l10 -60q-79 -67 -181 -67q-109 0 -169 85
q-92 -85 -194 -85zM415 284h258q-5 67 -36.5 106.5t-85.5 39.5q-55 0 -91 -38.5t-45 -107.5zM204 46q81 0 162 76q-19 52 -19 115v14q-130 -14 -182 -45t-52 -82q0 -37 24.5 -57.5t66.5 -20.5z" />
    <glyph glyph-name="ccedilla" unicode="&#xe7;" horiz-adv-x="465" 
d="M422 43q-67 -53 -160 -53t-153.5 66t-60.5 180q0 116 61.5 181.5t156.5 65.5q86 0 152 -48l-11 -66q-68 57 -142 57q-67 0 -108.5 -50t-41.5 -139q0 -88 42.5 -138.5t110.5 -50.5q80 0 145 57zM315 -82l-122 -114h-46l84 134z" />
    <glyph glyph-name="egrave" unicode="&#xe8;" horiz-adv-x="491" 
d="M283 550h-46l-136 134l86 19zM250 430q-53 0 -88.5 -38t-44.5 -108h258q-5 66 -37 106t-88 40zM442 57q-79 -67 -181 -67q-96 0 -154.5 64t-58.5 183q0 112 57 179t146 67q92 0 142 -67t50 -170v-14h-329q2 -88 41.5 -136.5t110.5 -48.5q84 0 166 70z" />
    <glyph glyph-name="eacute" unicode="&#xe9;" horiz-adv-x="491" 
d="M407 684l-136 -134h-46l97 153zM250 430q-53 0 -88.5 -38t-44.5 -108h258q-5 66 -37 106t-88 40zM442 57q-79 -67 -181 -67q-96 0 -154.5 64t-58.5 183q0 112 57 179t146 67q92 0 142 -67t50 -170v-14h-329q2 -88 41.5 -136.5t110.5 -48.5q84 0 166 70z" />
    <glyph glyph-name="ecircumflex" unicode="&#xea;" horiz-adv-x="491" 
d="M388 550h-43l-92 83l-91 -83h-43l103 145h62zM250 430q-53 0 -88.5 -38t-44.5 -108h258q-5 66 -37 106t-88 40zM442 57q-79 -67 -181 -67q-96 0 -154.5 64t-58.5 183q0 112 57 179t146 67q92 0 142 -67t50 -170v-14h-329q2 -88 41.5 -136.5t110.5 -48.5q84 0 166 70z" />
    <glyph glyph-name="edieresis" unicode="&#xeb;" horiz-adv-x="491" 
d="M208 559h-82v89h82v-89zM381 559h-83v89h83v-89zM250 430q-53 0 -88.5 -38t-44.5 -108h258q-5 66 -37 106t-88 40zM442 57q-79 -67 -181 -67q-96 0 -154.5 64t-58.5 183q0 112 57 179t146 67q92 0 142 -67t50 -170v-14h-329q2 -88 41.5 -136.5t110.5 -48.5q84 0 166 70z
" />
    <glyph glyph-name="igrave" unicode="&#xec;" horiz-adv-x="234" 
d="M146 550h-46l-136 134l86 19zM150 0h-66v473h66v-473z" />
    <glyph glyph-name="iacute" unicode="&#xed;" horiz-adv-x="234" 
d="M270 684l-136 -134h-46l97 153zM150 0h-66v473h66v-473z" />
    <glyph glyph-name="icircumflex" unicode="&#xee;" horiz-adv-x="234" 
d="M251 550h-43l-92 83l-91 -83h-43l103 145h62zM150 0h-66v473h66v-473z" />
    <glyph glyph-name="idieresis" unicode="&#xef;" horiz-adv-x="234" 
d="M71 559h-82v89h82v-89zM244 559h-83v89h83v-89zM150 0h-66v473h66v-473z" />
    <glyph glyph-name="eth" unicode="&#xf0;" horiz-adv-x="530" 
d="M252 -10q-89 0 -146.5 60t-57.5 163q0 98 58.5 166t143.5 68q84 0 153 -55q-20 128 -103 197l-49 -73h-61l68 103q-42 26 -108 44l9 55q74 -20 130 -52l37 57l56 -12l-50 -74q142 -109 142 -336q0 -171 -83 -254q-56 -57 -139 -57zM258 46q68 0 110 66.5t42 182.5v26
q-68 70 -154 70q-62 0 -101.5 -50t-39.5 -124q0 -79 38.5 -125t104.5 -46z" />
    <glyph glyph-name="ntilde" unicode="&#xf1;" 
d="M413 659q-14 -103 -76 -103q-28 0 -75 25q-51 26 -64 26q-24 0 -35 -53l-45 9q15 104 76 104q26 0 75 -26q49 -25 63 -25q24 0 37 52zM450 0h-66v326q0 98 -88 98q-69 0 -153 -82v-342h-66v473h51l11 -70q90 80 170 80q69 0 105 -38t36 -107v-338z" />
    <glyph glyph-name="ograve" unicode="&#xf2;" 
d="M291 550h-46l-136 134l86 19zM475 236q0 -114 -60.5 -180t-154.5 -66q-93 0 -152.5 66t-59.5 180q0 115 60 181t152 66q95 0 155 -66t60 -181zM407 236q0 87 -40 139t-107 52q-66 0 -105.5 -51t-39.5 -140q0 -86 40 -138t105 -52q67 0 107 51t40 139z" />
    <glyph glyph-name="oacute" unicode="&#xf3;" 
d="M414 684l-136 -134h-46l97 153zM475 236q0 -114 -60.5 -180t-154.5 -66q-93 0 -152.5 66t-59.5 180q0 115 60 181t152 66q95 0 155 -66t60 -181zM407 236q0 87 -40 139t-107 52q-66 0 -105.5 -51t-39.5 -140q0 -86 40 -138t105 -52q67 0 107 51t40 139z" />
    <glyph glyph-name="ocircumflex" unicode="&#xf4;" 
d="M396 550h-43l-92 83l-91 -83h-43l103 145h62zM475 236q0 -114 -60.5 -180t-154.5 -66q-93 0 -152.5 66t-59.5 180q0 115 60 181t152 66q95 0 155 -66t60 -181zM407 236q0 87 -40 139t-107 52q-66 0 -105.5 -51t-39.5 -140q0 -86 40 -138t105 -52q67 0 107 51t40 139z" />
    <glyph glyph-name="otilde" unicode="&#xf5;" 
d="M413 659q-14 -103 -76 -103q-28 0 -75 25q-51 26 -64 26q-24 0 -35 -53l-45 9q15 104 76 104q26 0 75 -26q49 -25 63 -25q24 0 37 52zM475 236q0 -114 -60.5 -180t-154.5 -66q-93 0 -152.5 66t-59.5 180q0 115 60 181t152 66q95 0 155 -66t60 -181zM407 236q0 87 -40 139
t-107 52q-66 0 -105.5 -51t-39.5 -140q0 -86 40 -138t105 -52q67 0 107 51t40 139z" />
    <glyph glyph-name="odieresis" unicode="&#xf6;" 
d="M216 559h-82v89h82v-89zM389 559h-83v89h83v-89zM475 236q0 -114 -60.5 -180t-154.5 -66q-93 0 -152.5 66t-59.5 180q0 115 60 181t152 66q95 0 155 -66t60 -181zM407 236q0 87 -40 139t-107 52q-66 0 -105.5 -51t-39.5 -140q0 -86 40 -138t105 -52q67 0 107 51t40 139z
" />
    <glyph glyph-name="divide" unicode="&#xf7;" horiz-adv-x="570" 
d="M323 477h-76v90h76v-90zM513 311h-456v54h456v-54zM323 109h-76v90h76v-90z" />
    <glyph glyph-name="oslash" unicode="&#xf8;" 
d="M112 236q0 -67 25 -115l217 271q-37 37 -94 37q-68 0 -108 -52t-40 -141zM260 44q69 0 109.5 52t40.5 140q0 69 -26 116l-216 -272q38 -36 92 -36zM260 -10q-74 0 -128 43l-35 -44l-56 12l55 69q-48 66 -48 166q0 115 60 181t152 66q76 0 131 -43l36 45l56 -13l-56 -70
q48 -66 48 -166q0 -114 -60.5 -180t-154.5 -66z" />
    <glyph glyph-name="ugrave" unicode="&#xf9;" 
d="M289 547h-46l-136 134l86 19zM73 473h66v-326q0 -97 88 -97q70 0 153 81v342h66v-473h-51l-11 70q-90 -80 -170 -80q-70 0 -105.5 38t-35.5 107v338z" />
    <glyph glyph-name="uacute" unicode="&#xfa;" 
d="M413 681l-136 -134h-46l97 153zM73 473h66v-326q0 -97 88 -97q70 0 153 81v342h66v-473h-51l-11 70q-90 -80 -170 -80q-70 0 -105.5 38t-35.5 107v338z" />
    <glyph glyph-name="ucircumflex" unicode="&#xfb;" 
d="M394 547h-43l-92 83l-91 -83h-43l103 145h62zM73 473h66v-326q0 -97 88 -97q70 0 153 81v342h66v-473h-51l-11 70q-90 -80 -170 -80q-70 0 -105.5 38t-35.5 107v338z" />
    <glyph glyph-name="udieresis" unicode="&#xfc;" 
d="M215 556h-82v89h82v-89zM388 556h-83v89h83v-89zM73 473h66v-326q0 -97 88 -97q70 0 153 81v342h66v-473h-51l-11 70q-90 -80 -170 -80q-70 0 -105.5 38t-35.5 107v338z" />
    <glyph glyph-name="yacute" unicode="&#xfd;" horiz-adv-x="480" 
d="M395 681l-136 -134h-46l97 153zM107 -180q-8 0 -29 3l-10 59q22 -4 38 -4q31 0 50.5 16t33.5 54l19 49l-178 470l65 12l146 -403l139 397h69l-201 -535q-24 -66 -57 -92t-85 -26z" />
    <glyph glyph-name="thorn" unicode="&#xfe;" horiz-adv-x="531" 
d="M415 247q0 84 -36 130.5t-94 46.5q-72 0 -142 -86v-260q58 -28 120 -28q68 0 110 50.5t42 146.5zM482 250q0 -123 -62 -189.5t-154 -66.5q-67 0 -123 23v-189l-66 -11v889l66 12v-309q67 74 149 74t136 -60t54 -173z" />
    <glyph glyph-name="ydieresis" unicode="&#xff;" horiz-adv-x="480" 
d="M197 556h-82v89h82v-89zM370 556h-83v89h83v-89zM107 -180q-8 0 -29 3l-10 59q22 -4 38 -4q31 0 50.5 16t33.5 54l19 49l-178 470l65 12l146 -403l139 397h69l-201 -535q-24 -66 -57 -92t-85 -26z" />
    <glyph glyph-name="Amacron" unicode="&#x100;" horiz-adv-x="691" 
d="M476 789h-260v56h260v-56zM584 -7l-88 230h-300l-85 -223h-72l272 694h71l270 -686zM345 614l-126 -330h254z" />
    <glyph glyph-name="amacron" unicode="&#x101;" horiz-adv-x="489" 
d="M376 577h-260v56h260v-56zM351 117v134q-90 -9 -144 -27.5t-74 -42.5t-20 -58q0 -37 23.5 -57t61.5 -20q77 0 153 71zM416 0h-50l-11 63q-78 -73 -167 -73q-63 0 -102 34t-39 95q0 83 71.5 125.5t232.5 58.5v31q0 91 -98 91q-76 0 -163 -42l-9 59q94 41 176 41
q159 0 159 -146v-337z" />
    <glyph glyph-name="Abreve" unicode="&#x102;" horiz-adv-x="691" 
d="M478 877q-8 -50 -41.5 -81t-91.5 -31q-57 0 -90 31t-41 81l46 9q17 -63 86 -63q66 0 85 63zM584 -7l-88 230h-300l-85 -223h-72l272 694h71l270 -686zM345 614l-126 -330h254z" />
    <glyph glyph-name="abreve" unicode="&#x103;" horiz-adv-x="489" 
d="M378 665q-8 -50 -41.5 -81t-91.5 -31q-57 0 -90 31t-41 81l46 9q17 -63 86 -63q66 0 85 63zM351 117v134q-90 -9 -144 -27.5t-74 -42.5t-20 -58q0 -37 23.5 -57t61.5 -20q77 0 153 71zM416 0h-50l-11 63q-78 -73 -167 -73q-63 0 -102 34t-39 95q0 83 71.5 125.5
t232.5 58.5v31q0 91 -98 91q-76 0 -163 -42l-9 59q94 41 176 41q159 0 159 -146v-337z" />
    <glyph glyph-name="Aogonek" unicode="&#x104;" horiz-adv-x="691" 
d="M598 -178q-35 0 -54.5 17.5t-19.5 49.5q0 38 50 100l8 10l-86 224h-300l-85 -223h-72l272 694h71l270 -686l-19 -4l-23 -33q-31 -44 -31 -68q0 -34 39 -34q20 0 41 6v-42q-30 -11 -61 -11zM345 614l-126 -330h254z" />
    <glyph glyph-name="aogonek" unicode="&#x105;" horiz-adv-x="489" 
d="M351 117v134q-90 -9 -144 -27.5t-74 -42.5t-20 -58q0 -37 23.5 -57t61.5 -20q77 0 153 71zM437 -167q-30 -11 -61 -11q-35 0 -54.5 17.5t-19.5 49.5q0 38 50 100l13 17l-10 57q-78 -73 -167 -73q-63 0 -102 34t-39 95q0 83 71.5 125.5t232.5 58.5v31q0 91 -98 91
q-76 0 -163 -42l-9 59q94 41 176 41q159 0 159 -146v-337h-7l-21 -29q-31 -44 -31 -68q0 -34 39 -34q20 0 41 6v-42z" />
    <glyph glyph-name="Cacute" unicode="&#x106;" horiz-adv-x="638" 
d="M524 896l-136 -134h-46l97 153zM584 56q-92 -69 -210 -69q-140 0 -226.5 98.5t-86.5 258.5q0 159 88 259t230 100q109 0 194 -59l-11 -70q-90 67 -184 67q-113 0 -179.5 -81t-66.5 -214q0 -134 66.5 -215t178.5 -81q103 0 197 72z" />
    <glyph glyph-name="cacute" unicode="&#x107;" horiz-adv-x="465" 
d="M417 684l-136 -134h-46l97 153zM422 43q-67 -53 -160 -53t-153.5 66t-60.5 180q0 116 61.5 181.5t156.5 65.5q86 0 152 -48l-11 -66q-68 57 -142 57q-67 0 -108.5 -50t-41.5 -139q0 -88 42.5 -138.5t110.5 -50.5q80 0 145 57z" />
    <glyph glyph-name="Cdotaccent" unicode="&#x10a;" horiz-adv-x="638" 
d="M413 769h-84v90h84v-90zM584 56q-92 -69 -210 -69q-140 0 -226.5 98.5t-86.5 258.5q0 159 88 259t230 100q109 0 194 -59l-11 -70q-90 67 -184 67q-113 0 -179.5 -81t-66.5 -214q0 -134 66.5 -215t178.5 -81q103 0 197 72z" />
    <glyph glyph-name="cdotaccent" unicode="&#x10b;" horiz-adv-x="465" 
d="M306 557h-84v90h84v-90zM422 43q-67 -53 -160 -53t-153.5 66t-60.5 180q0 116 61.5 181.5t156.5 65.5q86 0 152 -48l-11 -66q-68 57 -142 57q-67 0 -108.5 -50t-41.5 -139q0 -88 42.5 -138.5t110.5 -50.5q80 0 145 57z" />
    <glyph glyph-name="Ccaron" unicode="&#x10c;" horiz-adv-x="638" 
d="M237 907h43l91 -83l92 83h43l-104 -145h-62zM584 56q-92 -69 -210 -69q-140 0 -226.5 98.5t-86.5 258.5q0 159 88 259t230 100q109 0 194 -59l-11 -70q-90 67 -184 67q-113 0 -179.5 -81t-66.5 -214q0 -134 66.5 -215t178.5 -81q103 0 197 72z" />
    <glyph glyph-name="ccaron" unicode="&#x10d;" horiz-adv-x="465" 
d="M130 695h43l91 -83l92 83h43l-104 -145h-62zM422 43q-67 -53 -160 -53t-153.5 66t-60.5 180q0 116 61.5 181.5t156.5 65.5q86 0 152 -48l-11 -66q-68 57 -142 57q-67 0 -108.5 -50t-41.5 -139q0 -88 42.5 -138.5t110.5 -50.5q80 0 145 57z" />
    <glyph glyph-name="Dcaron" unicode="&#x10e;" horiz-adv-x="701" 
d="M201 897h43l91 -83l92 83h43l-104 -145h-62zM639 346q0 -159 -97.5 -252.5t-264.5 -93.5h-185v690h188q170 0 264.5 -93.5t94.5 -250.5zM568 345q0 137 -77.5 210t-209.5 73h-120v-566h120q134 0 210.5 72t76.5 211z" />
    <glyph glyph-name="dcaron" unicode="&#x10f;" horiz-adv-x="531" 
d="M575 720q20 -38 20 -71q0 -63 -64 -120l-33 7q36 52 36 95q0 31 -23 77zM117 226q0 -84 35.5 -130.5t93.5 -46.5q72 0 142 85v261q-55 28 -121 28q-67 0 -108.5 -50.5t-41.5 -146.5zM49 223q0 124 62 190.5t154 66.5q69 0 123 -23v249l66 12v-718h-50l-12 69
q-66 -79 -152 -79q-83 0 -137 59.5t-54 173.5z" />
    <glyph glyph-name="Dcroat" unicode="&#x110;" horiz-adv-x="715" 
d="M292 0h-185v331h-80l-10 60h90v299h188q169 0 264 -94t95 -250q0 -159 -98 -252.5t-264 -93.5zM175 62h121q134 0 210.5 72t76.5 211q0 136 -78 209.5t-210 73.5h-120v-237h166v-60h-166v-269z" />
    <glyph glyph-name="dcroat" unicode="&#x111;" horiz-adv-x="531" 
d="M117 226q0 -84 35.5 -130.5t93.5 -46.5q72 0 142 85v261q-55 28 -121 28q-67 0 -108.5 -50.5t-41.5 -146.5zM392 69q-66 -79 -152 -79q-83 0 -137 59.5t-54 173.5q0 124 62 190.5t154 66.5q69 0 123 -23v120h-145l-10 55h155v74l66 12v-86h75v-55h-75v-577h-50z" />
    <glyph glyph-name="Emacron" unicode="&#x112;" horiz-adv-x="507" 
d="M404 779h-260v56h260v-56zM462 0h-370v690h360v-63h-291v-235h230l10 -62h-240v-267h301v-63z" />
    <glyph glyph-name="emacron" unicode="&#x113;" horiz-adv-x="491" 
d="M384 577h-260v56h260v-56zM250 430q-53 0 -88.5 -38t-44.5 -108h258q-5 66 -37 106t-88 40zM442 57q-79 -67 -181 -67q-96 0 -154.5 64t-58.5 183q0 112 57 179t146 67q92 0 142 -67t50 -170v-14h-329q2 -88 41.5 -136.5t110.5 -48.5q84 0 166 70z" />
    <glyph glyph-name="Ebreve" unicode="&#x114;" horiz-adv-x="507" 
d="M406 867q-8 -50 -41.5 -81t-91.5 -31q-57 0 -90 31t-41 81l46 9q17 -63 86 -63q66 0 85 63zM462 0h-370v690h360v-63h-291v-235h230l10 -62h-240v-267h301v-63z" />
    <glyph glyph-name="ebreve" unicode="&#x115;" horiz-adv-x="491" 
d="M386 665q-8 -50 -41.5 -81t-91.5 -31q-57 0 -90 31t-41 81l46 9q17 -63 86 -63q66 0 85 63zM250 430q-53 0 -88.5 -38t-44.5 -108h258q-5 66 -37 106t-88 40zM442 57q-79 -67 -181 -67q-96 0 -154.5 64t-58.5 183q0 112 57 179t146 67q92 0 142 -67t50 -170v-14h-329
q2 -88 41.5 -136.5t110.5 -48.5q84 0 166 70z" />
    <glyph glyph-name="Edotaccent" unicode="&#x116;" horiz-adv-x="507" 
d="M316 759h-84v90h84v-90zM462 0h-370v690h360v-63h-291v-235h230l10 -62h-240v-267h301v-63z" />
    <glyph glyph-name="edotaccent" unicode="&#x117;" horiz-adv-x="491" 
d="M296 557h-84v90h84v-90zM250 430q-53 0 -88.5 -38t-44.5 -108h258q-5 66 -37 106t-88 40zM442 57q-79 -67 -181 -67q-96 0 -154.5 64t-58.5 183q0 112 57 179t146 67q92 0 142 -67t50 -170v-14h-329q2 -88 41.5 -136.5t110.5 -48.5q84 0 166 70z" />
    <glyph glyph-name="Eogonek" unicode="&#x118;" horiz-adv-x="505" 
d="M465 -167q-30 -11 -61 -11q-35 0 -54.5 17.5t-19.5 49.5q0 38 50 100l9 11h-297v690h360v-63h-291v-235h230l10 -62h-240v-267h301v-63h-25l-21 -29q-31 -44 -31 -68q0 -34 39 -34q20 0 41 6v-42z" />
    <glyph glyph-name="eogonek" unicode="&#x119;" horiz-adv-x="491" 
d="M363 -178q-36 0 -55.5 17.5t-19.5 49.5q0 23 13 47.5t48 68.5q-43 -15 -88 -15q-96 0 -154.5 64t-58.5 183q0 112 57 179t146 67q92 0 142 -67t50 -170v-14h-329q2 -88 41 -136.5t111 -48.5q84 0 166 70l9 -53l-55 -75q-43 -61 -43 -86q0 -34 39 -34q20 0 41 6v-42
q-30 -11 -60 -11zM117 284h258q-5 66 -37 106t-88 40q-54 0 -89 -38.5t-44 -107.5z" />
    <glyph glyph-name="Ecaron" unicode="&#x11a;" horiz-adv-x="507" 
d="M140 897h43l91 -83l92 83h43l-104 -145h-62zM462 0h-370v690h360v-63h-291v-235h230l10 -62h-240v-267h301v-63z" />
    <glyph glyph-name="ecaron" unicode="&#x11b;" horiz-adv-x="491" 
d="M120 695h43l91 -83l92 83h43l-104 -145h-62zM250 430q-53 0 -88.5 -38t-44.5 -108h258q-5 66 -37 106t-88 40zM442 57q-79 -67 -181 -67q-96 0 -154.5 64t-58.5 183q0 112 57 179t146 67q92 0 142 -67t50 -170v-14h-329q2 -88 41.5 -136.5t110.5 -48.5q84 0 166 70z" />
    <glyph glyph-name="Gbreve" unicode="&#x11e;" horiz-adv-x="694" 
d="M502 877q-8 -50 -41.5 -81t-91.5 -31q-57 0 -90 31t-41 81l46 9q17 -63 86 -63q66 0 85 63zM612 57q-105 -70 -227 -70q-151 0 -237.5 98t-86.5 259q0 160 87 259.5t231 99.5q118 0 204 -60l-12 -71q-86 69 -193 69q-114 0 -180 -80.5t-66 -215.5t67 -215.5t187 -80.5
q86 0 158 44v206h-166l-10 63h244v-305z" />
    <glyph glyph-name="gbreve" unicode="&#x11f;" horiz-adv-x="502" 
d="M370 665q-8 -50 -41.5 -81t-91.5 -31q-57 0 -90 31t-41 81l46 9q17 -63 86 -63q66 0 85 63zM345 322q0 48 -32 80t-82 32t-80 -32t-30 -82q0 -47 30.5 -78.5t81.5 -31.5t81.5 31.5t30.5 80.5zM464 -38q0 -66 -64.5 -104t-160.5 -38t-156 32t-60 91q0 70 108 126
q-35 20 -35 49q0 34 48 63q-41 20 -64.5 56.5t-23.5 84.5q0 72 51.5 116.5t123.5 44.5q71 0 120 -40l118 38l11 -65l-95 -10q25 -38 25 -84q0 -73 -52 -117t-125 -44q-24 0 -41 4q-31 -17 -31 -34q0 -14 20 -22t86 -20l35 -7q83 -15 122.5 -42.5t39.5 -77.5zM243 -130
q71 0 114.5 24t43.5 60q0 28 -25.5 44.5t-88.5 28.5l-46 8q-52 11 -57 12q-96 -44 -96 -100q0 -36 42 -56.5t113 -20.5z" />
    <glyph glyph-name="Gdotaccent" unicode="&#x120;" horiz-adv-x="694" 
d="M412 769h-84v90h84v-90zM612 57q-105 -70 -227 -70q-151 0 -237.5 98t-86.5 259q0 160 87 259.5t231 99.5q118 0 204 -60l-12 -71q-86 69 -193 69q-114 0 -180 -80.5t-66 -215.5t67 -215.5t187 -80.5q86 0 158 44v206h-166l-10 63h244v-305z" />
    <glyph glyph-name="gdotaccent" unicode="&#x121;" horiz-adv-x="502" 
d="M280 557h-84v90h84v-90zM345 322q0 48 -32 80t-82 32t-80 -32t-30 -82q0 -47 30.5 -78.5t81.5 -31.5t81.5 31.5t30.5 80.5zM464 -38q0 -66 -64.5 -104t-160.5 -38t-156 32t-60 91q0 70 108 126q-35 20 -35 49q0 34 48 63q-41 20 -64.5 56.5t-23.5 84.5q0 72 51.5 116.5
t123.5 44.5q71 0 120 -40l118 38l11 -65l-95 -10q25 -38 25 -84q0 -73 -52 -117t-125 -44q-24 0 -41 4q-31 -17 -31 -34q0 -14 20 -22t86 -20l35 -7q83 -15 122.5 -42.5t39.5 -77.5zM243 -130q71 0 114.5 24t43.5 60q0 28 -25.5 44.5t-88.5 28.5l-46 8q-52 11 -57 12
q-96 -44 -96 -100q0 -36 42 -56.5t113 -20.5z" />
    <glyph glyph-name="Gcommaaccent" unicode="&#x122;" horiz-adv-x="694" 
d="M612 57q-105 -70 -227 -70q-151 0 -237.5 98t-86.5 259q0 160 87 259.5t231 99.5q118 0 204 -60l-12 -71q-86 69 -193 69q-114 0 -180 -80.5t-66 -215.5t67 -215.5t187 -80.5q86 0 158 44v206h-166l-10 63h244v-305zM318 -90l57 23q45 -37 45 -85q0 -52 -72 -116l-43 8
q55 59 55 99q0 36 -42 71z" />
    <glyph glyph-name="gcommaaccent" unicode="&#x123;" horiz-adv-x="502" 
d="M284 570l-57 -24q-45 38 -45 85q0 50 72 117l43 -9q-54 -60 -54 -99q0 -34 41 -70zM345 322q0 48 -32 80t-82 32t-80 -32t-30 -82q0 -47 30.5 -78.5t81.5 -31.5t81.5 31.5t30.5 80.5zM464 -38q0 -66 -64.5 -104t-160.5 -38t-156 32t-60 91q0 70 108 126q-35 20 -35 49
q0 34 48 63q-41 20 -64.5 56.5t-23.5 84.5q0 72 51.5 116.5t123.5 44.5q71 0 120 -40l118 38l11 -65l-95 -10q25 -38 25 -84q0 -73 -52 -117t-125 -44q-24 0 -41 4q-31 -17 -31 -34q0 -14 20 -22t86 -20l35 -7q83 -15 122.5 -42.5t39.5 -77.5zM243 -130q71 0 114.5 24
t43.5 60q0 28 -25.5 44.5t-88.5 28.5l-46 8q-52 11 -57 12q-96 -44 -96 -100q0 -36 42 -56.5t113 -20.5z" />
    <glyph glyph-name="Hbar" unicode="&#x126;" horiz-adv-x="734" 
d="M175 389h383v137h-383v-137zM175 328v-328h-68v525h-80l-10 58h90v107h68v-107h383v107h69v-107h85v-58h-85v-525h-69v328h-383z" />
    <glyph glyph-name="hbar" unicode="&#x127;" 
d="M143 342v-342h-66v577h-70l-9 55h79v74l66 12v-86h151v-55h-151v-171q88 77 166 77q69 0 105 -37.5t36 -106.5v-339h-66v326q0 98 -88 98q-69 0 -153 -82z" />
    <glyph glyph-name="Imacron" unicode="&#x12a;" horiz-adv-x="268" 
d="M264 779h-260v56h260v-56zM168 0h-69v690h69v-690z" />
    <glyph glyph-name="imacron" unicode="&#x12b;" horiz-adv-x="234" 
d="M247 577h-260v56h260v-56zM150 0h-66v473h66v-473z" />
    <glyph glyph-name="Ibreve" unicode="&#x12c;" horiz-adv-x="268" 
d="M266 867q-8 -50 -41.5 -81t-91.5 -31q-57 0 -90 31t-41 81l46 9q17 -63 86 -63q66 0 85 63zM168 0h-69v690h69v-690z" />
    <glyph glyph-name="ibreve" unicode="&#x12d;" horiz-adv-x="234" 
d="M249 665q-8 -50 -41.5 -81t-91.5 -31q-57 0 -90 31t-41 81l46 9q17 -63 86 -63q66 0 85 63zM150 0h-66v473h66v-473z" />
    <glyph glyph-name="Iogonek" unicode="&#x12e;" horiz-adv-x="268" 
d="M188 -167q-30 -11 -61 -11q-35 0 -54.5 17.5t-19.5 49.5q0 38 50 100l9 11h-13v690h69v-690h-8l-21 -29q-31 -44 -31 -68q0 -34 39 -34q20 0 41 6v-42z" />
    <glyph glyph-name="iogonek" unicode="&#x12f;" horiz-adv-x="234" 
d="M164 634q0 -20 -14 -34t-33 -14t-33.5 14t-14.5 34t14.5 34t33.5 14t33 -14t14 -34zM171 -167q-30 -11 -61 -11q-35 0 -54.5 17.5t-19.5 49.5q0 38 50 100l9 11h-11v473h66v-473h-7l-21 -29q-31 -44 -31 -68q0 -34 39 -34q20 0 41 6v-42z" />
    <glyph glyph-name="Idotaccent" unicode="&#x130;" horiz-adv-x="268" 
d="M176 759h-84v90h84v-90zM168 0h-69v690h69v-690z" />
    <glyph glyph-name="dotlessi" unicode="&#x131;" horiz-adv-x="234" 
d="M150 0h-66v473h66v-473z" />
    <glyph glyph-name="Kcommaaccent" unicode="&#x136;" horiz-adv-x="606" 
d="M589 10l-78 -17l-350 363v-356h-69v690h69v-314l320 314h89l-332 -322zM252 -86l57 23q45 -37 45 -85q0 -52 -72 -116l-43 8q55 59 55 99q0 36 -42 71z" />
    <glyph glyph-name="kcommaaccent" unicode="&#x137;" horiz-adv-x="466" 
d="M378 -7l-235 258v-251h-66v706l66 12v-448l206 203h85l-221 -211l237 -256zM188 -88l57 23q45 -37 45 -85q0 -52 -72 -116l-43 8q55 59 55 99q0 36 -42 71z" />
    <glyph glyph-name="Lacute" unicode="&#x139;" horiz-adv-x="466" 
d="M294 884l-136 -134h-46l97 153zM437 0h-345v690h69v-626h266z" />
    <glyph glyph-name="lacute" unicode="&#x13a;" horiz-adv-x="234" 
d="M273 899l-136 -134h-46l97 153zM150 0h-66v706l66 12v-718z" />
    <glyph glyph-name="Lcommaaccent" unicode="&#x13b;" horiz-adv-x="466" 
d="M437 0h-345v690h69v-626h266zM207 -88l57 23q45 -37 45 -85q0 -52 -72 -116l-43 8q55 59 55 99q0 36 -42 71z" />
    <glyph glyph-name="lcommaaccent" unicode="&#x13c;" horiz-adv-x="234" 
d="M150 0h-66v706l66 12v-718zM65 -88l57 23q45 -37 45 -85q0 -52 -72 -116l-43 8q55 59 55 99q0 36 -42 71z" />
    <glyph glyph-name="Lcaron" unicode="&#x13d;" horiz-adv-x="466" 
d="M308 694q20 -38 20 -71q0 -63 -64 -120l-33 7q36 52 36 95q0 31 -23 77zM437 0h-345v690h69v-626h266z" />
    <glyph glyph-name="lcaron" unicode="&#x13e;" horiz-adv-x="234" 
d="M270 720q20 -38 20 -71q0 -63 -64 -120l-33 7q36 52 36 95q0 31 -23 77zM150 0h-66v706l66 12v-718z" />
    <glyph glyph-name="Ldot" unicode="&#x13f;" horiz-adv-x="466" 
d="M437 0h-345v690h69v-626h266zM398 304h-82v88h82v-88z" />
    <glyph glyph-name="ldot" unicode="&#x140;" horiz-adv-x="274" 
d="M150 0h-66v706l66 12v-718zM287 311h-66v88h66v-88z" />
    <glyph glyph-name="Lslash" unicode="&#x141;" horiz-adv-x="481" 
d="M451 0h-344v277l-80 -45l-10 62l90 50v346h68v-309l159 90v-68l-159 -88v-252h266z" />
    <glyph glyph-name="lslash" unicode="&#x142;" horiz-adv-x="272" 
d="M169 0h-65v299l-79 -44l-10 61l89 49v341l65 12v-317l84 47v-67l-84 -46v-335z" />
    <glyph glyph-name="Nacute" unicode="&#x143;" horiz-adv-x="705" 
d="M508 882l-136 -134h-46l97 153zM613 0h-53l-403 581v-581h-65v690h65l391 -563v563h65v-690z" />
    <glyph glyph-name="nacute" unicode="&#x144;" 
d="M415 684l-136 -134h-46l97 153zM450 0h-66v326q0 98 -88 98q-69 0 -153 -82v-342h-66v473h51l11 -70q90 80 170 80q69 0 105 -38t36 -107v-338z" />
    <glyph glyph-name="Ncommaaccent" unicode="&#x145;" horiz-adv-x="705" 
d="M613 0h-53l-403 581v-581h-65v690h65l391 -563v563h65v-690zM303 -86l57 23q45 -37 45 -85q0 -52 -72 -116l-43 8q55 59 55 99q0 36 -42 71z" />
    <glyph glyph-name="ncommaaccent" unicode="&#x146;" 
d="M450 0h-66v326q0 98 -88 98q-69 0 -153 -82v-342h-66v473h51l11 -70q90 80 170 80q69 0 105 -38t36 -107v-338zM210 -88l57 23q45 -37 45 -85q0 -52 -72 -116l-43 8q55 59 55 99q0 36 -42 71z" />
    <glyph glyph-name="Ncaron" unicode="&#x147;" horiz-adv-x="705" 
d="M221 893h43l91 -83l92 83h43l-104 -145h-62zM613 0h-53l-403 581v-581h-65v690h65l391 -563v563h65v-690z" />
    <glyph glyph-name="ncaron" unicode="&#x148;" 
d="M128 695h43l91 -83l92 83h43l-104 -145h-62zM450 0h-66v326q0 98 -88 98q-69 0 -153 -82v-342h-66v473h51l11 -70q90 80 170 80q69 0 105 -38t36 -107v-338z" />
    <glyph glyph-name="Omacron" unicode="&#x14c;" horiz-adv-x="745" 
d="M503 789h-260v56h260v-56zM684 346q0 -159 -87 -259t-226 -100q-138 0 -224 99.5t-86 257.5q0 159 87 259t225 100q139 0 225 -99t86 -258zM613 344q0 133 -66 215t-175 82q-108 0 -174 -81.5t-66 -213.5q0 -133 66 -215t175 -82q108 0 174 81.5t66 213.5z" />
    <glyph glyph-name="omacron" unicode="&#x14d;" 
d="M392 577h-260v56h260v-56zM475 236q0 -114 -60.5 -180t-154.5 -66q-93 0 -152.5 66t-59.5 180q0 115 60 181t152 66q95 0 155 -66t60 -181zM407 236q0 87 -40 139t-107 52q-66 0 -105.5 -51t-39.5 -140q0 -86 40 -138t105 -52q67 0 107 51t40 139z" />
    <glyph glyph-name="Obreve" unicode="&#x14e;" horiz-adv-x="745" 
d="M505 877q-8 -50 -41.5 -81t-91.5 -31q-57 0 -90 31t-41 81l46 9q17 -63 86 -63q66 0 85 63zM684 346q0 -159 -87 -259t-226 -100q-138 0 -224 99.5t-86 257.5q0 159 87 259t225 100q139 0 225 -99t86 -258zM613 344q0 133 -66 215t-175 82q-108 0 -174 -81.5t-66 -213.5
q0 -133 66 -215t175 -82q108 0 174 81.5t66 213.5z" />
    <glyph glyph-name="obreve" unicode="&#x14f;" 
d="M394 665q-8 -50 -41.5 -81t-91.5 -31q-57 0 -90 31t-41 81l46 9q17 -63 86 -63q66 0 85 63zM475 236q0 -114 -60.5 -180t-154.5 -66q-93 0 -152.5 66t-59.5 180q0 115 60 181t152 66q95 0 155 -66t60 -181zM407 236q0 87 -40 139t-107 52q-66 0 -105.5 -51t-39.5 -140
q0 -86 40 -138t105 -52q67 0 107 51t40 139z" />
    <glyph glyph-name="Ohungarumlaut" unicode="&#x150;" horiz-adv-x="745" 
d="M435 899l-134 -133h-41l96 152zM595 899l-133 -133h-41l95 152zM684 346q0 -159 -87 -259t-226 -100q-138 0 -224 99.5t-86 257.5q0 159 87 259t225 100q139 0 225 -99t86 -258zM613 344q0 133 -66 215t-175 82q-108 0 -174 -81.5t-66 -213.5q0 -133 66 -215t175 -82
q108 0 174 81.5t66 213.5z" />
    <glyph glyph-name="ohungarumlaut" unicode="&#x151;" 
d="M324 687l-134 -133h-41l96 152zM484 687l-133 -133h-41l95 152zM475 236q0 -114 -60.5 -180t-154.5 -66q-93 0 -152.5 66t-59.5 180q0 115 60 181t152 66q95 0 155 -66t60 -181zM407 236q0 87 -40 139t-107 52q-66 0 -105.5 -51t-39.5 -140q0 -86 40 -138t105 -52
q67 0 107 51t40 139z" />
    <glyph glyph-name="OE" unicode="&#x152;" horiz-adv-x="877" 
d="M831 0h-414q-168 0 -263 94t-95 250q0 159 98 252.5t264 93.5h400v-62h-288v-236h228l9 -62h-237v-268h298v-62zM464 62v566h-48q-134 0 -210.5 -72t-76.5 -211q0 -136 78 -209.5t210 -73.5h47z" />
    <glyph glyph-name="oe" unicode="&#x153;" horiz-adv-x="851" 
d="M802 246v-14h-329q1 -87 41.5 -136t109.5 -49q85 0 167 70l10 -60q-80 -67 -181 -67q-63 0 -110 30.5t-70 85.5q-52 -116 -181 -116q-93 0 -152 66t-59 180t60 180.5t151 66.5q64 0 111 -30.5t71 -85.5q24 55 68 85.5t104 30.5q91 0 140 -66.5t49 -170.5zM734 284
q-5 67 -36.5 106.5t-85.5 39.5q-55 0 -91 -38.5t-45 -107.5h258zM408 236q0 84 -39.5 137.5t-109.5 53.5q-68 0 -106 -52.5t-38 -138.5q0 -84 38.5 -137t105.5 -53q71 0 110 52t39 138z" />
    <glyph glyph-name="Racute" unicode="&#x154;" horiz-adv-x="567" 
d="M423 886l-136 -134h-46l97 153zM472 -7l-220 308h-91v-301h-69v690h175q103 0 162.5 -50.5t59.5 -139.5q0 -77 -44.5 -125.5t-116.5 -64.5l216 -301zM419 496q0 63 -40 98t-116 35h-102v-269h91q77 0 122 35.5t45 100.5z" />
    <glyph glyph-name="racute" unicode="&#x155;" horiz-adv-x="344" 
d="M331 684l-136 -134h-46l97 153zM320 421q-56 -4 -104 -39t-73 -85v-297h-66v473h49l15 -97q69 104 168 107z" />
    <glyph glyph-name="Rcommaaccent" unicode="&#x156;" horiz-adv-x="567" 
d="M472 -7l-220 308h-91v-301h-69v690h175q103 0 162.5 -50.5t59.5 -139.5q0 -77 -44.5 -125.5t-116.5 -64.5l216 -301zM419 496q0 63 -40 98t-116 35h-102v-269h91q77 0 122 35.5t45 100.5zM234 -86l57 23q45 -37 45 -85q0 -52 -72 -116l-43 8q55 59 55 99q0 36 -42 71z
" />
    <glyph glyph-name="rcommaaccent" unicode="&#x157;" horiz-adv-x="344" 
d="M320 421q-56 -4 -104 -39t-73 -85v-297h-66v473h49l15 -97q69 104 168 107zM72 -88l57 23q45 -37 45 -85q0 -52 -72 -116l-43 8q55 59 55 99q0 36 -42 71z" />
    <glyph glyph-name="Rcaron" unicode="&#x158;" horiz-adv-x="567" 
d="M137 897h43l91 -83l92 83h43l-104 -145h-62zM472 -7l-220 308h-91v-301h-69v690h175q103 0 162.5 -50.5t59.5 -139.5q0 -77 -44.5 -125.5t-116.5 -64.5l216 -301zM419 496q0 63 -40 98t-116 35h-102v-269h91q77 0 122 35.5t45 100.5z" />
    <glyph glyph-name="rcaron" unicode="&#x159;" horiz-adv-x="344" 
d="M45 695h43l91 -83l92 83h43l-104 -145h-62zM320 421q-56 -4 -104 -39t-73 -85v-297h-66v473h49l15 -97q69 104 168 107z" />
    <glyph glyph-name="Sacute" unicode="&#x15a;" horiz-adv-x="512" 
d="M416 896l-136 -134h-46l97 153zM459 182q0 -87 -61 -138.5t-154 -51.5q-101 0 -183 43l10 70q81 -52 176 -52q62 0 102 33.5t40 90.5q0 51 -30 82t-109 66q-102 45 -141 86.5t-39 112.5q0 77 56 125.5t142 48.5q90 0 152 -36l-10 -69q-66 44 -145 44q-59 0 -92.5 -31
t-33.5 -78q0 -46 29.5 -74.5t110.5 -64.5q98 -43 139 -88t41 -119z" />
    <glyph glyph-name="sacute" unicode="&#x15b;" horiz-adv-x="438" 
d="M376 684l-136 -134h-46l97 153zM391 128q0 -64 -47 -100.5t-129 -36.5q-93 0 -170 43l11 64q79 -50 165 -50q50 0 78.5 19.5t28.5 55.5q0 35 -25.5 54.5t-96.5 38.5q-81 21 -115.5 51.5t-34.5 87.5q0 56 44 92t117 36q76 0 147 -32l-11 -63q-69 37 -138 37
q-47 0 -71.5 -18.5t-24.5 -48.5q0 -29 23 -46.5t83 -33.5q88 -24 127 -56.5t39 -93.5z" />
    <glyph glyph-name="Scedilla" unicode="&#x15e;" horiz-adv-x="512" 
d="M459 182q0 -87 -61 -138.5t-154 -51.5q-101 0 -183 43l10 70q81 -52 176 -52q62 0 102 33.5t40 90.5q0 51 -30 82t-109 66q-102 45 -141 86.5t-39 112.5q0 77 56 125.5t142 48.5q90 0 152 -36l-10 -69q-66 44 -145 44q-59 0 -92.5 -31t-33.5 -78q0 -46 29.5 -74.5
t110.5 -64.5q98 -43 139 -88t41 -119zM315 -84l-122 -114h-46l84 134z" />
    <glyph glyph-name="scedilla" unicode="&#x15f;" horiz-adv-x="438" 
d="M391 128q0 -64 -47 -100.5t-129 -36.5q-93 0 -170 43l11 64q79 -50 165 -50q50 0 78.5 19.5t28.5 55.5q0 35 -25.5 54.5t-96.5 38.5q-81 21 -115.5 51.5t-34.5 87.5q0 56 44 92t117 36q76 0 147 -32l-11 -63q-69 37 -138 37q-47 0 -71.5 -18.5t-24.5 -48.5
q0 -29 23 -46.5t83 -33.5q88 -24 127 -56.5t39 -93.5zM275 -82l-122 -114h-46l84 134z" />
    <glyph glyph-name="Scaron" unicode="&#x160;" horiz-adv-x="512" 
d="M130 907h43l91 -83l92 83h43l-104 -145h-62zM459 182q0 -87 -61 -138.5t-154 -51.5q-101 0 -183 43l10 70q81 -52 176 -52q62 0 102 33.5t40 90.5q0 51 -30 82t-109 66q-102 45 -141 86.5t-39 112.5q0 77 56 125.5t142 48.5q90 0 152 -36l-10 -69q-66 44 -145 44
q-59 0 -92.5 -31t-33.5 -78q0 -46 29.5 -74.5t110.5 -64.5q98 -43 139 -88t41 -119z" />
    <glyph glyph-name="scaron" unicode="&#x161;" horiz-adv-x="438" 
d="M90 695h43l91 -83l92 83h43l-104 -145h-62zM391 128q0 -64 -47 -100.5t-129 -36.5q-93 0 -170 43l11 64q79 -50 165 -50q50 0 78.5 19.5t28.5 55.5q0 35 -25.5 54.5t-96.5 38.5q-81 21 -115.5 51.5t-34.5 87.5q0 56 44 92t117 36q76 0 147 -32l-11 -63q-69 37 -138 37
q-47 0 -71.5 -18.5t-24.5 -48.5q0 -29 23 -46.5t83 -33.5q88 -24 127 -56.5t39 -93.5z" />
    <glyph glyph-name="Tcommaaccent" unicode="&#x162;" horiz-adv-x="579" 
d="M550 627h-226v-627h-69v627h-222v63h508zM241 -88l57 23q45 -37 45 -85q0 -52 -72 -116l-43 8q55 59 55 99q0 36 -42 71z" />
    <glyph glyph-name="tcommaaccent" unicode="&#x163;" horiz-adv-x="330" 
d="M289 0q-28 -8 -66 -8q-123 0 -123 116v309h-73v56h73v164l65 11v-175h109l9 -56h-118v-298q0 -36 16 -52.5t54 -16.5q17 0 44 5zM137 -88l57 23q45 -37 45 -85q0 -52 -72 -116l-43 8q55 59 55 99q0 36 -42 71z" />
    <glyph glyph-name="Tcaron" unicode="&#x164;" horiz-adv-x="579" 
d="M159 897h43l91 -83l92 83h43l-104 -145h-62zM550 627h-226v-627h-69v627h-222v63h508z" />
    <glyph glyph-name="tcaron" unicode="&#x165;" horiz-adv-x="330" 
d="M295 735q20 -38 20 -71q0 -63 -64 -120l-33 7q36 52 36 95q0 31 -23 77zM289 0q-28 -8 -66 -8q-123 0 -123 116v309h-73v56h73v164l65 11v-175h109l9 -56h-118v-298q0 -36 16 -52.5t54 -16.5q17 0 44 5z" />
    <glyph glyph-name="Umacron" unicode="&#x16a;" horiz-adv-x="681" 
d="M471 775h-260v56h260v-56zM600 263q0 -126 -70 -200t-191 -74q-120 0 -189 73.5t-69 195.5v432h69v-423q0 -99 48.5 -157.5t141.5 -58.5q92 0 141.5 56.5t49.5 155.5v427h69v-427z" />
    <glyph glyph-name="umacron" unicode="&#x16b;" 
d="M390 574h-260v56h260v-56zM73 473h66v-326q0 -97 88 -97q70 0 153 81v342h66v-473h-51l-11 70q-90 -80 -170 -80q-70 0 -105.5 38t-35.5 107v338z" />
    <glyph glyph-name="Ubreve" unicode="&#x16c;" horiz-adv-x="681" 
d="M473 855q-8 -50 -41.5 -81t-91.5 -31q-57 0 -90 31t-41 81l46 9q17 -63 86 -63q66 0 85 63zM600 263q0 -126 -70 -200t-191 -74q-120 0 -189 73.5t-69 195.5v432h69v-423q0 -99 48.5 -157.5t141.5 -58.5q92 0 141.5 56.5t49.5 155.5v427h69v-427z" />
    <glyph glyph-name="ubreve" unicode="&#x16d;" 
d="M392 662q-8 -50 -41.5 -81t-91.5 -31q-57 0 -90 31t-41 81l46 9q17 -63 86 -63q66 0 85 63zM73 473h66v-326q0 -97 88 -97q70 0 153 81v342h66v-473h-51l-11 70q-90 -80 -170 -80q-70 0 -105.5 38t-35.5 107v338z" />
    <glyph glyph-name="Uring" unicode="&#x16e;" horiz-adv-x="681" 
d="M438 829q0 -42 -28 -69t-70 -27t-70 27t-28 69t28 70.5t70 28.5t70 -28.5t28 -70.5zM398 829q0 26 -16.5 44t-41.5 18t-42 -18t-17 -44t17 -43t42 -17t41.5 17t16.5 43zM600 263q0 -126 -70 -200t-191 -74q-120 0 -189 73.5t-69 195.5v432h69v-423q0 -99 48.5 -157.5
t141.5 -58.5q92 0 141.5 56.5t49.5 155.5v427h69v-427z" />
    <glyph glyph-name="uring" unicode="&#x16f;" 
d="M358 641q0 -42 -28 -69t-70 -27t-70 27t-28 69t28 70.5t70 28.5t70 -28.5t28 -70.5zM318 641q0 26 -16.5 44t-41.5 18t-42 -18t-17 -44t17 -43t42 -17t41.5 17t16.5 43zM73 473h66v-326q0 -97 88 -97q70 0 153 81v342h66v-473h-51l-11 70q-90 -80 -170 -80
q-70 0 -105.5 38t-35.5 107v338z" />
    <glyph glyph-name="Uhungarumlaut" unicode="&#x170;" horiz-adv-x="681" 
d="M403 885l-134 -133h-41l96 152zM563 885l-133 -133h-41l95 152zM600 263q0 -126 -70 -200t-191 -74q-120 0 -189 73.5t-69 195.5v432h69v-423q0 -99 48.5 -157.5t141.5 -58.5q92 0 141.5 56.5t49.5 155.5v427h69v-427z" />
    <glyph glyph-name="uhungarumlaut" unicode="&#x171;" 
d="M323 684l-134 -133h-41l96 152zM483 684l-133 -133h-41l95 152zM73 473h66v-326q0 -97 88 -97q70 0 153 81v342h66v-473h-51l-11 70q-90 -80 -170 -80q-70 0 -105.5 38t-35.5 107v338z" />
    <glyph glyph-name="Uogonek" unicode="&#x172;" horiz-adv-x="681" 
d="M345 -178q-35 0 -54.5 17.5t-19.5 49.5q0 38 50 100q-112 6 -176 79t-64 190v432h69v-423q0 -99 48.5 -157.5t141.5 -58.5q92 0 141.5 56.5t49.5 155.5v427h69v-427q0 -117 -61 -190t-168 -83l-14 -19q-31 -44 -31 -68q0 -34 39 -34q20 0 41 6v-42q-30 -11 -61 -11z" />
    <glyph glyph-name="uogonek" unicode="&#x173;" 
d="M467 -167q-30 -11 -61 -11q-35 0 -54.5 17.5t-19.5 49.5q0 38 50 100l12 16l-10 65q-90 -80 -170 -80q-70 0 -105.5 38t-35.5 107v338h66v-326q0 -97 88 -97q70 0 153 81v342h66v-473h-7l-21 -29q-31 -44 -31 -68q0 -34 39 -34q20 0 41 6v-42z" />
    <glyph glyph-name="Wcircumflex" unicode="&#x174;" horiz-adv-x="1026" 
d="M648 750h-43l-92 83l-91 -83h-43l103 145h62zM980 690l-208 -692h-60l-200 597l-199 -597h-58l-207 684l69 15l171 -591l190 584h71l192 -584l169 584h70z" />
    <glyph glyph-name="wcircumflex" unicode="&#x175;" horiz-adv-x="728" 
d="M499 544h-43l-92 83l-91 -83h-43l103 145h62zM696 473l-157 -477h-58l-118 388l-117 -388h-57l-157 473l64 12l122 -397l118 391h58l118 -391l117 389h67z" />
    <glyph glyph-name="Ycircumflex" unicode="&#x176;" horiz-adv-x="628" 
d="M449 748h-43l-92 83l-91 -83h-43l103 145h62zM595 690l-248 -404v-286h-69v286l-244 397l71 14l209 -349l203 342h78z" />
    <glyph glyph-name="ycircumflex" unicode="&#x177;" horiz-adv-x="480" 
d="M376 547h-43l-92 83l-91 -83h-43l103 145h62zM107 -180q-8 0 -29 3l-10 59q22 -4 38 -4q31 0 50.5 16t33.5 54l19 49l-178 470l65 12l146 -403l139 397h69l-201 -535q-24 -66 -57 -92t-85 -26z" />
    <glyph glyph-name="Ydieresis" unicode="&#x178;" horiz-adv-x="628" 
d="M269 757h-82v89h82v-89zM442 757h-83v89h83v-89zM595 690l-248 -404v-286h-69v286l-244 397l71 14l209 -349l203 342h78z" />
    <glyph glyph-name="Zacute" unicode="&#x179;" horiz-adv-x="598" 
d="M455 886l-136 -134h-46l97 153zM550 0h-498v50l408 580h-379l-9 60h472v-50l-408 -580h405z" />
    <glyph glyph-name="zacute" unicode="&#x17a;" horiz-adv-x="449" 
d="M378 684l-136 -134h-46l97 153zM407 0h-366v51l282 367h-258l-9 55h343v-51l-282 -367h281z" />
    <glyph glyph-name="Zdotaccent" unicode="&#x17b;" horiz-adv-x="598" 
d="M344 759h-84v90h84v-90zM550 0h-498v50l408 580h-379l-9 60h472v-50l-408 -580h405z" />
    <glyph glyph-name="zdotaccent" unicode="&#x17c;" horiz-adv-x="449" 
d="M267 557h-84v90h84v-90zM407 0h-366v51l282 367h-258l-9 55h343v-51l-282 -367h281z" />
    <glyph glyph-name="Zcaron" unicode="&#x17d;" horiz-adv-x="598" 
d="M168 897h43l91 -83l92 83h43l-104 -145h-62zM550 0h-498v50l408 580h-379l-9 60h472v-50l-408 -580h405z" />
    <glyph glyph-name="zcaron" unicode="&#x17e;" horiz-adv-x="449" 
d="M91 695h43l91 -83l92 83h43l-104 -145h-62zM407 0h-366v51l282 367h-258l-9 55h343v-51l-282 -367h281z" />
    <glyph glyph-name="uni018F" unicode="&#x18f;" horiz-adv-x="688" 
d="M334 -13q-123 0 -196 93.5t-73 250.5v52h491q-9 120 -72.5 189t-159.5 69q-114 0 -226 -76l-10 67q116 71 238 71q131 0 216 -95.5t85 -258.5q0 -162 -83 -262t-210 -100zM337 48q90 0 151 73.5t68 199.5h-420q1 -128 53 -200.5t148 -72.5z" />
    <glyph glyph-name="florin" unicode="&#x192;" horiz-adv-x="381" 
d="M311 397h-110l-64 -397h-64l63 397h-69l9 56h69l15 98q11 70 46.5 101.5t102.5 31.5q13 0 43 -3v-60q-24 4 -44 4q-38 0 -57 -19.5t-27 -63.5l-14 -89h101v-56z" />
    <glyph glyph-name="Aringacute" unicode="&#x1fa;" horiz-adv-x="691" 
d="M493 993l-136 -134h-46l97 153zM585 -7l-89 230h-302l-85 -223h-70l254 650q-46 26 -46 82q0 41 28.5 70t70.5 29t70 -28.5t28 -70.5q0 -55 -45 -82l253 -642zM404 732q0 26 -16.5 44t-41.5 18t-42 -18t-17 -44t17 -43.5t42 -17.5t41.5 17.5t16.5 43.5zM345 614
l-127 -330h255z" />
    <glyph glyph-name="aringacute" unicode="&#x1fb;" horiz-adv-x="489" 
d="M395 913l-136 -134h-46l97 153zM343 644q0 -42 -28 -69t-70 -27t-70 27t-28 69t28 70.5t70 28.5t70 -28.5t28 -70.5zM303 644q0 26 -16.5 44t-41.5 18t-42 -18t-17 -44t17 -43t42 -17t41.5 17t16.5 43zM351 117v134q-90 -9 -144 -27.5t-74 -42.5t-20 -58q0 -37 23.5 -57
t61.5 -20q77 0 153 71zM416 0h-50l-11 63q-78 -73 -167 -73q-63 0 -102 34t-39 95q0 83 71.5 125.5t232.5 58.5v31q0 91 -98 91q-76 0 -163 -42l-9 59q94 41 176 41q159 0 159 -146v-337z" />
    <glyph glyph-name="AEacute" unicode="&#x1fc;" horiz-adv-x="873" 
d="M675 886l-136 -134h-46l97 153zM459 283v351l-208 -351h208zM459 0v223h-243l-131 -223h-75l410 690h398v-62h-291v-236h230l9 -62h-239v-268h301v-62h-369z" />
    <glyph glyph-name="aeacute" unicode="&#x1fd;" horiz-adv-x="790" 
d="M547 684l-136 -134h-46l97 153zM196 -10q-66 0 -107.5 34t-41.5 95q0 81 70 124t230 59v34q0 89 -94 89q-76 0 -163 -42l-9 59q92 41 173 41q116 0 143 -85q53 85 154 85q92 0 141 -66.5t49 -170.5v-14h-329q1 -87 41.5 -136t109.5 -49q85 0 167 70l10 -60
q-79 -67 -181 -67q-109 0 -169 85q-92 -85 -194 -85zM415 284h258q-5 67 -36.5 106.5t-85.5 39.5q-55 0 -91 -38.5t-45 -107.5zM204 46q81 0 162 76q-19 52 -19 115v14q-130 -14 -182 -45t-52 -82q0 -37 24.5 -57.5t66.5 -20.5z" />
    <glyph glyph-name="Oslashacute" unicode="&#x1fe;" horiz-adv-x="745" 
d="M526 896l-136 -134h-46l97 153zM371 -13q-116 0 -197 72l-55 -67l-62 13l79 95q-75 97 -75 244q0 159 87 259t225 100q117 0 198 -72l55 67l62 -13l-79 -95q75 -97 75 -244q0 -159 -87 -259t-226 -100zM130 346q0 -115 50 -193l351 427q-64 62 -159 62q-109 0 -175.5 -82
t-66.5 -214zM373 48q109 0 175.5 82t66.5 214q0 115 -50 193l-351 -427q64 -62 159 -62z" />
    <glyph glyph-name="oslashacute" unicode="&#x1ff;" 
d="M415 684l-136 -134h-46l97 153zM112 236q0 -67 25 -115l217 271q-37 37 -94 37q-68 0 -108 -52t-40 -141zM260 44q69 0 109.5 52t40.5 140q0 69 -26 116l-216 -272q38 -36 92 -36zM260 -10q-74 0 -128 43l-35 -44l-56 12l55 69q-48 66 -48 166q0 115 60 181t152 66
q76 0 131 -43l36 45l56 -13l-56 -70q48 -66 48 -166q0 -114 -60.5 -180t-154.5 -66z" />
    <glyph glyph-name="Scommaaccent" unicode="&#x218;" horiz-adv-x="512" 
d="M459 182q0 -87 -61 -138.5t-154 -51.5q-101 0 -183 43l10 70q81 -52 176 -52q62 0 102 33.5t40 90.5q0 51 -30 82t-109 66q-102 45 -141 86.5t-39 112.5q0 77 56 125.5t142 48.5q90 0 152 -36l-10 -69q-66 44 -145 44q-59 0 -92.5 -31t-33.5 -78q0 -46 29.5 -74.5
t110.5 -64.5q98 -43 139 -88t41 -119zM212 -90l57 23q45 -37 45 -85q0 -52 -72 -116l-43 8q55 59 55 99q0 36 -42 71z" />
    <glyph glyph-name="scommaaccent" unicode="&#x219;" horiz-adv-x="438" 
d="M391 128q0 -64 -47 -100.5t-129 -36.5q-93 0 -170 43l11 64q79 -50 165 -50q50 0 78.5 19.5t28.5 55.5q0 35 -25.5 54.5t-96.5 38.5q-81 21 -115.5 51.5t-34.5 87.5q0 56 44 92t117 36q76 0 147 -32l-11 -63q-69 37 -138 37q-47 0 -71.5 -18.5t-24.5 -48.5
q0 -29 23 -46.5t83 -33.5q88 -24 127 -56.5t39 -93.5zM172 -88l57 23q45 -37 45 -85q0 -52 -72 -116l-43 8q55 59 55 99q0 36 -42 71z" />
    <glyph glyph-name="schwa" unicode="&#x259;" horiz-adv-x="491" 
d="M240 -10q-92 0 -142 67t-50 170v14h329q-2 88 -41.5 136.5t-110.5 48.5q-84 0 -166 -70l-10 60q79 67 181 67q96 0 154.5 -64t58.5 -183q0 -112 -57 -179t-146 -67zM241 43q53 0 88.5 38t44.5 108h-258q5 -66 37 -106t88 -40z" />
    <glyph glyph-name="circumflex" unicode="&#x2c6;" horiz-adv-x="456" 
d="M362 550h-43l-92 83l-91 -83h-43l103 145h62z" />
    <glyph glyph-name="caron" unicode="&#x2c7;" horiz-adv-x="456" 
d="M95 695h43l91 -83l92 83h43l-104 -145h-62z" />
    <glyph glyph-name="breve" unicode="&#x2d8;" horiz-adv-x="456" 
d="M360 665q-8 -50 -41.5 -81t-91.5 -31q-57 0 -90 31t-41 81l46 9q17 -63 86 -63q66 0 85 63z" />
    <glyph glyph-name="dotaccent" unicode="&#x2d9;" horiz-adv-x="456" 
d="M270 557h-84v90h84v-90z" />
    <glyph glyph-name="ring" unicode="&#x2da;" horiz-adv-x="456" 
d="M326 644q0 -42 -28 -69t-70 -27t-70 27t-28 69t28 70.5t70 28.5t70 -28.5t28 -70.5zM286 644q0 26 -16.5 44t-41.5 18t-42 -18t-17 -44t17 -43t42 -17t41.5 17t16.5 43z" />
    <glyph glyph-name="ogonek" unicode="&#x2db;" horiz-adv-x="456" 
d="M237 29l32 -20l-27 -38q-31 -44 -31 -68q0 -34 39 -34q20 0 41 6v-42q-30 -11 -61 -11q-35 0 -54.5 17.5t-19.5 49.5q0 38 50 100z" />
    <glyph glyph-name="tilde" unicode="&#x2dc;" horiz-adv-x="456" 
d="M375 659q-14 -103 -76 -103q-28 0 -75 25q-51 26 -64 26q-24 0 -35 -53l-45 9q15 104 76 104q26 0 75 -26q49 -25 63 -25q24 0 37 52z" />
    <glyph glyph-name="hungarumlaut" unicode="&#x2dd;" horiz-adv-x="456" 
d="M233 687l-134 -133h-41l96 152zM393 687l-133 -133h-41l95 152z" />
    <glyph glyph-name="commaaccent" unicode="&#x326;" horiz-adv-x="454" 
d="M160 -88l57 23q45 -37 45 -85q0 -52 -72 -116l-43 8q55 59 55 99q0 36 -42 71z" />
    <glyph glyph-name="uni0384" unicode="&#x384;" horiz-adv-x="456" 
d="M286 699l-66 -149h-39l26 149h79z" />
    <glyph glyph-name="uni0385" unicode="&#x385;" horiz-adv-x="456" 
d="M292 710l-64 -160h-39l28 160h75zM150 559h-78v89h78v-89zM384 559h-79v89h79v-89z" />
    <glyph glyph-name="uni0386" unicode="&#x386;" horiz-adv-x="691" 
d="M584 -7l-88 230h-300l-85 -223h-72l272 694h71l270 -686zM159 690l-55 -169h-39l16 169h78zM345 614l-126 -330h254z" />
    <glyph glyph-name="uni0387" unicode="&#x387;" horiz-adv-x="227" 
d="M153 376h-78v97h78v-97z" />
    <glyph glyph-name="uni0388" unicode="&#x388;" horiz-adv-x="505" 
d="M42 690l-55 -169h-39l16 169h78zM462 0h-370v690h360v-63h-291v-235h230l10 -62h-240v-267h301v-63z" />
    <glyph glyph-name="uni0389" unicode="&#x389;" horiz-adv-x="705" 
d="M42 690l-55 -169h-39l16 169h78zM613 0h-69v330h-383v-330h-69v690h69v-298h383v298h69v-690z" />
    <glyph glyph-name="uni038A" unicode="&#x38a;" horiz-adv-x="268" 
d="M46 690l-55 -169h-39l16 169h78zM168 0h-69v690h69v-690z" />
    <glyph glyph-name="uni038C" unicode="&#x38c;" horiz-adv-x="745" 
d="M684 346q0 -159 -87 -259t-226 -100q-138 0 -224 99.5t-86 257.5q0 159 87 259t225 100q139 0 225 -99t86 -258zM72 690l-55 -169h-39l16 169h78zM613 344q0 133 -66 215t-175 82q-108 0 -174 -81.5t-66 -213.5q0 -133 66 -215t175 -82q108 0 174 81.5t66 213.5z" />
    <glyph glyph-name="uni038E" unicode="&#x38e;" horiz-adv-x="628" 
d="M595 690l-248 -404v-286h-69v286l-244 397l71 14l209 -349l203 342h78zM12 690l-55 -169h-39l16 169h78z" />
    <glyph glyph-name="uni038F" unicode="&#x38f;" horiz-adv-x="744" 
d="M61 690l-55 -169h-39l16 169h78zM321 58l-8 -58h-237v61h160l-23 21q-71 64 -110 137.5t-39 171.5q0 133 85 222.5t223 89.5q140 0 224 -89t84 -223q0 -98 -39.5 -170t-111.5 -139l-23 -21h1h161v-61h-237l-8 58l53 51q64 61 98 126.5t34 156.5q-1 106 -65 177.5
t-171 71.5q-108 0 -172 -71t-64 -178q0 -90 33.5 -155t98.5 -128z" />
    <glyph glyph-name="uni0390" unicode="&#x390;" horiz-adv-x="255" 
d="M178 710l-64 -160h-39l28 160h75zM36 559h-78v89h78v-89zM270 559h-79v89h79v-89zM78 473h66v-375q0 -48 45 -48q18 0 39 7l-7 -56q-22 -8 -52 -8q-91 0 -91 101v379z" />
    <glyph glyph-name="uni0391" unicode="&#x391;" horiz-adv-x="691" 
d="M584 -7l-88 230h-300l-85 -223h-72l272 694h71l270 -686zM345 614l-126 -330h254z" />
    <glyph glyph-name="uni0392" unicode="&#x392;" horiz-adv-x="547" 
d="M496 199q0 -97 -65.5 -148t-179.5 -51h-159v690h160q104 0 158.5 -46.5t54.5 -125.5q0 -108 -105 -151q136 -38 136 -168zM397 515q0 55 -37 85t-110 30h-90v-240h88q71 0 110 34.5t39 90.5zM428 195q0 69 -46 103.5t-129 34.5h-93v-273h97q79 0 125 35.5t46 99.5z" />
    <glyph glyph-name="uni0393" unicode="&#x393;" horiz-adv-x="472" 
d="M92 690h340l10 -64h-281v-626h-69v690z" />
    <glyph glyph-name="uni0394" unicode="&#x394;" horiz-adv-x="709" 
d="M47 50l272 644h72l271 -639l-8 -55h-599zM354 613l-232 -553h463z" />
    <glyph glyph-name="uni0395" unicode="&#x395;" horiz-adv-x="507" 
d="M462 0h-370v690h360v-63h-291v-235h230l10 -62h-240v-267h301v-63z" />
    <glyph glyph-name="uni0396" unicode="&#x396;" horiz-adv-x="598" 
d="M550 0h-498v50l408 580h-379l-9 60h472v-50l-408 -580h405z" />
    <glyph glyph-name="uni0397" unicode="&#x397;" horiz-adv-x="705" 
d="M613 0h-69v330h-383v-330h-69v690h69v-298h383v298h69v-690z" />
    <glyph glyph-name="uni0398" unicode="&#x398;" horiz-adv-x="745" 
d="M684 346q0 -159 -87 -259t-226 -100q-138 0 -224 99.5t-86 257.5q0 159 87 259t225 100q139 0 225 -99t86 -258zM613 344q0 135 -66 216.5t-175 81.5q-108 0 -174 -82t-66 -214q0 -137 66 -217.5t175 -80.5q108 0 174 82t66 214zM538 313h-331v63h331v-63z" />
    <glyph glyph-name="uni0399" unicode="&#x399;" horiz-adv-x="268" 
d="M168 0h-69v690h69v-690z" />
    <glyph glyph-name="uni039A" unicode="&#x39a;" horiz-adv-x="606" 
d="M589 10l-78 -17l-350 363v-356h-69v690h69v-314l320 314h89l-332 -322z" />
    <glyph glyph-name="uni039B" unicode="&#x39b;" horiz-adv-x="683" 
d="M39 0l272 694h64l269 -686l-69 -15l-233 613l-230 -606h-73z" />
    <glyph glyph-name="uni039C" unicode="&#x39c;" horiz-adv-x="907" 
d="M831 0h-67l-45 592l-238 -596h-56l-239 596l-45 -592h-64l55 690h85l237 -602l238 602h84z" />
    <glyph glyph-name="uni039D" unicode="&#x39d;" horiz-adv-x="705" 
d="M613 0h-53l-403 581v-581h-65v690h65l391 -563v563h65v-690z" />
    <glyph glyph-name="uni039E" unicode="&#x39e;" horiz-adv-x="552" 
d="M498 628h-444v62h444v-62zM464 330h-372v62h362zM503 0h-454v62h454v-62z" />
    <glyph glyph-name="uni039F" unicode="&#x39f;" horiz-adv-x="745" 
d="M684 346q0 -159 -87 -259t-226 -100q-138 0 -224 99.5t-86 257.5q0 159 87 259t225 100q139 0 225 -99t86 -258zM613 344q0 133 -66 215t-175 82q-108 0 -174 -81.5t-66 -213.5q0 -133 66 -215t175 -82q108 0 174 81.5t66 213.5z" />
    <glyph glyph-name="uni03A0" unicode="&#x3a0;" horiz-adv-x="697" 
d="M608 0h-69v628h-378v-628h-69v690h516v-690z" />
    <glyph glyph-name="uni03A1" unicode="&#x3a1;" horiz-adv-x="531" 
d="M92 0v690h170q107 0 167 -51t60 -143q0 -99 -66.5 -152t-175.5 -53h-86v-291h-69zM419 494q0 135 -161 135h-97v-277h89q80 0 124.5 35.5t44.5 106.5z" />
    <glyph glyph-name="uni03A3" unicode="&#x3a3;" horiz-adv-x="580" 
d="M302 359l-245 281v50h471v-60h-378l234 -268l-251 -302h401l9 -60h-496v50z" />
    <glyph glyph-name="uni03A4" unicode="&#x3a4;" horiz-adv-x="579" 
d="M550 627h-226v-627h-69v627h-222v63h508z" />
    <glyph glyph-name="uni03A5" unicode="&#x3a5;" horiz-adv-x="628" 
d="M595 690l-248 -404v-286h-69v286l-244 397l71 14l209 -349l203 342h78z" />
    <glyph glyph-name="uni03A6" unicode="&#x3a6;" horiz-adv-x="870" 
d="M469 -13h-68v79q-164 4 -255.5 81.5t-91.5 198.5t92 199.5t255 82.5v75h68v-75q164 -4 255.5 -82t91.5 -200q0 -121 -92.5 -198.5t-254.5 -81.5v-79zM123 347q0 -97 73 -157.5t206 -63.5v442q-133 -3 -206 -64t-73 -157zM746 347q0 97 -72.5 157.5t-205.5 63.5v-442
q132 3 205 63.5t73 157.5z" />
    <glyph glyph-name="uni03A7" unicode="&#x3a7;" horiz-adv-x="635" 
d="M527 -6l-210 317l-205 -311h-76l242 360l-218 321l69 14l189 -285l182 280h76l-220 -328l240 -353z" />
    <glyph glyph-name="uni03A8" unicode="&#x3a8;" horiz-adv-x="729" 
d="M399 0h-69v219q-263 2 -263 242v229h67v-224q0 -97 48.5 -142t147.5 -45v411h69v-411q101 1 148.5 44.5t47.5 140.5v226h67v-226q0 -245 -263 -245v-219z" />
    <glyph glyph-name="uni03A9" unicode="&#x3a9;" horiz-adv-x="744" 
d="M321 58l-8 -58h-237v61h160l-23 21q-71 64 -110 137.5t-39 171.5q0 133 85 222.5t223 89.5q140 0 224 -89t84 -223q0 -98 -39.5 -170t-111.5 -139l-23 -21h1h161v-61h-237l-8 58l53 51q64 61 98 126.5t34 156.5q-1 106 -65 177.5t-171 71.5q-108 0 -172 -71t-64 -178
q0 -90 33.5 -155t98.5 -128z" />
    <glyph glyph-name="uni03AA" unicode="&#x3aa;" horiz-adv-x="268" 
d="M89 761h-82v89h82v-89zM262 761h-83v89h83v-89zM168 0h-69v690h69v-690z" />
    <glyph glyph-name="uni03AB" unicode="&#x3ab;" horiz-adv-x="628" 
d="M269 757h-82v89h82v-89zM442 757h-83v89h83v-89zM595 690l-248 -404v-286h-69v286l-244 397l71 14l209 -349l203 342h78z" />
    <glyph glyph-name="uni03AC" unicode="&#x3ac;" horiz-adv-x="618" 
d="M377 699l-66 -149h-39l26 149h79zM233 46q43 0 77 39t80 142q-38 114 -71.5 157t-83.5 43q-52 0 -86 -54t-34 -135q0 -84 33.5 -138t84.5 -54zM441 83l-24 74q-43 -91 -83.5 -129t-103.5 -38q-79 0 -130.5 67t-51.5 178t53.5 179.5t135.5 68.5q71 0 111.5 -41t78.5 -146
l78 177h68l-116 -248l44 -123q11 -30 22.5 -41t32.5 -11q15 0 38 7l-8 -56q-22 -8 -48 -8q-39 0 -60 20t-37 70z" />
    <glyph glyph-name="uni03AD" unicode="&#x3ad;" horiz-adv-x="461" 
d="M327 699l-66 -149h-39l26 149h79zM423 36q-88 -46 -186 -46q-89 0 -136 34.5t-47 95.5q0 44 27.5 75t76.5 45q-95 25 -95 110q0 58 48.5 95.5t133.5 37.5q86 0 167 -43l-10 -58q-82 45 -159 45q-55 0 -84.5 -21.5t-29.5 -56.5q0 -80 132 -80h72l10 -56h-86
q-65 0 -100.5 -23t-35.5 -64q0 -81 118 -81q86 0 174 46z" />
    <glyph glyph-name="uni03AE" unicode="&#x3ae;" 
d="M341 699l-66 -149h-39l26 149h79zM77 473h51l11 -70q90 80 170 80q69 0 105 -38t36 -107v-509l-66 -12v509q0 98 -88 98q-69 0 -153 -82v-342h-66v473z" />
    <glyph glyph-name="uni03AF" unicode="&#x3af;" horiz-adv-x="255" 
d="M192 699l-66 -149h-39l26 149h79zM78 473h66v-375q0 -48 45 -48q18 0 39 7l-7 -56q-22 -8 -52 -8q-91 0 -91 101v379z" />
    <glyph glyph-name="uni03B0" unicode="&#x3b0;" horiz-adv-x="515" 
d="M322 707l-64 -160h-39l28 160h75zM180 556h-78v89h78v-89zM414 556h-79v89h79v-89zM443 177q0 -85 -49 -136t-137 -51q-89 0 -137.5 50.5t-48.5 134.5v298h66v-288q0 -65 30.5 -100.5t89.5 -35.5t89.5 34.5t30.5 98.5v291h66v-296z" />
    <glyph glyph-name="uni03B1" unicode="&#x3b1;" horiz-adv-x="618" 
d="M233 46q43 0 77 39t80 142q-38 114 -71.5 157t-83.5 43q-52 0 -86 -54t-34 -135q0 -84 33.5 -138t84.5 -54zM441 83l-24 74q-43 -91 -83.5 -129t-103.5 -38q-79 0 -130.5 67t-51.5 178t53.5 179.5t135.5 68.5q71 0 111.5 -41t78.5 -146l78 177h68l-116 -248l44 -123
q11 -30 22.5 -41t32.5 -11q15 0 38 7l-8 -56q-22 -8 -48 -8q-39 0 -60 20t-37 70z" />
    <glyph glyph-name="uni03B2" unicode="&#x3b2;" horiz-adv-x="548" 
d="M143 500v-403q78 -51 156 -51q62 0 101.5 36t39.5 89q0 65 -47 103t-144 57l-7 47q85 28 120.5 65t35.5 92q0 52 -33 87t-88 35q-59 0 -96.5 -45t-37.5 -112zM297 -10q-81 0 -154 44v-206l-66 -11v680q0 95 56 156t146 61q84 0 134 -50t50 -124q0 -130 -139 -179
q85 -17 133.5 -64t48.5 -123q0 -80 -58.5 -132t-150.5 -52z" />
    <glyph glyph-name="uni03B3" unicode="&#x3b3;" horiz-adv-x="481" 
d="M207 -183v61q0 122 -32 231.5t-94 231.5l-63 126l70 12l52 -108q84 -179 101 -314q15 143 99 314l52 102h71l-66 -130q-64 -127 -94 -234.5t-30 -230.5v-50z" />
    <glyph glyph-name="uni03B4" unicode="&#x3b4;" horiz-adv-x="533" 
d="M263 -10q-97 0 -156 65.5t-59 159.5q0 175 207 274l-158 169v53h344l-8 -55h-250l155 -167q80 -83 113.5 -143.5t33.5 -128.5q0 -96 -62.5 -161.5t-159.5 -65.5zM264 46q65 0 109 49t44 120q0 58 -27 108.5t-96 124.5q-178 -84 -178 -229q0 -73 41.5 -123t106.5 -50z" />
    <glyph glyph-name="uni03B5" unicode="&#x3b5;" horiz-adv-x="461" 
d="M423 36q-88 -46 -186 -46q-89 0 -136 34.5t-47 95.5q0 44 27.5 75t76.5 45q-95 25 -95 110q0 58 48.5 95.5t133.5 37.5q86 0 167 -43l-10 -58q-82 45 -159 45q-55 0 -84.5 -21.5t-29.5 -56.5q0 -80 132 -80h72l10 -56h-86q-65 0 -100.5 -23t-35.5 -64q0 -81 118 -81
q86 0 174 46z" />
    <glyph glyph-name="uni03B6" unicode="&#x3b6;" horiz-adv-x="436" 
d="M412 -43q0 -25 -12.5 -54.5t-48.5 -87.5l-60 9q53 94 53 118q0 17 -22 30t-100 39q-95 31 -133.5 71t-38.5 106q0 49 27 101t97 139l180 228h-265l9 55h326v-54l-199 -260q-63 -83 -85 -124t-22 -82q0 -43 29 -71t99 -51q105 -34 135.5 -55.5t30.5 -56.5z" />
    <glyph glyph-name="uni03B7" unicode="&#x3b7;" 
d="M77 473h51l11 -70q90 80 170 80q69 0 105 -38t36 -107v-509l-66 -12v509q0 98 -88 98q-69 0 -153 -82v-342h-66v473z" />
    <glyph glyph-name="uni03B8" unicode="&#x3b8;" horiz-adv-x="579" 
d="M290 714q107 0 168.5 -96t61.5 -266q0 -168 -62 -265t-168 -97q-108 0 -170 96t-62 265t62.5 266t169.5 97zM290 657q-74 0 -117 -72.5t-48 -198.5h329q-5 127 -47.5 199t-116.5 72zM290 48q75 0 117.5 73.5t47.5 203.5h-331q5 -129 48.5 -203t117.5 -74z" />
    <glyph glyph-name="uni03B9" unicode="&#x3b9;" horiz-adv-x="255" 
d="M78 473h66v-375q0 -48 45 -48q18 0 39 7l-7 -56q-22 -8 -52 -8q-91 0 -91 101v379z" />
    <glyph glyph-name="uni03BA" unicode="&#x3ba;" horiz-adv-x="467" 
d="M373 -6l-230 243v-237h-66v473h66v-218l132 140q45 48 75 64t76 18l9 -62q-37 -2 -62 -16t-60 -50l-100 -100l235 -243z" />
    <glyph glyph-name="uni03BB" unicode="&#x3bb;" horiz-adv-x="484" 
d="M390 -6l-143 401l-143 -395h-68l180 474l-43 111q-14 39 -32.5 55.5t-48.5 16.5q-16 0 -38 -5l9 57q14 4 37 4q51 0 81 -22.5t51 -80.5l223 -604z" />
    <glyph glyph-name="uni03BC" unicode="&#x3bc;" horiz-adv-x="547" 
d="M142 -172l-65 -11v656h66v-329q0 -94 88 -94q72 0 153 81v342h66v-378q0 -45 39 -45q17 0 33 6l-8 -56q-18 -7 -43 -7q-36 0 -59 19.5t-25 56.5q-83 -78 -161 -78q-59 0 -93 43q9 -52 9 -149v-57z" />
    <glyph glyph-name="uni03BD" unicode="&#x3bd;" horiz-adv-x="479" 
d="M362 473h66v-41q0 -125 -40 -226t-119 -210h-61l-181 471l67 12l152 -417q60 94 88 176t28 193v42z" />
    <glyph glyph-name="uni03BE" unicode="&#x3be;" horiz-adv-x="450" 
d="M47 186q0 64 46.5 111.5t130.5 66.5q-62 17 -95.5 55.5t-33.5 91.5q0 93 97 145h-130l8 55h344v-53h-51q-97 -2 -149.5 -42t-52.5 -101q0 -58 49 -91.5t135 -33.5h37l7 -56h-39q-114 0 -174.5 -41.5t-60.5 -102.5q0 -44 32 -72.5t111 -53.5q100 -31 130 -51.5t30 -54.5
q0 -25 -13 -54.5t-49 -88.5l-59 9q53 97 53 118q0 17 -20 28.5t-96 35.5q-104 34 -145.5 74t-41.5 106z" />
    <glyph glyph-name="uni03BF" unicode="&#x3bf;" 
d="M475 236q0 -114 -60.5 -180t-154.5 -66q-93 0 -152.5 66t-59.5 180q0 115 60 181t152 66q95 0 155 -66t60 -181zM407 236q0 87 -40 139t-107 52q-66 0 -105.5 -51t-39.5 -140q0 -86 40 -138t105 -52q67 0 107 51t40 139z" />
    <glyph glyph-name="uni03C0" unicode="&#x3c0;" horiz-adv-x="583" 
d="M543 417h-95v-319q0 -48 45 -48q17 0 40 7l-8 -56q-21 -8 -51 -8q-92 0 -92 101v323h-198v-417h-66v417h-91l-8 56h524v-56z" />
    <glyph glyph-name="uni03C1" unicode="&#x3c1;" horiz-adv-x="521" 
d="M405 244q0 85 -37 134t-99 49q-60 0 -97.5 -46.5t-37.5 -127.5v-171q53 -32 120 -32q66 0 108.5 50t42.5 144zM473 246q0 -121 -62 -186.5t-154 -65.5q-64 0 -123 27v-193l-66 -11v434q0 106 55.5 169t147.5 63q87 0 144.5 -61.5t57.5 -175.5z" />
    <glyph glyph-name="uni03C2" unicode="&#x3c2;" horiz-adv-x="462" 
d="M48 249q0 104 61.5 169t153.5 65q90 0 155 -48l-11 -66q-67 57 -145 57q-64 0 -105.5 -49.5t-41.5 -126.5q0 -69 32.5 -107t103.5 -65q99 -38 129.5 -61t30.5 -57q0 -27 -13.5 -57t-49.5 -88l-60 9q55 98 55 122q0 18 -21 32t-95 42q-96 37 -137.5 87t-41.5 142z" />
    <glyph glyph-name="uni03C3" unicode="&#x3c3;" horiz-adv-x="551" 
d="M258 -10q-92 0 -151 66.5t-59 172.5q0 109 67.5 176.5t184.5 67.5h214l8 -57h-113q66 -92 66 -193q0 -100 -60.5 -166.5t-156.5 -66.5zM257 46q68 0 109 50t41 128q0 103 -67 192h-41q-85 0 -134.5 -52t-49.5 -137q0 -80 41 -130.5t101 -50.5z" />
    <glyph glyph-name="uni03C4" unicode="&#x3c4;" horiz-adv-x="453" 
d="M395 11q-49 -19 -96 -19q-123 0 -123 131v294h-153v56h385l9 -56h-176v-292q0 -76 68 -76q35 0 77 16z" />
    <glyph glyph-name="uni03C5" unicode="&#x3c5;" horiz-adv-x="515" 
d="M443 177q0 -85 -49 -136t-137 -51q-89 0 -137.5 50.5t-48.5 134.5v298h66v-288q0 -65 30.5 -100.5t89.5 -35.5t89.5 34.5t30.5 98.5v291h66v-296z" />
    <glyph glyph-name="uni03C6" unicode="&#x3c6;" horiz-adv-x="711" 
d="M323 -183v179q-133 6 -206 71t-73 169t73.5 169.5t205.5 72.5v228l65 12v-240q133 -6 206.5 -71.5t73.5 -169.5q0 -103 -74 -168.5t-206 -72.5v-168zM111 236q0 -81 55 -130t158 -54v369q-103 -6 -158 -55.5t-55 -129.5zM600 236q0 81 -55.5 130t-157.5 55v-369
q103 6 158 55t55 129z" />
    <glyph glyph-name="uni03C7" unicode="&#x3c7;" horiz-adv-x="479" 
d="M403 -183l-163 298l-159 -292h-70l195 345l-171 300l66 13l141 -258l136 250h70l-171 -304l192 -339z" />
    <glyph glyph-name="uni03C8" unicode="&#x3c8;" horiz-adv-x="670" 
d="M305 -183v177q-114 1 -174 58t-60 167v254h65v-253q0 -166 169 -169v655l65 12v-667q168 3 168 169v253h65v-254q0 -111 -60.5 -168t-172.5 -57v-165z" />
    <glyph glyph-name="uni03C9" unicode="&#x3c9;" horiz-adv-x="775" 
d="M552 -10q-130 0 -165 155q-35 -155 -164 -155q-76 0 -122.5 63.5t-46.5 163.5q0 73 23.5 134.5t75.5 127.5l65 -16q-51 -68 -73.5 -125t-22.5 -121q0 -75 29 -121.5t76 -46.5q61 0 94.5 62t33.5 177v98h65v-98q0 -115 34 -177t95 -62q47 0 75.5 46t28.5 122
q0 64 -22.5 121t-73.5 125l65 16q52 -66 75.5 -127.5t23.5 -134.5q0 -100 -46.5 -163.5t-122.5 -63.5z" />
    <glyph glyph-name="uni03CA" unicode="&#x3ca;" horiz-adv-x="255" 
d="M68 559h-82v89h82v-89zM241 559h-83v89h83v-89zM78 473h66v-375q0 -48 45 -48q18 0 39 7l-7 -56q-22 -8 -52 -8q-91 0 -91 101v379z" />
    <glyph glyph-name="uni03CB" unicode="&#x3cb;" horiz-adv-x="515" 
d="M212 556h-82v89h82v-89zM385 556h-83v89h83v-89zM443 177q0 -85 -49 -136t-137 -51q-89 0 -137.5 50.5t-48.5 134.5v298h66v-288q0 -65 30.5 -100.5t89.5 -35.5t89.5 34.5t30.5 98.5v291h66v-296z" />
    <glyph glyph-name="uni03CC" unicode="&#x3cc;" 
d="M341 699l-66 -149h-39l26 149h79zM475 236q0 -114 -60.5 -180t-154.5 -66q-93 0 -152.5 66t-59.5 180q0 115 60 181t152 66q95 0 155 -66t60 -181zM407 236q0 87 -40 139t-107 52q-66 0 -105.5 -51t-39.5 -140q0 -86 40 -138t105 -52q67 0 107 51t40 139z" />
    <glyph glyph-name="uni03CD" unicode="&#x3cd;" horiz-adv-x="515" 
d="M336 696l-66 -149h-39l26 149h79zM443 177q0 -85 -49 -136t-137 -51q-89 0 -137.5 50.5t-48.5 134.5v298h66v-288q0 -65 30.5 -100.5t89.5 -35.5t89.5 34.5t30.5 98.5v291h66v-296z" />
    <glyph glyph-name="uni03CE" unicode="&#x3ce;" horiz-adv-x="775" 
d="M468 696l-66 -149h-39l26 149h79zM552 -10q-130 0 -165 155q-35 -155 -164 -155q-76 0 -122.5 63.5t-46.5 163.5q0 73 23.5 134.5t75.5 127.5l65 -16q-51 -68 -73.5 -125t-22.5 -121q0 -75 29 -121.5t76 -46.5q61 0 94.5 62t33.5 177v98h65v-98q0 -115 34 -177t95 -62
q47 0 75.5 46t28.5 122q0 64 -22.5 121t-73.5 125l65 16q52 -66 75.5 -127.5t23.5 -134.5q0 -100 -46.5 -163.5t-122.5 -63.5z" />
    <glyph glyph-name="uni0400" unicode="&#x400;" horiz-adv-x="507" 
d="M303 752h-46l-136 134l86 19zM462 0h-370v690h360v-63h-291v-235h230l10 -62h-240v-267h301v-63z" />
    <glyph glyph-name="uni0401" unicode="&#x401;" horiz-adv-x="507" 
d="M229 761h-82v89h82v-89zM402 761h-83v89h83v-89zM462 0h-370v690h360v-63h-291v-235h230l10 -62h-240v-267h301v-63z" />
    <glyph glyph-name="uni0402" unicode="&#x402;" horiz-adv-x="755" 
d="M545 627h-226v-215q67 16 141 16q115 0 180.5 -57t65.5 -160q0 -95 -63 -156.5t-165 -61.5q-32 0 -57 7l10 60q23 -5 46 -5q71 0 115 44.5t44 110.5q0 76 -47 116t-134 40q-64 0 -136 -18v-348h-69v627h-217v63h503z" />
    <glyph glyph-name="uni0403" unicode="&#x403;" horiz-adv-x="472" 
d="M415 886l-136 -134h-46l97 153zM92 690h340l10 -64h-281v-626h-69v690z" />
    <glyph glyph-name="uni0404" unicode="&#x404;" horiz-adv-x="639" 
d="M584 56q-92 -69 -210 -69q-142 0 -227.5 98.5t-85.5 258.5t87 259.5t231 99.5q109 0 194 -59l-11 -69q-93 67 -184 67q-107 0 -172.5 -71t-74.5 -191l355 1l10 -63l-365 1q7 -123 72.5 -197t173.5 -74q100 0 197 73z" />
    <glyph glyph-name="uni0405" unicode="&#x405;" horiz-adv-x="512" 
d="M459 182q0 -87 -61 -138.5t-154 -51.5q-101 0 -183 43l10 70q81 -52 176 -52q62 0 102 33.5t40 90.5q0 51 -30 82t-109 66q-102 45 -141 86.5t-39 112.5q0 77 56 125.5t142 48.5q90 0 152 -36l-10 -69q-66 44 -145 44q-59 0 -92.5 -31t-33.5 -78q0 -46 29.5 -74.5
t110.5 -64.5q98 -43 139 -88t41 -119z" />
    <glyph glyph-name="uni0406" unicode="&#x406;" horiz-adv-x="268" 
d="M168 0h-69v690h69v-690z" />
    <glyph glyph-name="uni0407" unicode="&#x407;" horiz-adv-x="268" 
d="M89 761h-82v89h82v-89zM262 761h-83v89h83v-89zM168 0h-69v690h69v-690z" />
    <glyph glyph-name="uni0408" unicode="&#x408;" horiz-adv-x="364" 
d="M276 168q0 -86 -48 -130t-130 -44q-27 0 -61 6l-10 64q35 -10 72 -10q108 0 108 115v521h69v-522z" />
    <glyph glyph-name="uni0409" unicode="&#x409;" horiz-adv-x="962" 
d="M32 -13l-10 64q89 24 126.5 100.5t58.5 268.5l31 270h352v-286h100q108 0 169 -51.5t61 -146.5q0 -97 -65.5 -151.5t-179.5 -54.5h-154v628h-222l-25 -220q-17 -149 -44 -232t-73 -127t-125 -62zM849 204q0 68 -41.5 103.5t-121.5 35.5h-96v-282h89q81 0 125.5 37
t44.5 106z" />
    <glyph glyph-name="uni040A" unicode="&#x40a;" horiz-adv-x="970" 
d="M857 204q0 68 -41.5 103.5t-121.5 35.5h-97v-282h89q82 0 126.5 37t44.5 106zM928 206q0 -97 -65.5 -151.5t-179.5 -54.5h-154v332h-368v-332h-69v690h69v-295h368v295h68v-286h101q108 0 169 -51.5t61 -146.5z" />
    <glyph glyph-name="uni040B" unicode="&#x40b;" horiz-adv-x="763" 
d="M545 627h-226v-217q78 16 150 16q222 0 222 -206v-220h-69v218q0 146 -156 146q-73 0 -147 -17v-347h-69v627h-217v63h503z" />
    <glyph glyph-name="uni040C" unicode="&#x40c;" horiz-adv-x="606" 
d="M457 882l-136 -134h-46l97 153zM589 10l-78 -17l-350 363v-356h-69v690h69v-314l320 314h89l-332 -322z" />
    <glyph glyph-name="uni040D" unicode="&#x40d;" horiz-adv-x="705" 
d="M381 748h-46l-136 134l86 19zM157 0h-65v690h68v-575l382 575h71v-690h-68v584z" />
    <glyph glyph-name="uni040E" unicode="&#x40e;" horiz-adv-x="629" 
d="M462 863q-8 -50 -41.5 -81t-91.5 -31q-57 0 -90 31t-41 81l46 9q17 -63 86 -63q66 0 85 63zM153 -13q-32 0 -56 10l-9 65q36 -12 63 -12q31 0 54 19.5t46 63.5l47 87l-252 464l72 13l216 -409l199 402h76l-297 -578q-35 -68 -71.5 -96.5t-87.5 -28.5z" />
    <glyph glyph-name="uni040F" unicode="&#x40f;" horiz-adv-x="700" 
d="M383 -153l-67 -10v163h-224v690h69v-628h378v628h69v-690h-225v-153z" />
    <glyph glyph-name="uni0410" unicode="&#x410;" horiz-adv-x="691" 
d="M584 -7l-88 230h-300l-85 -223h-72l272 694h71l270 -686zM345 614l-126 -330h254z" />
    <glyph glyph-name="uni0411" unicode="&#x411;" horiz-adv-x="537" 
d="M491 204q0 -97 -64.5 -150.5t-177.5 -53.5h-157v690h340l10 -62h-281v-229h103q107 0 167 -50.5t60 -144.5zM421 201q0 137 -161 137h-99v-277h91q81 0 125 36t44 104z" />
    <glyph glyph-name="uni0412" unicode="&#x412;" horiz-adv-x="547" 
d="M496 199q0 -97 -65.5 -148t-179.5 -51h-159v690h160q104 0 158.5 -46.5t54.5 -125.5q0 -108 -105 -151q136 -38 136 -168zM397 515q0 55 -37 85t-110 30h-90v-240h88q71 0 110 34.5t39 90.5zM428 195q0 69 -46 103.5t-129 34.5h-93v-273h97q79 0 125 35.5t46 99.5z" />
    <glyph glyph-name="uni0413" unicode="&#x413;" horiz-adv-x="472" 
d="M92 690h340l10 -64h-281v-626h-69v690z" />
    <glyph glyph-name="uni0414" unicode="&#x414;" horiz-adv-x="724" 
d="M96 -159h-66v223q108 101 156 198t67 254l20 174h343v-627h65v-216l-65 -10v163h-520v-159zM332 629l-14 -122q-18 -161 -64 -259.5t-139 -186.5h432v568h-215z" />
    <glyph glyph-name="uni0415" unicode="&#x415;" horiz-adv-x="507" 
d="M462 0h-370v690h360v-63h-291v-235h230l10 -62h-240v-267h301v-63z" />
    <glyph glyph-name="uni0416" unicode="&#x416;" horiz-adv-x="900" 
d="M802 -7l-320 367l3 -360h-69l2 359l-310 -359h-86l323 366l-298 315l74 16l297 -322l-2 315h69l-3 -316l291 316h86l-303 -322l320 -358z" />
    <glyph glyph-name="uni0417" unicode="&#x417;" horiz-adv-x="538" 
d="M241 -11q-100 0 -192 51l11 66q94 -55 182 -55q76 0 120.5 39.5t44.5 99.5q0 67 -49 103.5t-144 36.5h-63l-9 62h79q78 0 125 36t47 94q0 54 -36.5 85.5t-104.5 31.5q-89 0 -182 -52l-9 64q92 50 196 50q96 0 152 -48.5t56 -126.5q0 -61 -37 -103t-101 -60
q150 -36 150 -174q0 -86 -65.5 -143t-170.5 -57z" />
    <glyph glyph-name="uni0418" unicode="&#x418;" horiz-adv-x="705" 
d="M157 0h-65v690h68v-575l382 575h71v-690h-68v584z" />
    <glyph glyph-name="uni0419" unicode="&#x419;" horiz-adv-x="705" 
d="M485 863q-8 -50 -41.5 -81t-91.5 -31q-57 0 -90 31t-41 81l46 9q17 -63 86 -63q66 0 85 63zM157 0h-65v690h68v-575l382 575h71v-690h-68v584z" />
    <glyph glyph-name="uni041A" unicode="&#x41a;" horiz-adv-x="606" 
d="M589 10l-78 -17l-350 363v-356h-69v690h69v-314l320 314h89l-332 -322z" />
    <glyph glyph-name="uni041B" unicode="&#x41b;" horiz-adv-x="686" 
d="M594 690v-690h-69v628h-226l-25 -220q-17 -149 -44 -232t-73 -127t-125 -62l-10 64q89 24 126.5 100.5t58.5 268.5l31 270h356z" />
    <glyph glyph-name="uni041C" unicode="&#x41c;" horiz-adv-x="907" 
d="M831 0h-67l-45 592l-238 -596h-56l-239 596l-45 -592h-64l55 690h85l237 -602l238 602h84z" />
    <glyph glyph-name="uni041D" unicode="&#x41d;" horiz-adv-x="705" 
d="M613 0h-69v330h-383v-330h-69v690h69v-298h383v298h69v-690z" />
    <glyph glyph-name="uni041E" unicode="&#x41e;" horiz-adv-x="745" 
d="M684 346q0 -159 -87 -259t-226 -100q-138 0 -224 99.5t-86 257.5q0 159 87 259t225 100q139 0 225 -99t86 -258zM613 344q0 133 -66 215t-175 82q-108 0 -174 -81.5t-66 -213.5q0 -133 66 -215t175 -82q108 0 174 81.5t66 213.5z" />
    <glyph glyph-name="uni041F" unicode="&#x41f;" horiz-adv-x="700" 
d="M608 0h-69v628h-378v-628h-69v690h516v-690z" />
    <glyph glyph-name="uni0420" unicode="&#x420;" horiz-adv-x="531" 
d="M92 0v690h170q107 0 167 -51t60 -143q0 -99 -66.5 -152t-175.5 -53h-86v-291h-69zM419 494q0 135 -161 135h-97v-277h89q80 0 124.5 35.5t44.5 106.5z" />
    <glyph glyph-name="uni0421" unicode="&#x421;" horiz-adv-x="638" 
d="M584 56q-92 -69 -210 -69q-140 0 -226.5 98.5t-86.5 258.5q0 159 88 259t230 100q109 0 194 -59l-11 -70q-90 67 -184 67q-113 0 -179.5 -81t-66.5 -214q0 -134 66.5 -215t178.5 -81q103 0 197 72z" />
    <glyph glyph-name="uni0422" unicode="&#x422;" horiz-adv-x="579" 
d="M550 627h-226v-627h-69v627h-222v63h508z" />
    <glyph glyph-name="uni0423" unicode="&#x423;" horiz-adv-x="629" 
d="M153 -13q-32 0 -56 10l-9 65q36 -12 63 -12q31 0 54 19.5t46 63.5l47 87l-252 464l72 13l216 -409l199 402h76l-297 -578q-35 -68 -71.5 -96.5t-87.5 -28.5z" />
    <glyph glyph-name="uni0424" unicode="&#x424;" horiz-adv-x="870" 
d="M469 -13h-68v79q-164 4 -255.5 81.5t-91.5 198.5t92 199.5t255 82.5v75h68v-75q164 -4 255.5 -82t91.5 -200q0 -121 -92.5 -198.5t-254.5 -81.5v-79zM123 347q0 -97 73 -157.5t206 -63.5v442q-133 -3 -206 -64t-73 -157zM746 347q0 97 -72.5 157.5t-205.5 63.5v-442
q132 3 205 63.5t73 157.5z" />
    <glyph glyph-name="uni0425" unicode="&#x425;" horiz-adv-x="635" 
d="M527 -6l-210 317l-205 -311h-76l242 360l-218 321l69 14l189 -285l182 280h76l-220 -328l240 -353z" />
    <glyph glyph-name="uni0426" unicode="&#x426;" horiz-adv-x="712" 
d="M161 62h374v628h69v-627h65v-216l-65 -10v163h-512v690h69v-628z" />
    <glyph glyph-name="uni0427" unicode="&#x427;" horiz-adv-x="601" 
d="M68 690h69v-224q0 -146 156 -146q73 0 147 17v353h69v-690h-69v274q-83 -17 -150 -17q-108 0 -165 51.5t-57 154.5v227z" />
    <glyph glyph-name="uni0428" unicode="&#x428;" horiz-adv-x="957" 
d="M161 61h284v629h68v-629h284v629h68v-690h-773v690h69v-629z" />
    <glyph glyph-name="uni0429" unicode="&#x429;" horiz-adv-x="969" 
d="M161 61h282v629h68v-629h282v629h68v-627h65v-216l-65 -10v163h-769v690h69v-629z" />
    <glyph glyph-name="uni042A" unicode="&#x42a;" horiz-adv-x="671" 
d="M384 0h-155v628h-205l10 62h264v-286h101q108 0 168.5 -51.5t60.5 -146.5q0 -97 -65.5 -151.5t-178.5 -54.5zM558 204q0 68 -41.5 103.5t-121.5 35.5h-97v-282h89q82 0 126.5 37t44.5 106z" />
    <glyph glyph-name="uni042B" unicode="&#x42b;" horiz-adv-x="759" 
d="M661 0h-68v690h68v-690zM489 206q0 -98 -65.5 -152t-179.5 -54h-152v690h69v-286h98q108 0 169 -51.5t61 -146.5zM419 204q0 68 -42 103.5t-122 35.5h-94v-282h87q82 0 126.5 37t44.5 106z" />
    <glyph glyph-name="uni042C" unicode="&#x42c;" horiz-adv-x="533" 
d="M491 206q0 -97 -65.5 -151.5t-178.5 -54.5h-155v690h69v-286h101q108 0 168.5 -51.5t60.5 -146.5zM421 204q0 68 -41.5 103.5t-121.5 35.5h-97v-282h89q82 0 126.5 37t44.5 106z" />
    <glyph glyph-name="uni042D" unicode="&#x42d;" horiz-adv-x="639" 
d="M260 -13q-111 0 -205 67l11 67q103 -73 195 -73q109 0 175 74t72 197l-356 -1l-10 63l366 -1q-9 119 -74 190.5t-168 71.5q-102 0 -194 -70l-10 66q94 65 207 65q140 0 225 -98.5t85 -258.5q0 -159 -88 -259t-231 -100z" />
    <glyph glyph-name="uni042E" unicode="&#x42e;" horiz-adv-x="950" 
d="M594 -13q-125 0 -204.5 92.5t-85.5 240.5h-143v-320h-69v690h69v-308h143q11 143 90.5 232t201.5 89q131 0 211 -100t80 -257q0 -158 -81 -258.5t-212 -100.5zM817 344q0 132 -61 214.5t-161 82.5t-160.5 -82.5t-60.5 -212.5q0 -132 61 -214.5t161 -82.5t160.5 82.5
t60.5 212.5z" />
    <glyph glyph-name="uni042F" unicode="&#x42f;" horiz-adv-x="567" 
d="M148 497q0 -64 42.5 -100.5t113.5 -36.5h102v269h-104q-74 0 -114 -35.5t-40 -96.5zM406 301h-100l-213 -308l-69 16l210 299q-73 15 -114.5 63.5t-41.5 122.5q0 90 61 143t166 53h169v-690h-68v301z" />
    <glyph glyph-name="uni0430" unicode="&#x430;" horiz-adv-x="489" 
d="M351 117v134q-90 -9 -144 -27.5t-74 -42.5t-20 -58q0 -37 23.5 -57t61.5 -20q77 0 153 71zM416 0h-50l-11 63q-78 -73 -167 -73q-63 0 -102 34t-39 95q0 83 71.5 125.5t232.5 58.5v31q0 91 -98 91q-76 0 -163 -42l-9 59q94 41 176 41q159 0 159 -146v-337z" />
    <glyph glyph-name="uni0431" unicode="&#x431;" horiz-adv-x="529" 
d="M266 -10q-83 0 -136 53q-78 76 -78 253q0 204 57 292.5t195 109.5l130 20l10 -61l-131 -21q-99 -15 -146 -70.5t-56 -189.5q58 96 170 96q91 0 145.5 -63.5t54.5 -169.5q0 -113 -61 -181t-154 -68zM414 238q0 82 -38 130t-102 48q-69 0 -112 -53t-43 -133q0 -84 41 -134
t106 -50q67 0 107.5 52.5t40.5 139.5z" />
    <glyph glyph-name="uni0432" unicode="&#x432;" horiz-adv-x="492" 
d="M262 0h-185v473h188q79 0 120 -32t41 -85q0 -78 -82 -106q101 -22 101 -113q0 -67 -48.5 -102t-134.5 -35zM363 350q0 69 -102 69h-120v-145h118q51 0 77.5 20.5t26.5 55.5zM380 139q0 40 -30 61.5t-85 21.5h-124v-168h122q117 0 117 85z" />
    <glyph glyph-name="uni0433" unicode="&#x433;" horiz-adv-x="399" 
d="M77 0v473h288l9 -58h-231v-415h-66z" />
    <glyph glyph-name="uni0434" unicode="&#x434;" horiz-adv-x="549" 
d="M24 -148v205q68 64 99 121.5t44 162.5l16 132h274v-417h58v-201l-63 -10v155h-365v-148h-63zM240 418l-10 -86q-13 -105 -43 -164.5t-85 -112.5h291v363h-153z" />
    <glyph glyph-name="uni0435" unicode="&#x435;" horiz-adv-x="491" 
d="M250 430q-53 0 -88.5 -38t-44.5 -108h258q-5 66 -37 106t-88 40zM442 57q-79 -67 -181 -67q-96 0 -154.5 64t-58.5 183q0 112 57 179t146 67q92 0 142 -67t50 -170v-14h-329q2 -88 41.5 -136.5t110.5 -48.5q84 0 166 70z" />
    <glyph glyph-name="uni0436" unicode="&#x436;" horiz-adv-x="699" 
d="M608 -6l-228 250l2 -244h-66l2 244l-217 -244h-82l228 249l-211 218l72 12l210 -224l-2 218h66l-2 -218l204 218h82l-215 -222l229 -245z" />
    <glyph glyph-name="uni0437" unicode="&#x437;" horiz-adv-x="462" 
d="M219 -11q-89 0 -177 45l10 58q87 -46 166 -46q61 0 92 21.5t31 60.5q0 40 -35.5 62.5t-102.5 22.5h-73l-9 56h87q60 0 93 21.5t33 58.5q0 35 -28 55.5t-85 20.5q-67 0 -159 -44l-9 58q84 43 171 43q86 0 130.5 -35t44.5 -92q0 -87 -101 -114q110 -21 110 -116
q0 -61 -50 -98.5t-139 -37.5z" />
    <glyph glyph-name="uni0438" unicode="&#x438;" horiz-adv-x="541" 
d="M77 0v473h65v-376l252 376h70v-473h-64v383l-258 -383h-65z" />
    <glyph glyph-name="uni0439" unicode="&#x439;" horiz-adv-x="541" 
d="M403 662q-8 -50 -41.5 -81t-91.5 -31q-57 0 -90 31t-41 81l46 9q17 -63 86 -63q66 0 85 63zM77 0v473h65v-376l252 376h70v-473h-64v383l-258 -383h-65z" />
    <glyph glyph-name="uni043A" unicode="&#x43a;" horiz-adv-x="465" 
d="M373 -6l-230 245v-239h-66v473h66v-215l206 215h86l-222 -223l236 -244z" />
    <glyph glyph-name="uni043B" unicode="&#x43b;" horiz-adv-x="534" 
d="M17 52q43 9 67 31.5t39 71t26 141.5l21 177h286v-473h-66v417h-163l-14 -130q-19 -161 -58.5 -221t-128.5 -75z" />
    <glyph glyph-name="uni043C" unicode="&#x43c;" horiz-adv-x="715" 
d="M653 0h-64l-29 396l-176 -399h-56l-176 400l-28 -397h-62l38 473h85l174 -395l173 395h83z" />
    <glyph glyph-name="uni043D" unicode="&#x43d;" horiz-adv-x="533" 
d="M456 0h-66v218h-247v-218h-66v473h66v-198h247v198h66v-473z" />
    <glyph glyph-name="uni043E" unicode="&#x43e;" 
d="M475 236q0 -114 -60.5 -180t-154.5 -66q-93 0 -152.5 66t-59.5 180q0 115 60 181t152 66q95 0 155 -66t60 -181zM407 236q0 87 -40 139t-107 52q-66 0 -105.5 -51t-39.5 -140q0 -86 40 -138t105 -52q67 0 107 51t40 139z" />
    <glyph glyph-name="uni043F" unicode="&#x43f;" horiz-adv-x="530" 
d="M453 0h-66v417h-244v-417h-66v473h376v-473z" />
    <glyph glyph-name="uni0440" unicode="&#x440;" horiz-adv-x="531" 
d="M415 247q0 84 -36 130.5t-94 46.5q-72 0 -142 -85v-261q58 -28 121 -28q67 0 109 51t42 146zM482 250q0 -123 -62 -189.5t-154 -66.5q-67 0 -123 23v-189l-66 -11v656h51l11 -68q69 78 153 78q82 0 136 -60t54 -173z" />
    <glyph glyph-name="uni0441" unicode="&#x441;" horiz-adv-x="465" 
d="M422 43q-67 -53 -160 -53t-153.5 66t-60.5 180q0 116 61.5 181.5t156.5 65.5q86 0 152 -48l-11 -66q-68 57 -142 57q-67 0 -108.5 -50t-41.5 -139q0 -88 42.5 -138.5t110.5 -50.5q80 0 145 57z" />
    <glyph glyph-name="uni0442" unicode="&#x442;" horiz-adv-x="452" 
d="M193 0v416h-167v57h395l9 -57h-171v-416h-66z" />
    <glyph glyph-name="uni0443" unicode="&#x443;" horiz-adv-x="480" 
d="M107 -180q-8 0 -29 3l-10 59q22 -4 38 -4q31 0 50.5 16t33.5 54l19 49l-178 470l65 12l146 -403l139 397h69l-201 -535q-24 -66 -57 -92t-85 -26z" />
    <glyph glyph-name="uni0444" unicode="&#x444;" horiz-adv-x="711" 
d="M323 -183v179q-133 6 -206 71t-73 169t73.5 169.5t205.5 72.5v228l65 12v-240q133 -6 206.5 -71.5t73.5 -169.5q0 -103 -74 -168.5t-206 -72.5v-168zM111 236q0 -81 55 -130t158 -54v369q-103 -6 -158 -55.5t-55 -129.5zM600 236q0 81 -55.5 130t-157.5 55v-369
q103 6 158 55t55 129z" />
    <glyph glyph-name="uni0445" unicode="&#x445;" horiz-adv-x="470" 
d="M369 -7l-135 205l-128 -198h-71l164 243l-154 225l66 13l125 -189l119 181h71l-155 -227l164 -241z" />
    <glyph glyph-name="uni0446" unicode="&#x446;" horiz-adv-x="542" 
d="M77 0v473h66v-417h241v417h66v-417h57v-200l-62 -10v154h-368z" />
    <glyph glyph-name="uni0447" unicode="&#x447;" horiz-adv-x="485" 
d="M57 473h66v-147q0 -105 108 -105q51 0 111 17v235h66v-473h-66v179q-66 -17 -118 -17q-167 0 -167 162v149z" />
    <glyph glyph-name="uni0448" unicode="&#x448;" horiz-adv-x="797" 
d="M366 473h66v-417h222v417h66v-473h-643v473h66v-417h223v417z" />
    <glyph glyph-name="uni0449" unicode="&#x449;" horiz-adv-x="810" 
d="M713 -154v154h-636v473h66v-417h222v417h66v-417h221v417h66v-417h57v-200z" />
    <glyph glyph-name="uni044A" unicode="&#x44a;" horiz-adv-x="545" 
d="M322 0h-155v417h-149l8 56h207v-167h97q88 0 134 -39.5t46 -109.5q0 -74 -51 -115.5t-137 -41.5zM445 155q0 95 -118 95h-94v-195h91q57 0 89 26.5t32 73.5z" />
    <glyph glyph-name="uni044B" unicode="&#x44b;" horiz-adv-x="650" 
d="M413 157q0 -74 -50.5 -115.5t-136.5 -41.5h-149v473h66v-167h90q88 0 134 -39.5t46 -109.5zM572 0h-66v473h66v-473zM348 155q0 95 -117 95h-88v-195h84q58 0 89.5 26.5t31.5 73.5z" />
    <glyph glyph-name="uni044C" unicode="&#x44c;" horiz-adv-x="455" 
d="M420 157q0 -74 -51 -115.5t-137 -41.5h-155v473h66v-167h97q88 0 134 -39.5t46 -109.5zM355 155q0 95 -118 95h-94v-195h91q57 0 89 26.5t32 73.5z" />
    <glyph glyph-name="uni044D" unicode="&#x44d;" horiz-adv-x="466" 
d="M199 -10q-84 0 -155 50l11 64q69 -57 146 -57q62 0 103.5 42.5t47.5 121.5h-228l-9 57l237 -1q-7 75 -47 117t-101 42q-74 0 -144 -56l-9 61q67 52 157 52q94 0 152 -66t58 -180q0 -116 -62 -181.5t-157 -65.5z" />
    <glyph glyph-name="uni044E" unicode="&#x44e;" horiz-adv-x="707" 
d="M659 236q0 -113 -58 -179.5t-149 -66.5q-86 0 -142.5 60t-62.5 163h-104v-213h-66v473h66v-203h105q8 99 64.5 156t139.5 57q91 0 149 -66.5t58 -180.5zM591 236q0 86 -38 138.5t-101 52.5q-64 0 -101 -52t-37 -139q0 -85 37.5 -137.5t100.5 -52.5q64 0 101.5 51.5
t37.5 138.5z" />
    <glyph glyph-name="uni044F" unicode="&#x44f;" horiz-adv-x="504" 
d="M138 327q0 -43 29 -68t84 -25h110v183h-108q-56 0 -85.5 -23.5t-29.5 -66.5zM361 181h-109l-146 -186l-70 14l144 179q-51 14 -80 49.5t-29 86.5q0 69 48.5 109t135.5 40h172v-473h-66v181z" />
    <glyph glyph-name="uni0450" unicode="&#x450;" horiz-adv-x="491" 
d="M283 550h-46l-136 134l86 19zM250 430q-53 0 -88.5 -38t-44.5 -108h258q-5 66 -37 106t-88 40zM442 57q-79 -67 -181 -67q-96 0 -154.5 64t-58.5 183q0 112 57 179t146 67q92 0 142 -67t50 -170v-14h-329q2 -88 41.5 -136.5t110.5 -48.5q84 0 166 70z" />
    <glyph glyph-name="uni0451" unicode="&#x451;" horiz-adv-x="491" 
d="M208 559h-82v89h82v-89zM381 559h-83v89h83v-89zM250 430q-53 0 -88.5 -38t-44.5 -108h258q-5 66 -37 106t-88 40zM442 57q-79 -67 -181 -67q-96 0 -154.5 64t-58.5 183q0 112 57 179t146 67q92 0 142 -67t50 -170v-14h-329q2 -88 41.5 -136.5t110.5 -48.5q84 0 166 70z
" />
    <glyph glyph-name="uni0452" unicode="&#x452;" horiz-adv-x="510" 
d="M456 201q0 -89 -29.5 -179.5t-92.5 -204.5l-64 10q62 116 91 202.5t29 167.5q0 72 -31.5 107.5t-99.5 35.5q-55 0 -109 -16v-324h-66v543h-96l-10 55h106v108l66 12v-120h166v-55h-166v-160q68 17 117 17q189 0 189 -199z" />
    <glyph glyph-name="uni0453" unicode="&#x453;" horiz-adv-x="399" 
d="M361 684l-136 -134h-46l97 153zM77 0v473h288l9 -58h-231v-415h-66z" />
    <glyph glyph-name="uni0454" unicode="&#x454;" horiz-adv-x="466" 
d="M422 43q-67 -53 -160 -53q-94 0 -154 66t-60 180q0 116 61.5 181.5t156.5 65.5q86 0 152 -48l-11 -65q-67 56 -142 56q-62 0 -103 -41.5t-48 -117.5l228 1l9 -57h-237q6 -77 48 -120.5t107 -43.5q77 0 144 57z" />
    <glyph glyph-name="uni0455" unicode="&#x455;" horiz-adv-x="438" 
d="M391 128q0 -64 -47 -100.5t-129 -36.5q-93 0 -170 43l11 64q79 -50 165 -50q50 0 78.5 19.5t28.5 55.5q0 35 -25.5 54.5t-96.5 38.5q-81 21 -115.5 51.5t-34.5 87.5q0 56 44 92t117 36q76 0 147 -32l-11 -63q-69 37 -138 37q-47 0 -71.5 -18.5t-24.5 -48.5
q0 -29 23 -46.5t83 -33.5q88 -24 127 -56.5t39 -93.5z" />
    <glyph glyph-name="uni0456" unicode="&#x456;" horiz-adv-x="234" 
d="M164 634q0 -20 -14 -34t-33 -14t-33.5 14t-14.5 34t14.5 34t33.5 14t33 -14t14 -34zM150 0h-66v473h66v-473z" />
    <glyph glyph-name="uni0457" unicode="&#x457;" horiz-adv-x="234" 
d="M71 559h-82v89h82v-89zM244 559h-83v89h83v-89zM150 0h-66v473h66v-473z" />
    <glyph glyph-name="uni0458" unicode="&#x458;" horiz-adv-x="234" 
d="M164 634q0 -20 -14 -34t-33 -14t-33.5 14t-14.5 34t14.5 34t33.5 14t33 -14t14 -34zM150 -73q0 -54 -29.5 -80.5t-78.5 -26.5q-26 0 -38 3l-10 59q16 -4 39 -4q51 0 51 56v539h66v-546z" />
    <glyph glyph-name="uni0459" unicode="&#x459;" horiz-adv-x="764" 
d="M26 -9l-9 61q43 9 67 31.5t39 71t26 141.5l21 177h282v-167h97q88 0 134 -39.5t46 -109.5q0 -73 -51 -115t-137 -42h-155v417h-159l-14 -130q-19 -161 -58.5 -221t-128.5 -75zM664 155q0 95 -118 95h-94v-195h91q57 0 89 26.5t32 73.5z" />
    <glyph glyph-name="uni045A" unicode="&#x45a;" horiz-adv-x="758" 
d="M658 155q0 95 -117 95h-90v-195h86q57 0 89 26.5t32 73.5zM143 0h-66v473h66v-196h242v196h66v-167h92q88 0 134 -39.5t46 -109.5q0 -74 -50.5 -115.5t-136.5 -41.5h-151v220h-242v-220z" />
    <glyph glyph-name="uni045B" unicode="&#x45b;" horiz-adv-x="519" 
d="M150 324v-324h-66v543h-96l-10 55h106v108l66 12v-120h166v-55h-166v-160q68 17 126 17q175 0 175 -162v-238h-66v236q0 104 -119 104q-55 0 -116 -16z" />
    <glyph glyph-name="uni045C" unicode="&#x45c;" horiz-adv-x="465" 
d="M392 681l-136 -134h-46l97 153zM373 -6l-230 245v-239h-66v473h66v-215l206 215h86l-222 -223l236 -244z" />
    <glyph glyph-name="uni045D" unicode="&#x45d;" horiz-adv-x="541" 
d="M300 547h-46l-136 134l86 19zM77 0v473h65v-376l252 376h70v-473h-64v383l-258 -383h-65z" />
    <glyph glyph-name="uni045E" unicode="&#x45e;" horiz-adv-x="480" 
d="M374 662q-8 -50 -41.5 -81t-91.5 -31q-57 0 -90 31t-41 81l46 9q17 -63 86 -63q66 0 85 63zM107 -180q-8 0 -29 3l-10 59q22 -4 38 -4q31 0 50.5 16t33.5 54l19 49l-178 470l65 12l146 -403l139 397h69l-201 -535q-24 -66 -57 -92t-85 -26z" />
    <glyph glyph-name="uni045F" unicode="&#x45f;" horiz-adv-x="530" 
d="M296 -144l-63 -10v154h-156v473h66v-417h244v417h66v-473h-157v-144z" />
    <glyph glyph-name="uni0462" unicode="&#x462;" horiz-adv-x="676" 
d="M631 195q0 -91 -61 -143t-169 -52h-171v530h-205l10 60h195v111h68v-111h223v-60h-223v-149h117q103 0 159.5 -49t56.5 -137zM562 192q0 61 -38 94.5t-113 33.5h-113v-259h106q76 0 117 34.5t41 96.5z" />
    <glyph glyph-name="uni0463" unicode="&#x463;" horiz-adv-x="545" 
d="M510 155q0 -73 -51 -114t-138 -41h-154v417h-149l8 56h141v233l66 12v-245h171v-56h-171v-115h95q89 0 135.5 -39t46.5 -108zM445 153q0 94 -118 94h-94v-192h90q58 0 90 26t32 72z" />
    <glyph glyph-name="uni0472" unicode="&#x472;" horiz-adv-x="745" 
d="M684 346q0 -159 -87 -259t-226 -100q-138 0 -224 99.5t-86 257.5q0 159 87 259t225 100q139 0 225 -99t86 -258zM372 642q-103 0 -168 -73t-73 -193h483q-8 121 -73.5 193.5t-168.5 72.5zM373 48q103 0 168 73t73 194h-483q8 -121 73.5 -194t168.5 -73z" />
    <glyph glyph-name="uni0473" unicode="&#x473;" 
d="M474 236q0 -113 -59.5 -179.5t-153.5 -66.5t-153.5 66.5t-59.5 179.5q0 114 60 180.5t153 66.5q94 0 153.5 -66.5t59.5 -180.5zM261 430q-62 0 -102 -43t-47 -121h298q-7 78 -47.5 121t-101.5 43zM261 43q61 0 101.5 43.5t47.5 122.5h-298q7 -78 47.5 -122t101.5 -44z
" />
    <glyph glyph-name="uni0474" unicode="&#x474;" horiz-adv-x="704" 
d="M691 698l9 -63q-55 -10 -85.5 -45t-66.5 -128l-180 -466h-63l-266 686l69 15l229 -612l150 398q42 115 84.5 160t119.5 55z" />
    <glyph glyph-name="uni0475" unicode="&#x475;" horiz-adv-x="492" 
d="M486 423q-42 -8 -64.5 -34.5t-45.5 -89.5l-111 -303h-63l-172 471l67 12l138 -402l83 244q28 80 61 116.5t97 45.5z" />
    <glyph glyph-name="uni0490" unicode="&#x490;" horiz-adv-x="475" 
d="M92 690h291v147l65 -10v-201h-287v-626h-69v690z" />
    <glyph glyph-name="uni0491" unicode="&#x491;" horiz-adv-x="406" 
d="M143 415v-415h-66v473h240v144l63 -10v-192h-237z" />
    <glyph glyph-name="uni0492" unicode="&#x492;" horiz-adv-x="486" 
d="M337 332h-162v-332h-69v332h-82l-8 51h90v307h340l10 -64h-281v-243h162v-51z" />
    <glyph glyph-name="uni0493" unicode="&#x493;" horiz-adv-x="416" 
d="M303 207h-143v-207h-66v207h-67l-8 50h75v216h288l9 -58h-231v-158h143v-50z" />
    <glyph glyph-name="uni0496" unicode="&#x496;" horiz-adv-x="909" 
d="M832 -163v163h-36l-314 360l3 -360h-69l2 359l-310 -359h-86l323 366l-298 315l74 16l297 -322l-2 315h69l-3 -316l291 316h86l-303 -322l272 -305h70v-216z" />
    <glyph glyph-name="uni0497" unicode="&#x497;" horiz-adv-x="707" 
d="M636 -154v154h-26v1l-7 -1l-223 244l2 -244h-66l2 244l-217 -244h-82l228 249l-211 218l72 12l210 -224l-2 218h66l-2 -218l204 218h82l-215 -222l183 -195h64v-200z" />
    <glyph glyph-name="uni0498" unicode="&#x498;" horiz-adv-x="538" 
d="M220 -163l1 153q-88 4 -172 50l11 66q94 -55 182 -55q76 0 120.5 39.5t44.5 99.5q0 67 -49 103.5t-144 36.5h-63l-9 62h79q78 0 125 36t47 94q0 54 -36.5 85.5t-104.5 31.5q-89 0 -182 -52l-9 64q92 50 196 50q96 0 152 -48.5t56 -126.5q0 -61 -37 -103t-101 -60
q150 -36 150 -174q0 -77 -52.5 -131t-139.5 -66l1 -145z" />
    <glyph glyph-name="uni0499" unicode="&#x499;" horiz-adv-x="462" 
d="M187 -154l2 144q-74 7 -147 44l10 58q87 -46 166 -46q61 0 92 21.5t31 60.5q0 40 -35.5 62.5t-102.5 22.5h-73l-9 56h87q60 0 93 21.5t33 58.5q0 35 -28 55.5t-85 20.5q-67 0 -159 -44l-9 58q84 43 171 43q86 0 130.5 -35t44.5 -92q0 -87 -101 -114q110 -21 110 -116
q0 -56 -42 -92t-117 -43l2 -134z" />
    <glyph glyph-name="uni049A" unicode="&#x49a;" horiz-adv-x="615" 
d="M542 -163v163h-37l-344 356v-356h-69v690h69v-314l320 314h89l-332 -322l298 -305h71v-216z" />
    <glyph glyph-name="uni049B" unicode="&#x49b;" horiz-adv-x="472" 
d="M401 -154v154h-33l-225 239v-239h-66v473h66v-215l206 215h85l-221 -223l188 -194h63v-200z" />
    <glyph glyph-name="uni049C" unicode="&#x49c;" horiz-adv-x="629" 
d="M530 -7l-230 336v-174h-50v178h-89v-333h-69v690h69v-298h89v178h50v-175l208 295h82l-237 -325l248 -355z" />
    <glyph glyph-name="uni049D" unicode="&#x49d;" horiz-adv-x="504" 
d="M413 -6l-165 224v-120h-48v121h-57v-219h-66v473h66v-198h57v121h48v-119l142 196h74l-165 -221l183 -246z" />
    <glyph glyph-name="uni04A0" unicode="&#x4a0;" horiz-adv-x="743" 
d="M648 -7l-350 363v-356h-69v628h-205l10 62h264v-314l320 314h89l-332 -322l351 -358z" />
    <glyph glyph-name="uni04A1" unicode="&#x4a1;" horiz-adv-x="555" 
d="M463 -6l-230 245v-239h-66v417h-149l8 56h207v-215l206 215h86l-222 -223l236 -244z" />
    <glyph glyph-name="uni04A2" unicode="&#x4a2;" horiz-adv-x="721" 
d="M613 -163v163h-69v330h-383v-330h-69v690h69v-298h383v298h69v-627h65v-216z" />
    <glyph glyph-name="uni04A3" unicode="&#x4a3;" horiz-adv-x="547" 
d="M450 -154v154h-60v218h-247v-218h-66v473h66v-198h247v198h66v-417h57v-200z" />
    <glyph glyph-name="uni04A4" unicode="&#x4a4;" horiz-adv-x="907" 
d="M604 0h-69v330h-374v-330h-69v690h69v-298h374v298h332l10 -64h-273v-626z" />
    <glyph glyph-name="uni04A5" unicode="&#x4a5;" horiz-adv-x="691" 
d="M450 0h-66v220h-241v-220h-66v473h66v-196h241v196h272l9 -58h-215v-415z" />
    <glyph glyph-name="uni04AA" unicode="&#x4aa;" horiz-adv-x="638" 
d="M391 -153l-66 -10l1 153q-120 17 -192.5 113t-72.5 241q0 159 88 259t230 100q109 0 194 -59l-11 -70q-90 67 -184 67q-113 0 -179.5 -81t-66.5 -214q0 -134 66.5 -215t178.5 -81q103 0 197 72l10 -66q-86 -63 -194 -69z" />
    <glyph glyph-name="uni04AB" unicode="&#x4ab;" horiz-adv-x="465" 
d="M290 -144l-63 -10l1 147q-80 12 -130 76t-50 167q0 116 61.5 181.5t156.5 65.5q86 0 152 -48l-11 -66q-68 57 -142 57q-67 0 -108.5 -50t-41.5 -139q0 -88 42.5 -138.5t110.5 -50.5q80 0 145 57l9 -62q-57 -45 -133 -52z" />
    <glyph glyph-name="uni04AE" unicode="&#x4ae;" horiz-adv-x="628" 
d="M595 690l-248 -404v-286h-69v286l-244 397l71 14l209 -349l203 342h78z" />
    <glyph glyph-name="uni04AF" unicode="&#x4af;" horiz-adv-x="476" 
d="M446 473l-176 -473v-172l-66 -11v183l-174 467l67 12l142 -403l138 397h69z" />
    <glyph glyph-name="uni04B0" unicode="&#x4b0;" horiz-adv-x="628" 
d="M495 174h-148v-174h-68v174h-148v51h148v60l-245 398l71 14l209 -349l203 342h78l-248 -405v-60h140z" />
    <glyph glyph-name="uni04B1" unicode="&#x4b1;" horiz-adv-x="476" 
d="M270 -172l-66 -11v122h-114v50h114v11l-174 467l67 12l142 -403l138 397h69l-176 -473v-11h112l8 -50h-120v-111z" />
    <glyph glyph-name="uni04B2" unicode="&#x4b2;" horiz-adv-x="644" 
d="M559 -163v163h-36l-206 311l-205 -311h-76l242 360l-218 321l69 14l189 -285l182 280h76l-220 -328l203 -299h65v-216z" />
    <glyph glyph-name="uni04B3" unicode="&#x4b3;" horiz-adv-x="478" 
d="M397 -154v154h-32l-131 198l-128 -198h-71l164 243l-154 225l66 13l125 -189l119 181h71l-155 -227l129 -190h59v-200z" />
    <glyph glyph-name="uni04B6" unicode="&#x4b6;" horiz-adv-x="617" 
d="M508 -163v163h-68v274q-83 -17 -150 -17q-108 0 -165 51.5t-57 154.5v227h69v-224q0 -146 156 -146q73 0 147 17v353h69v-627h65v-216z" />
    <glyph glyph-name="uni04B7" unicode="&#x4b7;" horiz-adv-x="499" 
d="M402 -154v154h-60v179q-66 -17 -118 -17q-167 0 -167 162v149h66v-147q0 -105 108 -105q51 0 111 17v235h66v-417h57v-200z" />
    <glyph glyph-name="uni04B8" unicode="&#x4b8;" horiz-adv-x="601" 
d="M509 0h-69v274q-67 -14 -127 -17v-157h-50v158q-95 6 -145 57.5t-50 147.5v227h69v-224q0 -131 126 -145v181h50v-182q56 1 127 17v353h69v-690z" />
    <glyph glyph-name="uni04B9" unicode="&#x4b9;" horiz-adv-x="494" 
d="M417 0h-66v179q-52 -13 -93 -16v-115h-47v114q-154 6 -154 162v149h66v-147q0 -95 88 -104v129h47v-129q39 1 93 16v235h66v-473z" />
    <glyph glyph-name="uni04BA" unicode="&#x4ba;" horiz-adv-x="601" 
d="M533 0h-69v224q0 146 -156 146q-73 0 -147 -17v-353h-69v690h69v-274q83 17 150 17q108 0 165 -51.5t57 -154.5v-227z" />
    <glyph glyph-name="uni04BB" unicode="&#x4bb;" 
d="M450 0h-66v326q0 98 -88 98q-69 0 -153 -82v-342h-66v706l66 12v-312q88 77 166 77q69 0 105 -37.5t36 -106.5v-339z" />
    <glyph glyph-name="uni04C0" unicode="&#x4c0;" horiz-adv-x="268" 
d="M168 0h-69v690h69v-690z" />
    <glyph glyph-name="uni04C1" unicode="&#x4c1;" horiz-adv-x="900" 
d="M584 867q-8 -50 -41.5 -81t-91.5 -31q-57 0 -90 31t-41 81l46 9q17 -63 86 -63q66 0 85 63zM802 -7l-320 367l3 -360h-69l2 359l-310 -359h-86l323 366l-298 315l74 16l297 -322l-2 315h69l-3 -316l291 316h86l-303 -322l320 -358z" />
    <glyph glyph-name="uni04C2" unicode="&#x4c2;" horiz-adv-x="699" 
d="M483 665q-8 -50 -41.5 -81t-91.5 -31q-57 0 -90 31t-41 81l46 9q17 -63 86 -63q66 0 85 63zM608 -6l-228 250l2 -244h-66l2 244l-217 -244h-82l228 249l-211 218l72 12l210 -224l-2 218h66l-2 -218l204 218h82l-215 -222l229 -245z" />
    <glyph glyph-name="uni04CF" unicode="&#x4cf;" horiz-adv-x="234" 
d="M150 0h-66v706l66 12v-718z" />
    <glyph glyph-name="uni04D0" unicode="&#x4d0;" horiz-adv-x="691" 
d="M478 877q-8 -50 -41.5 -81t-91.5 -31q-57 0 -90 31t-41 81l46 9q17 -63 86 -63q66 0 85 63zM584 -7l-88 230h-300l-85 -223h-72l272 694h71l270 -686zM345 614l-126 -330h254z" />
    <glyph glyph-name="uni04D1" unicode="&#x4d1;" horiz-adv-x="489" 
d="M378 665q-8 -50 -41.5 -81t-91.5 -31q-57 0 -90 31t-41 81l46 9q17 -63 86 -63q66 0 85 63zM351 117v134q-90 -9 -144 -27.5t-74 -42.5t-20 -58q0 -37 23.5 -57t61.5 -20q77 0 153 71zM416 0h-50l-11 63q-78 -73 -167 -73q-63 0 -102 34t-39 95q0 83 71.5 125.5
t232.5 58.5v31q0 91 -98 91q-76 0 -163 -42l-9 59q94 41 176 41q159 0 159 -146v-337z" />
    <glyph glyph-name="uni04D2" unicode="&#x4d2;" horiz-adv-x="691" 
d="M301 771h-82v89h82v-89zM474 771h-83v89h83v-89zM584 -7l-88 230h-300l-85 -223h-72l272 694h71l270 -686zM345 614l-126 -330h254z" />
    <glyph glyph-name="uni04D3" unicode="&#x4d3;" horiz-adv-x="489" 
d="M200 559h-82v89h82v-89zM373 559h-83v89h83v-89zM351 117v134q-90 -9 -144 -27.5t-74 -42.5t-20 -58q0 -37 23.5 -57t61.5 -20q77 0 153 71zM416 0h-50l-11 63q-78 -73 -167 -73q-63 0 -102 34t-39 95q0 83 71.5 125.5t232.5 58.5v31q0 91 -98 91q-76 0 -163 -42l-9 59
q94 41 176 41q159 0 159 -146v-337z" />
    <glyph glyph-name="uni04D4" unicode="&#x4d4;" horiz-adv-x="871" 
d="M459 283v351l-208 -351h208zM459 0v223h-243l-131 -223h-75l410 690h398v-62h-291v-236h230l9 -62h-239v-268h301v-62h-369z" />
    <glyph glyph-name="uni04D5" unicode="&#x4d5;" horiz-adv-x="790" 
d="M741 246v-14h-329q1 -87 41.5 -136t109.5 -49q84 0 167 70l10 -60q-82 -67 -181 -67q-109 0 -169 85q-92 -85 -194 -85q-66 0 -107.5 34t-41.5 95q0 81 70 124t230 59v34q0 89 -94 89q-76 0 -163 -42l-9 59q92 41 173 41q116 0 143 -85q53 85 154 85q92 0 141 -66.5
t49 -170.5zM673 284q-5 67 -36.5 106.5t-85.5 39.5q-55 0 -91 -38.5t-45 -107.5h258zM366 122q-19 52 -19 115v14q-130 -14 -182 -45t-52 -82q0 -37 24.5 -57.5t66.5 -20.5q81 0 162 76z" />
    <glyph glyph-name="uni04D6" unicode="&#x4d6;" horiz-adv-x="507" 
d="M406 867q-8 -50 -41.5 -81t-91.5 -31q-57 0 -90 31t-41 81l46 9q17 -63 86 -63q66 0 85 63zM462 0h-370v690h360v-63h-291v-235h230l10 -62h-240v-267h301v-63z" />
    <glyph glyph-name="uni04D7" unicode="&#x4d7;" horiz-adv-x="491" 
d="M386 665q-8 -50 -41.5 -81t-91.5 -31q-57 0 -90 31t-41 81l46 9q17 -63 86 -63q66 0 85 63zM250 430q-53 0 -88.5 -38t-44.5 -108h258q-5 66 -37 106t-88 40zM442 57q-79 -67 -181 -67q-96 0 -154.5 64t-58.5 183q0 112 57 179t146 67q92 0 142 -67t50 -170v-14h-329
q2 -88 41.5 -136.5t110.5 -48.5q84 0 166 70z" />
    <glyph glyph-name="uni04D8" unicode="&#x4d8;" horiz-adv-x="688" 
d="M334 -13q-123 0 -196 93.5t-73 250.5v52h491q-9 120 -72.5 189t-159.5 69q-114 0 -226 -76l-10 67q116 71 238 71q131 0 216 -95.5t85 -258.5q0 -162 -83 -262t-210 -100zM337 48q90 0 151 73.5t68 199.5h-420q1 -128 53 -200.5t148 -72.5z" />
    <glyph glyph-name="uni04D9" unicode="&#x4d9;" horiz-adv-x="491" 
d="M240 -10q-93 0 -142.5 67t-49.5 177v16h328q-3 83 -42.5 129.5t-108.5 46.5q-86 0 -166 -70l-10 60q79 67 181 67q96 0 154.5 -64t58.5 -183q0 -112 -57 -179t-146 -67zM240 46q53 0 89.5 39t44.5 115h-259q3 -73 36 -113.5t89 -40.5z" />
    <glyph glyph-name="uni04DC" unicode="&#x4dc;" horiz-adv-x="900" 
d="M406 761h-82v89h82v-89zM579 761h-83v89h83v-89zM802 -7l-320 367l3 -360h-69l2 359l-310 -359h-86l323 366l-298 315l74 16l297 -322l-2 315h69l-3 -316l291 316h86l-303 -322l320 -358z" />
    <glyph glyph-name="uni04DD" unicode="&#x4dd;" horiz-adv-x="699" 
d="M305 559h-82v89h82v-89zM478 559h-83v89h83v-89zM608 -6l-228 250l2 -244h-66l2 244l-217 -244h-82l228 249l-211 218l72 12l210 -224l-2 218h66l-2 -218l204 218h82l-215 -222l229 -245z" />
    <glyph glyph-name="uni04DE" unicode="&#x4de;" horiz-adv-x="538" 
d="M221 771h-82v89h82v-89zM394 771h-83v89h83v-89zM241 -11q-100 0 -192 51l11 66q94 -55 182 -55q76 0 120.5 39.5t44.5 99.5q0 67 -49 103.5t-144 36.5h-63l-9 62h79q78 0 125 36t47 94q0 54 -36.5 85.5t-104.5 31.5q-89 0 -182 -52l-9 64q92 50 196 50q96 0 152 -48.5
t56 -126.5q0 -61 -37 -103t-101 -60q150 -36 150 -174q0 -86 -65.5 -143t-170.5 -57z" />
    <glyph glyph-name="uni04DF" unicode="&#x4df;" horiz-adv-x="462" 
d="M185 559h-82v89h82v-89zM358 559h-83v89h83v-89zM219 -11q-89 0 -177 45l10 58q87 -46 166 -46q61 0 92 21.5t31 60.5q0 40 -35.5 62.5t-102.5 22.5h-73l-9 56h87q60 0 93 21.5t33 58.5q0 35 -28 55.5t-85 20.5q-67 0 -159 -44l-9 58q84 43 171 43q86 0 130.5 -35
t44.5 -92q0 -87 -101 -114q110 -21 110 -116q0 -61 -50 -98.5t-139 -37.5z" />
    <glyph glyph-name="uni04E2" unicode="&#x4e2;" horiz-adv-x="705" 
d="M483 775h-260v56h260v-56zM157 0h-65v690h68v-575l382 575h71v-690h-68v584z" />
    <glyph glyph-name="uni04E3" unicode="&#x4e3;" horiz-adv-x="541" 
d="M401 574h-260v56h260v-56zM77 0v473h65v-376l252 376h70v-473h-64v383l-258 -383h-65z" />
    <glyph glyph-name="uni04E4" unicode="&#x4e4;" horiz-adv-x="705" 
d="M307 757h-82v89h82v-89zM480 757h-83v89h83v-89zM157 0h-65v690h68v-575l382 575h71v-690h-68v584z" />
    <glyph glyph-name="uni04E5" unicode="&#x4e5;" horiz-adv-x="541" 
d="M225 556h-82v89h82v-89zM398 556h-83v89h83v-89zM77 0v473h65v-376l252 376h70v-473h-64v383l-258 -383h-65z" />
    <glyph glyph-name="uni04E6" unicode="&#x4e6;" horiz-adv-x="745" 
d="M327 771h-82v89h82v-89zM500 771h-83v89h83v-89zM684 346q0 -159 -87 -259t-226 -100q-138 0 -224 99.5t-86 257.5q0 159 87 259t225 100q139 0 225 -99t86 -258zM613 344q0 133 -66 215t-175 82q-108 0 -174 -81.5t-66 -213.5q0 -133 66 -215t175 -82q108 0 174 81.5
t66 213.5z" />
    <glyph glyph-name="uni04E7" unicode="&#x4e7;" 
d="M216 559h-82v89h82v-89zM389 559h-83v89h83v-89zM475 236q0 -114 -60.5 -180t-154.5 -66q-93 0 -152.5 66t-59.5 180q0 115 60 181t152 66q95 0 155 -66t60 -181zM407 236q0 87 -40 139t-107 52q-66 0 -105.5 -51t-39.5 -140q0 -86 40 -138t105 -52q67 0 107 51t40 139z
" />
    <glyph glyph-name="uni04E8" unicode="&#x4e8;" horiz-adv-x="745" 
d="M684 346q0 -159 -87 -259t-226 -100q-138 0 -224 99.5t-86 257.5q0 159 87 259t225 100q139 0 225 -99t86 -258zM372 642q-103 0 -168 -73t-73 -193h483q-8 121 -73.5 193.5t-168.5 72.5zM373 48q103 0 168 73t73 194h-483q8 -121 73.5 -194t168.5 -73z" />
    <glyph glyph-name="uni04E9" unicode="&#x4e9;" 
d="M474 236q0 -113 -59.5 -179.5t-153.5 -66.5t-153.5 66.5t-59.5 179.5q0 114 60 180.5t153 66.5q94 0 153.5 -66.5t59.5 -180.5zM261 430q-62 0 -102 -43t-47 -121h298q-7 78 -47.5 121t-101.5 43zM261 43q61 0 101.5 43.5t47.5 122.5h-298q7 -78 47.5 -122t101.5 -44z
" />
    <glyph glyph-name="uni04EE" unicode="&#x4ee;" horiz-adv-x="629" 
d="M460 775h-260v56h260v-56zM153 -13q-32 0 -56 10l-9 65q36 -12 63 -12q31 0 54 19.5t46 63.5l47 87l-252 464l72 13l216 -409l199 402h76l-297 -578q-35 -68 -71.5 -96.5t-87.5 -28.5z" />
    <glyph glyph-name="uni04EF" unicode="&#x4ef;" horiz-adv-x="480" 
d="M372 574h-260v56h260v-56zM107 -180q-8 0 -29 3l-10 59q22 -4 38 -4q31 0 50.5 16t33.5 54l19 49l-178 470l65 12l146 -403l139 397h69l-201 -535q-24 -66 -57 -92t-85 -26z" />
    <glyph glyph-name="uni04F0" unicode="&#x4f0;" horiz-adv-x="629" 
d="M285 757h-82v89h82v-89zM458 757h-83v89h83v-89zM153 -13q-32 0 -56 10l-9 65q36 -12 63 -12q31 0 54 19.5t46 63.5l47 87l-252 464l72 13l216 -409l199 402h76l-297 -578q-35 -68 -71.5 -96.5t-87.5 -28.5z" />
    <glyph glyph-name="uni04F1" unicode="&#x4f1;" horiz-adv-x="480" 
d="M197 556h-82v89h82v-89zM370 556h-83v89h83v-89zM107 -180q-8 0 -29 3l-10 59q22 -4 38 -4q31 0 50.5 16t33.5 54l19 49l-178 470l65 12l146 -403l139 397h69l-201 -535q-24 -66 -57 -92t-85 -26z" />
    <glyph glyph-name="uni04F2" unicode="&#x4f2;" horiz-adv-x="629" 
d="M392 885l-134 -133h-41l96 152zM552 885l-133 -133h-41l95 152zM153 -13q-32 0 -56 10l-9 65q36 -12 63 -12q31 0 54 19.5t46 63.5l47 87l-252 464l72 13l216 -409l199 402h76l-297 -578q-35 -68 -71.5 -96.5t-87.5 -28.5z" />
    <glyph glyph-name="uni04F3" unicode="&#x4f3;" horiz-adv-x="480" 
d="M305 684l-134 -133h-41l96 152zM465 684l-133 -133h-41l95 152zM107 -180q-8 0 -29 3l-10 59q22 -4 38 -4q31 0 50.5 16t33.5 54l19 49l-178 470l65 12l146 -403l139 397h69l-201 -535q-24 -66 -57 -92t-85 -26z" />
    <glyph glyph-name="uni04F4" unicode="&#x4f4;" horiz-adv-x="601" 
d="M244 757h-82v89h82v-89zM417 757h-83v89h83v-89zM68 690h69v-224q0 -146 156 -146q73 0 147 17v353h69v-690h-69v274q-83 -17 -150 -17q-108 0 -165 51.5t-57 154.5v227z" />
    <glyph glyph-name="uni04F5" unicode="&#x4f5;" horiz-adv-x="485" 
d="M189 556h-82v89h82v-89zM362 556h-83v89h83v-89zM57 473h66v-147q0 -105 108 -105q51 0 111 17v235h66v-473h-66v179q-66 -17 -118 -17q-167 0 -167 162v149z" />
    <glyph glyph-name="uni04F8" unicode="&#x4f8;" horiz-adv-x="759" 
d="M331 757h-82v89h82v-89zM504 757h-83v89h83v-89zM661 0h-68v690h68v-690zM489 206q0 -98 -65.5 -152t-179.5 -54h-152v690h69v-286h98q108 0 169 -51.5t61 -146.5zM419 204q0 68 -42 103.5t-122 35.5h-94v-282h87q82 0 126.5 37t44.5 106z" />
    <glyph glyph-name="uni04F9" unicode="&#x4f9;" horiz-adv-x="650" 
d="M279 556h-82v89h82v-89zM452 556h-83v89h83v-89zM413 157q0 -74 -50.5 -115.5t-136.5 -41.5h-149v473h66v-167h90q88 0 134 -39.5t46 -109.5zM572 0h-66v473h66v-473zM348 155q0 95 -117 95h-88v-195h84q58 0 89.5 26.5t31.5 73.5z" />
    <glyph glyph-name="Wgrave" unicode="&#x1e80;" horiz-adv-x="1026" 
d="M543 752h-46l-136 134l86 19zM980 690l-208 -692h-60l-200 597l-199 -597h-58l-207 684l69 15l171 -591l190 584h71l192 -584l169 584h70z" />
    <glyph glyph-name="wgrave" unicode="&#x1e81;" horiz-adv-x="728" 
d="M394 550h-46l-136 134l86 19zM696 473l-157 -477h-58l-118 388l-117 -388h-57l-157 473l64 12l122 -397l118 391h58l118 -391l117 389h67z" />
    <glyph glyph-name="Wacute" unicode="&#x1e82;" horiz-adv-x="1026" 
d="M667 886l-136 -134h-46l97 153zM980 690l-208 -692h-60l-200 597l-199 -597h-58l-207 684l69 15l171 -591l190 584h71l192 -584l169 584h70z" />
    <glyph glyph-name="wacute" unicode="&#x1e83;" horiz-adv-x="728" 
d="M518 684l-136 -134h-46l97 153zM696 473l-157 -477h-58l-118 388l-117 -388h-57l-157 473l64 12l122 -397l118 391h58l118 -391l117 389h67z" />
    <glyph glyph-name="Wdieresis" unicode="&#x1e84;" horiz-adv-x="1026" 
d="M469 761h-82v89h82v-89zM642 761h-83v89h83v-89zM980 690l-208 -692h-60l-200 597l-199 -597h-58l-207 684l69 15l171 -591l190 584h71l192 -584l169 584h70z" />
    <glyph glyph-name="wdieresis" unicode="&#x1e85;" horiz-adv-x="728" 
d="M320 559h-82v89h82v-89zM493 559h-83v89h83v-89zM696 473l-157 -477h-58l-118 388l-117 -388h-57l-157 473l64 12l122 -397l118 391h58l118 -391l117 389h67z" />
    <glyph glyph-name="Ygrave" unicode="&#x1ef2;" horiz-adv-x="628" 
d="M343 748h-46l-136 134l86 19zM595 690l-248 -404v-286h-69v286l-244 397l71 14l209 -349l203 342h78z" />
    <glyph glyph-name="ygrave" unicode="&#x1ef3;" horiz-adv-x="480" 
d="M271 547h-46l-136 134l86 19zM107 -180q-8 0 -29 3l-10 59q22 -4 38 -4q31 0 50.5 16t33.5 54l19 49l-178 470l65 12l146 -403l139 397h69l-201 -535q-24 -66 -57 -92t-85 -26z" />
    <glyph glyph-name="enspace" unicode="&#x2002;" horiz-adv-x="500" 
 />
    <glyph glyph-name="emspace" unicode="&#x2003;" horiz-adv-x="1000" 
 />
    <glyph glyph-name="threeperemspace" unicode="&#x2004;" horiz-adv-x="333" 
 />
    <glyph glyph-name="fourperemspace" unicode="&#x2005;" horiz-adv-x="250" 
 />
    <glyph glyph-name="thinspace" unicode="&#x2009;" horiz-adv-x="133" 
 />
    <glyph glyph-name="hairspace" unicode="&#x200a;" horiz-adv-x="75" 
 />
    <glyph glyph-name="endash" unicode="&#x2013;" horiz-adv-x="456" 
d="M397 251h-339v64h339v-64z" />
    <glyph glyph-name="emdash" unicode="&#x2014;" horiz-adv-x="912" 
d="M853 252h-795v63h795v-63z" />
    <glyph glyph-name="quoteleft" unicode="&#x2018;" horiz-adv-x="219" 
d="M166 687l-35 -214h-80l78 223z" />
    <glyph glyph-name="quoteright" unicode="&#x2019;" horiz-adv-x="219" 
d="M168 690l-78 -223l-37 9l35 214h80z" />
    <glyph glyph-name="quotesinglbase" unicode="&#x201a;" horiz-adv-x="219" 
d="M161 98l-78 -222l-37 8l35 214h80z" />
    <glyph glyph-name="quotedblleft" unicode="&#x201c;" horiz-adv-x="388" 
d="M334 687l-34 -214h-80l78 223zM166 687l-35 -214h-80l78 223z" />
    <glyph glyph-name="quotedblright" unicode="&#x201d;" horiz-adv-x="388" 
d="M53 476l35 214h80l-78 -223zM222 476l34 214h80l-77 -223z" />
    <glyph glyph-name="quotedblbase" unicode="&#x201e;" horiz-adv-x="387" 
d="M50 -116l34 214h80l-77 -222zM219 -116l34 214h80l-77 -222z" />
    <glyph glyph-name="dagger" unicode="&#x2020;" horiz-adv-x="498" 
d="M278 592l-18 -114h-22l-17 114v98h57v-98zM213 432l-118 -18h-44v57h44l118 -18v-21zM447 414h-45l-116 18v21l116 18h45v-57zM276 -1l-18 -115h-18l-18 115v306l16 102h22l16 -102v-306z" />
    <glyph glyph-name="daggerdbl" unicode="&#x2021;" horiz-adv-x="517" 
d="M287 592l-18 -114h-21l-18 114v98h57v-98zM456 414h-45l-116 18v21l116 18h45v-57zM222 432l-117 -18h-45v57h45l117 -18v-21zM285 201l-16 -103h-21l-17 103v104l17 102h21l16 -102v-104zM295 73l116 18h45v-56h-45l-116 17v21zM60 91h45l117 -18v-21l-117 -17h-45v56z
M230 -87l18 115h21l18 -115v-98h-57v98z" />
    <glyph glyph-name="bullet" unicode="&#x2022;" horiz-adv-x="417" 
d="M325 348l-16 -109l-100 -17l-100 17l-17 109l17 109l100 16l100 -16z" />
    <glyph glyph-name="ellipsis" unicode="&#x2026;" horiz-adv-x="693" 
d="M617 0h-79v98h79v-98zM386 0h-78v98h78v-98zM155 0h-78v98h78v-98z" />
    <glyph glyph-name="guilsinglleft" unicode="&#x2039;" horiz-adv-x="313" 
d="M259 473l-143 -236l139 -230l-49 -12l-167 242l164 236h56z" />
    <glyph glyph-name="guilsinglright" unicode="&#x203a;" horiz-adv-x="313" 
d="M273 236l-164 -236h-55l143 236l-139 231l48 11z" />
    <glyph glyph-name="fraction" unicode="&#x2044;" horiz-adv-x="270" 
d="M-47 -8l-47 13l209 342l202 340l47 -13l-210 -342z" />
    <glyph glyph-name="Euro" unicode="&#x20ac;" horiz-adv-x="603" 
d="M567 47q-84 -60 -183 -60q-100 0 -168 66.5t-89 182.5h-90l-8 53h91q-2 30 -2 48q0 37 4 65h-90v54h99q25 108 93.5 170.5t164.5 62.5q94 0 167 -51l-11 -65q-77 58 -156 58q-72 0 -121.5 -46.5t-70.5 -128.5h250l9 -54h-270q-3 -30 -3 -64q0 -17 2 -49h267v-53h-259
q19 -89 70 -140t124 -51q84 0 171 63z" />
    <glyph glyph-name="hryvnia" unicode="&#x20b4;" horiz-adv-x="557" 
d="M461 52q-115 -64 -208 -64q-83 0 -129 34t-46 100q0 64 64 131l-120 15l8 48l159 -19l101 92l-246 30v50l292 -36q47 43 64.5 68.5t17.5 55.5q0 34 -28 54.5t-83 20.5q-82 0 -190 -61l-11 57q113 60 205 60q80 0 125 -34t45 -94q0 -37 -17 -67t-56 -68l127 -16l-8 -48
l-166 20l-102 -92l254 -31v-50l-300 37q-71 -66 -71 -120q0 -81 115 -81q87 0 194 65z" />
    <glyph glyph-name="numero" unicode="&#x2116;" horiz-adv-x="1060" 
d="M542 0h-61l-328 588v-588h-61v690h74l315 -569v569h61v-690zM646 338q0 87 48 144t123 57t123 -57t48 -144q0 -88 -48 -145t-124 -57t-123 57t-47 145zM704 338q0 -65 31.5 -107.5t81.5 -42.5t81.5 42.5t31.5 107.5q0 64 -31.5 106.5t-81.5 42.5q-51 0 -82 -42t-31 -107z
M977 0h-320v51h320v-51z" />
    <glyph glyph-name="published" unicode="&#x2117;" horiz-adv-x="806" 
d="M747 345q0 -158 -95 -258t-249 -100q-155 0 -250 99.5t-95 258.5q0 158 95 258t249 100q155 0 250 -99.5t95 -258.5zM713 345q0 149 -86.5 239t-224.5 90q-139 0 -224 -90t-85 -239t86 -239t225 -90t224 90t85 239zM543 425q0 -58 -39.5 -90t-103.5 -32h-46v-153h-53v393
h106q62 0 99 -31.5t37 -86.5zM490 423q0 35 -22.5 54t-62.5 19h-51v-146h48q41 0 64.5 19t23.5 54z" />
    <glyph glyph-name="servicemark" unicode="&#x2120;" horiz-adv-x="801" 
d="M732 345h-47l-20 268l-107 -269h-38l-106 268l-21 -267h-45l26 345h56l110 -283l110 283h55zM164 340q-53 0 -96 24l5 46q48 -29 92 -29q28 0 47 14t19 39q0 23 -14.5 38t-48.5 30q-54 24 -75 45t-21 58q0 39 29.5 64.5t74.5 25.5q46 0 83 -20l-7 -45q-40 24 -78 24
q-26 0 -42 -12.5t-16 -32.5q0 -22 14.5 -35.5t51.5 -29.5q51 -22 72 -45t21 -62q0 -45 -31.5 -71t-79.5 -26z" />
    <glyph glyph-name="trademark" unicode="&#x2122;" horiz-adv-x="801" 
d="M303 647h-111v-302h-47v302h-108v43h260zM735 345h-47l-20 268l-107 -269h-38l-106 268l-21 -267h-45l26 345h56l111 -283l109 283h55z" />
    <glyph glyph-name="Omega" unicode="&#x2126;" horiz-adv-x="744" 
d="M321 58l-8 -58h-237v61h160l-23 21q-71 64 -110 137.5t-39 171.5q0 133 85 222.5t223 89.5q140 0 224 -89t84 -223q0 -98 -39.5 -170t-111.5 -139l-23 -21h1h161v-61h-237l-8 58l53 51q64 61 98 126.5t34 156.5q-1 106 -65 177.5t-171 71.5q-108 0 -172 -71t-64 -178
q0 -90 33.5 -155t98.5 -128z" />
    <glyph glyph-name="Delta" unicode="&#x2206;" horiz-adv-x="709" 
d="M47 50l272 644h72l271 -639l-8 -55h-599zM354 613l-232 -553h463z" />
    <glyph glyph-name="minus" unicode="&#x2212;" horiz-adv-x="570" 
d="M513 309h-456v58h456v-58z" />
    <glyph glyph-name="hcoslug" unicode="&#xe10b;" horiz-adv-x="694" 
d="M644 700v-800h-594v800h594zM247 428q0 13 7.5 21t19.5 8q13 0 21 -10.5t8 -27.5q0 -22 -18 -50q-15 14 -21 20.5t-11.5 17t-5.5 21.5zM312 342q30 20 42 34q29 -29 -1 -80q-33 38 -41 46zM261 219q-22 0 -37 15.5t-15 38.5q0 24 16 40q34 -32 74 -82q-15 -12 -38 -12z
M382 264q20 26 46 42q15 -25 43 -25q21 0 35.5 15.5t14.5 38.5t-14.5 37.5t-35.5 14.5q-35 0 -60 -38q-3 39 -49 37q9 15 9 34q0 29 -25.5 51.5t-69.5 22.5q-48 0 -78.5 -25.5t-30.5 -59.5q0 -37 31 -69q-82 -28 -82 -91q0 -39 32 -66t77 -27q63 0 104 45q44 -45 85 -45
q33 0 56 25.5t24 68.5l-7 2q-17 -29 -43 -29q-27 0 -62 41zM286 124l-12 -2v-9h-7v-7h7v-20q0 -13 12 -13q11 0 14 13l-5 2q-1 -7 -5 -7t-4 5v20h13v7h-13v11zM174 94q0 -21 21 -21q9 0 15 6t6 15q0 20 -21 20t-21 -20zM203 94q0 -16 -8 -16t-8 16q0 15 8 15t8 -15zM219 81
v-7h22v7h-4v15q0 10 7 10q6 0 6 -7v-18h-4v-7h22v7h-6v19q0 14 -12 14q-9 0 -14 -11v10h-17v-7h6v-25h-6zM379 93q0 -13 -7 -13q-8 0 -8 13t8 13q7 0 7 -13zM125 81v-7h30v7h-10v16h4q5 0 6 -8h7v23h-7q-1 -8 -6 -8h-4v18h12q9 0 11 -13h8v20h-51v-7h7v-41h-7zM302 88v-14h7
l1 4q7 -5 13 -5q14 0 14 13q0 9 -12 12t-12 6q0 4 5 4t10 -7h7v13h-6l-2 -5q-3 5 -11 5q-14 0 -14 -12q0 -9 12 -12.5t12 -6.5q0 -4 -5 -4q-6 0 -12 9h-7zM352 125v-52h6l4 8q5 -8 14 -8q16 0 16 21q0 20 -15 20q-10 0 -13 -9v27h-18v-7h6zM405 65q3 2 1.5 6t-6.5 4
q-7 0 -7 -7q0 -9 11 -9q12 0 18 16l13 31h5v7h-17v-7h5l-8 -20l-9 20h6v7h-25v-7h5q12 -23 16 -33q-2 -8 -8 -8zM294 39v3q0 12 6 12l3 -1q-1 -1 -1 -3q0 -6 6 -6v-5h-14zM464 33h-18v-7h6q-2 -5 -6 -9q-2 2 -5.5 6t-6.5 7q11 5 11 12q0 12 -14 12q-17 0 -17 -14q0 -6 6 -12
q-13 -4 -13 -15q0 -14 18 -14q9 0 15 6q5 -6 12 -6q10 0 13 12l-5 1q-1 -5 -4 -5t-6 5q6 8 9 14h5v7zM469 27q0 -28 29 -28q22 0 24 23h-8q-2 -16 -14 -16q-16 0 -16 22t14 22q10 0 15 -16h8v22h-8l-1 -6q-7 7 -16 7q-11 0 -19 -8.5t-8 -21.5zM431 33q-6 6 -6 10q0 5 5 5
q6 0 6 -6t-5 -9zM340 18h26q2 22 -19 22q-8 0 -14 -6t-6 -15q0 -20 21 -20q14 0 18 14h-7q-1 -7 -9 -7q-10 0 -10 12zM525 20q0 -21 21 -21q9 0 15 6t6 15q0 20 -21 20t-21 -20zM189 20q0 -21 21 -21q9 0 15 6t6 15q0 20 -21 20t-21 -20zM247 18h26q2 22 -19 22q-8 0 -14 -6
t-6 -15q0 -20 21 -20q15 0 18 14h-7q-1 -7 -9 -7q-10 0 -10 12zM340 23q0 12 7 12t7 -12h-14zM554 20q0 -16 -8 -16t-8 16q0 15 8 15t8 -15zM218 20q0 -16 -8 -16t-8 16q0 15 8 15t8 -15zM247 23q0 12 7 12t7 -12h-14zM368 7v-7h26v7h-8v16q4 9 7 9v-1q0 -6 6 -6q7 0 7 7
q0 8 -8 8t-12 -11v10h-18v-7h6v-25h-6zM276 7v-7h23v7h-5v25h14v-25h-5v-7h23v7h-6v52l-10 -2q-4 2 -9 2q-19 0 -19 -19v-1h-7v-7h7v-25h-6zM124 7v-7h29v7h-8v18h22v-18h-8v-7h29v7h-8v41h8v7h-29v-7h8v-16h-22v16h8v7h-29v-7h8v-41h-8zM437 9q-5 -3 -8 -3q-10 0 -10 10
q0 5 4 9q4 -4 14 -16zM583 6q0 7 -7 7t-7 -7t7 -7t7 7z" />
    <glyph glyph-name="f_f" unicode="&#xfb00;" horiz-adv-x="597" 
d="M579 651q-18 4 -40 4q-72 0 -72 -73v-109h97l9 -56h-106v-417h-65v417h-72v56h72v114q0 64 35 95.5t98 31.5q14 0 34 -2zM281 651q-18 4 -40 4q-72 0 -72 -73v-109h97l9 -56h-106v-417h-65v417h-72v56h72v114q0 64 35 95.5t98 31.5q14 0 34 -2z" />
    <glyph glyph-name="fi" unicode="&#xfb01;" horiz-adv-x="532" 
d="M462 634q0 -20 -14 -34t-33 -14t-33.5 14t-14.5 34t14.5 34t33.5 14t33 -14t14 -34zM281 651q-18 4 -40 4q-72 0 -72 -73v-109h97l9 -56h-106v-417h-65v417h-72v56h72v114q0 64 35 95.5t98 31.5q14 0 34 -2zM448 0h-66v473h66v-473z" />
    <glyph glyph-name="fl" unicode="&#xfb02;" horiz-adv-x="532" 
d="M448 0h-66v706l66 12v-718zM281 651q-18 4 -40 4q-72 0 -72 -73v-109h97l9 -56h-106v-417h-65v417h-72v56h72v114q0 64 35 95.5t98 31.5q14 0 34 -2z" />
    <glyph glyph-name="f_f_i" unicode="&#xfb03;" horiz-adv-x="830" 
d="M761 634q0 -20 -14 -34t-33 -14q-20 0 -34 14t-14 34t14 34t34 14q19 0 33 -14t14 -34zM579 651q-18 4 -40 4q-72 0 -72 -73v-109h97l9 -56h-106v-417h-65v417h-72v56h72v114q0 64 35 95.5t98 31.5q14 0 34 -2zM281 651q-18 4 -40 4q-72 0 -72 -73v-109h97l9 -56h-106
v-417h-65v417h-72v56h72v114q0 64 35 95.5t98 31.5q14 0 34 -2zM747 0h-66v473h66v-473z" />
    <glyph glyph-name="f_f_l" unicode="&#xfb04;" horiz-adv-x="830" 
d="M747 0h-66v706l66 12v-718zM579 651q-18 4 -40 4q-72 0 -72 -73v-109h97l9 -56h-106v-417h-65v417h-72v56h72v114q0 64 35 95.5t98 31.5q14 0 34 -2zM281 651q-18 4 -40 4q-72 0 -72 -73v-109h97l9 -56h-106v-417h-65v417h-72v56h72v114q0 64 35 95.5t98 31.5q14 0 34 -2
z" />
    <glyph glyph-name="M.alt" horiz-adv-x="884" 
d="M791 0h-66v580l-257 -583h-55l-257 583v-580h-63v690h85l264 -603l265 603h84v-690z" />
    <glyph glyph-name="Q.alt" horiz-adv-x="749" 
d="M684 -14l-106 82q-86 -81 -207 -81q-139 0 -225 99.5t-86 257.5q0 159 87 259t226 100t225 -99.5t86 -257.5q0 -135 -67 -232l82 -62zM373 49q94 0 155 58l-177 133l83 16l132 -103q47 77 47 191q0 133 -66.5 215t-175.5 82t-174.5 -81t-65.5 -214t66.5 -215t175.5 -82z
" />
    <glyph glyph-name="U.alt" horiz-adv-x="693" 
d="M548 0l-12 83q-109 -91 -221 -91q-108 0 -168 56.5t-60 171.5v470h69v-462q0 -174 163 -174q104 0 213 97v539h69v-690h-53z" />
    <glyph glyph-name="W.alt" horiz-adv-x="1015" 
d="M660 -2l-155 409l-151 -409h-61l-253 684l71 15l215 -606l147 402l-71 189l71 15l219 -606l210 599h73l-254 -692h-61z" />
    <glyph glyph-name="g.alt" horiz-adv-x="529" 
d="M386 141v262q-55 20 -110 20q-73 0 -116 -48.5t-43 -143.5q0 -82 35.5 -127.5t93.5 -45.5q71 0 140 83zM452 7q0 -90 -50.5 -138.5t-149.5 -48.5q-86 0 -175 36l11 63q81 -42 169 -42q129 0 129 127v67q-66 -72 -146 -72q-83 0 -137 59t-54 170q0 121 64 186.5t166 65.5
q82 0 173 -31v-442z" />
    <glyph glyph-name="uni039C.alt" horiz-adv-x="884" 
d="M791 0h-66v580l-257 -583h-55l-257 583v-580h-63v690h85l264 -603l265 603h84v-690z" />
    <glyph glyph-name="uni0414.alt" horiz-adv-x="756" 
d="M376 609l-223 -549h447zM663 -163v163h-570v-159h-65v222h55l258 631h74l258 -631h56v-216z" />
    <glyph glyph-name="uni041B.alt" horiz-adv-x="683" 
d="M39 0l272 694h64l269 -686l-69 -15l-233 613l-230 -606h-73z" />
    <glyph glyph-name="uni041B.bgr" horiz-adv-x="683" 
d="M39 0l272 694h64l269 -686l-69 -15l-233 613l-230 -606h-73z" />
    <glyph glyph-name="uni041C.alt" horiz-adv-x="884" 
d="M791 0h-66v580l-257 -583h-55l-257 583v-580h-63v690h85l264 -603l265 603h84v-690z" />
    <glyph glyph-name="uni0424.bgr" horiz-adv-x="846" 
d="M457 -99h-68v98q-150 7 -240.5 101.5t-90.5 243.5t91 244t240 103v98h68v-98q150 -7 240.5 -101.5t90.5 -243.5t-90.5 -244.5t-240.5 -102.5v-98zM129 346q0 -125 70.5 -202t190.5 -83v569q-120 -6 -190.5 -82.5t-70.5 -201.5zM717 344q0 125 -70.5 202t-190.5 83v-569
q120 6 190.5 82.5t70.5 201.5z" />
    <glyph glyph-name="uni0432.bgr" horiz-adv-x="540" 
d="M67 220v272q0 101 56.5 162.5t150.5 61.5q84 0 136 -51t52 -128q0 -130 -131 -181q74 -21 116.5 -68t42.5 -117q0 -77 -56 -129t-150 -52q-100 0 -158.5 61.5t-58.5 168.5zM133 494v-114h85q81 0 129 43.5t48 110.5q0 55 -33.5 90t-87.5 35q-65 0 -103 -46t-38 -119z
M286 47q63 0 99.5 36t36.5 90q0 69 -54.5 110.5t-152.5 41.5h-82v-103q0 -81 41 -128t112 -47z" />
    <glyph glyph-name="uni0433.bgr" horiz-adv-x="438" 
d="M46 121q0 59 37 90.5t130 60.5q59 18 81.5 37t22.5 48q0 68 -92 68q-70 0 -140 -40l-11 59q76 39 153 39q73 0 113.5 -34t40.5 -89q0 -56 -34 -87t-118 -56q-69 -22 -94 -41.5t-25 -51.5q0 -35 27.5 -55.5t79.5 -20.5q85 0 165 53l11 -59q-84 -51 -180 -51
q-80 0 -123.5 34.5t-43.5 95.5z" />
    <glyph glyph-name="uni0434.alt" horiz-adv-x="558" 
d="M474 -154v154h-390v-148h-62v204h49l172 422h73l171 -422h49v-200zM278 407l-139 -351h276z" />
    <glyph glyph-name="uni0434.bgr" horiz-adv-x="529" 
d="M386 141v262q-55 20 -110 20q-73 0 -116 -48.5t-43 -143.5q0 -82 35.5 -127.5t93.5 -45.5q71 0 140 83zM452 7q0 -90 -50.5 -138.5t-149.5 -48.5q-86 0 -175 36l11 63q81 -42 169 -42q129 0 129 127v67q-66 -72 -146 -72q-83 0 -137 59t-54 170q0 121 64 186.5t166 65.5
q82 0 173 -31v-442z" />
    <glyph glyph-name="uni0436.bgr" horiz-adv-x="699" 
d="M608 -6l-228 250l2 -244h-66l2 244l-217 -244h-82l228 249l-211 218l72 12l210 -224l-2 451l66 12l-2 -463l204 218h82l-215 -222l229 -245z" />
    <glyph glyph-name="uni0438.bgr" 
d="M73 473h66v-326q0 -97 88 -97q70 0 153 81v342h66v-473h-51l-11 70q-90 -80 -170 -80q-70 0 -105.5 38t-35.5 107v338z" />
    <glyph glyph-name="uni0439.bgr" 
d="M392 662q-8 -50 -41.5 -81t-91.5 -31q-57 0 -90 31t-41 81l46 9q17 -63 86 -63q66 0 85 63zM73 473h66v-326q0 -97 88 -97q70 0 153 81v342h66v-473h-51l-11 70q-90 -80 -170 -80q-70 0 -105.5 38t-35.5 107v338z" />
    <glyph glyph-name="uni043A.bgr" horiz-adv-x="466" 
d="M378 -7l-235 258v-251h-66v706l66 12v-448l206 203h85l-221 -211l237 -256z" />
    <glyph glyph-name="uni043B.alt" horiz-adv-x="497" 
d="M30 0l187 479h65l185 -473l-67 -12l-152 404l-149 -398h-69z" />
    <glyph glyph-name="uni043B.bgr" horiz-adv-x="497" 
d="M30 0l187 479h65l185 -473l-67 -12l-152 404l-149 -398h-69z" />
    <glyph glyph-name="uni043F.bgr" 
d="M450 0h-66v326q0 98 -88 98q-69 0 -153 -82v-342h-66v473h51l11 -70q90 80 170 80q69 0 105 -38t36 -107v-338z" />
    <glyph glyph-name="uni0442.bgr" horiz-adv-x="819" 
d="M746 0h-66v326q0 98 -86 98q-67 0 -150 -81v-343h-65v326q0 98 -86 98q-68 0 -150 -80v-344h-66v473h51l11 -68q88 78 167 78q103 0 130 -82q91 82 172 82q69 0 103.5 -37.5t34.5 -106.5v-339z" />
    <glyph glyph-name="uni0446.bgr" horiz-adv-x="538" 
d="M441 -154v154h-46l-11 70q-90 -80 -170 -80q-70 0 -105.5 38t-35.5 107v338h66v-326q0 -97 88 -97q70 0 153 81v342h66v-417h57v-200z" />
    <glyph glyph-name="uni0448.bgr" horiz-adv-x="819" 
d="M73 473h66v-326q0 -97 86 -97q67 0 150 80v343h65v-326q0 -97 86 -97q68 0 150 79v344h66v-473h-51l-11 68q-92 -78 -168 -78q-102 0 -129 82q-91 -82 -172 -82q-138 0 -138 144v339z" />
    <glyph glyph-name="uni0449.bgr" horiz-adv-x="833" 
d="M736 -154v154h-45l-11 68q-92 -78 -168 -78q-102 0 -129 82q-91 -82 -172 -82q-138 0 -138 144v339h66v-326q0 -97 86 -97q67 0 150 80v343h65v-326q0 -97 86 -97q68 0 150 79v344h66v-417h57v-200z" />
    <glyph glyph-name="uni044E.bgr" horiz-adv-x="707" 
d="M659 236q0 -113 -58 -179.5t-149 -66.5q-86 0 -142.5 60t-62.5 163h-104v-213h-66v706l66 12v-448h105q8 99 64.5 156t139.5 57q91 0 149 -66.5t58 -180.5zM591 236q0 86 -38 138.5t-101 52.5q-64 0 -101 -52t-37 -139q0 -85 37.5 -137.5t100.5 -52.5q64 0 101.5 51.5
t37.5 138.5z" />
    <glyph glyph-name="gbreve.alt" horiz-adv-x="529" 
d="M403 665q-8 -50 -41.5 -81t-91.5 -31q-57 0 -90 31t-41 81l46 9q17 -63 86 -63q66 0 85 63zM386 141v262q-55 20 -110 20q-73 0 -116 -48.5t-43 -143.5q0 -82 35.5 -127.5t93.5 -45.5q71 0 140 83zM452 7q0 -90 -50.5 -138.5t-149.5 -48.5q-86 0 -175 36l11 63
q81 -42 169 -42q129 0 129 127v67q-66 -72 -146 -72q-83 0 -137 59t-54 170q0 121 64 186.5t166 65.5q82 0 173 -31v-442z" />
    <glyph glyph-name="gcommaaccent.alt" horiz-adv-x="529" 
d="M317 570l-57 -24q-45 38 -45 85q0 50 72 117l43 -9q-54 -60 -54 -99q0 -34 41 -70zM386 141v262q-55 20 -110 20q-73 0 -116 -48.5t-43 -143.5q0 -82 35.5 -127.5t93.5 -45.5q71 0 140 83zM452 7q0 -90 -50.5 -138.5t-149.5 -48.5q-86 0 -175 36l11 63q81 -42 169 -42
q129 0 129 127v67q-66 -72 -146 -72q-83 0 -137 59t-54 170q0 121 64 186.5t166 65.5q82 0 173 -31v-442z" />
    <glyph glyph-name="gdotaccent.alt" horiz-adv-x="529" 
d="M313 557h-84v90h84v-90zM386 141v262q-55 20 -110 20q-73 0 -116 -48.5t-43 -143.5q0 -82 35.5 -127.5t93.5 -45.5q71 0 140 83zM452 7q0 -90 -50.5 -138.5t-149.5 -48.5q-86 0 -175 36l11 63q81 -42 169 -42q129 0 129 127v67q-66 -72 -146 -72q-83 0 -137 59t-54 170
q0 121 64 186.5t166 65.5q82 0 173 -31v-442z" />
    <glyph glyph-name="Uacute.alt" horiz-adv-x="693" 
d="M499 882l-136 -134h-46l97 153zM548 0l-12 83q-109 -91 -221 -91q-108 0 -168 56.5t-60 171.5v470h69v-462q0 -174 163 -174q104 0 213 97v539h69v-690h-53z" />
    <glyph glyph-name="Ubreve.alt" horiz-adv-x="693" 
d="M479 855q-8 -50 -41.5 -81t-91.5 -31q-57 0 -90 31t-41 81l46 9q17 -63 86 -63q66 0 85 63zM548 0l-12 83q-109 -91 -221 -91q-108 0 -168 56.5t-60 171.5v470h69v-462q0 -174 163 -174q104 0 213 97v539h69v-690h-53z" />
    <glyph glyph-name="Ucircumflex.alt" horiz-adv-x="693" 
d="M480 748h-43l-92 83l-91 -83h-43l103 145h62zM548 0l-12 83q-109 -91 -221 -91q-108 0 -168 56.5t-60 171.5v470h69v-462q0 -174 163 -174q104 0 213 97v539h69v-690h-53z" />
    <glyph glyph-name="Udieresis.alt" horiz-adv-x="693" 
d="M301 757h-82v89h82v-89zM474 757h-83v89h83v-89zM548 0l-12 83q-109 -91 -221 -91q-108 0 -168 56.5t-60 171.5v470h69v-462q0 -174 163 -174q104 0 213 97v539h69v-690h-53z" />
    <glyph glyph-name="Ugrave.alt" horiz-adv-x="693" 
d="M375 748h-46l-136 134l86 19zM548 0l-12 83q-109 -91 -221 -91q-108 0 -168 56.5t-60 171.5v470h69v-462q0 -174 163 -174q104 0 213 97v539h69v-690h-53z" />
    <glyph glyph-name="Uhungarumlaut.alt" horiz-adv-x="693" 
d="M409 885l-134 -133h-41l96 152zM569 885l-133 -133h-41l95 152zM548 0l-12 83q-109 -91 -221 -91q-108 0 -168 56.5t-60 171.5v470h69v-462q0 -174 163 -174q104 0 213 97v539h69v-690h-53z" />
    <glyph glyph-name="Umacron.alt" horiz-adv-x="693" 
d="M477 775h-260v56h260v-56zM548 0l-12 83q-109 -91 -221 -91q-108 0 -168 56.5t-60 171.5v470h69v-462q0 -174 163 -174q104 0 213 97v539h69v-690h-53z" />
    <glyph glyph-name="Uogonek.alt" horiz-adv-x="693" 
d="M612 -167q-30 -11 -61 -11q-35 0 -54.5 17.5t-19.5 49.5q0 38 50 100l19 25l-10 69q-109 -91 -221 -91q-108 0 -168 56.5t-60 171.5v470h69v-462q0 -174 163 -174q104 0 213 97v539h69v-690h-17l-21 -29q-31 -44 -31 -68q0 -34 39 -34q20 0 41 6v-42z" />
    <glyph glyph-name="Uring.alt" horiz-adv-x="693" 
d="M444 829q0 -42 -28 -69t-70 -27t-70 27t-28 69t28 70.5t70 28.5t70 -28.5t28 -70.5zM404 829q0 26 -16.5 44t-41.5 18t-42 -18t-17 -44t17 -43t42 -17t41.5 17t16.5 43zM548 0l-12 83q-109 -91 -221 -91q-108 0 -168 56.5t-60 171.5v470h69v-462q0 -174 163 -174
q104 0 213 97v539h69v-690h-53z" />
    <glyph glyph-name="Wacute.alt" horiz-adv-x="1015" 
d="M657 886l-136 -134h-46l97 153zM660 -2l-155 409l-151 -409h-61l-253 684l71 15l215 -606l147 402l-71 189l71 15l219 -606l210 599h73l-254 -692h-61z" />
    <glyph glyph-name="Wcircumflex.alt" horiz-adv-x="1015" 
d="M638 752h-43l-92 83l-91 -83h-43l103 145h62zM660 -2l-155 409l-151 -409h-61l-253 684l71 15l215 -606l147 402l-71 189l71 15l219 -606l210 599h73l-254 -692h-61z" />
    <glyph glyph-name="Wdieresis.alt" horiz-adv-x="1015" 
d="M458 761h-82v89h82v-89zM631 761h-83v89h83v-89zM660 -2l-155 409l-151 -409h-61l-253 684l71 15l215 -606l147 402l-71 189l71 15l219 -606l210 599h73l-254 -692h-61z" />
    <glyph glyph-name="Wgrave.alt" horiz-adv-x="1015" 
d="M533 752h-46l-136 134l86 19zM660 -2l-155 409l-151 -409h-61l-253 684l71 15l215 -606l147 402l-71 189l71 15l219 -606l210 599h73l-254 -692h-61z" />
    <glyph glyph-name="uni0386.calt" horiz-adv-x="691" 
d="M584 -7l-88 230h-300l-85 -223h-72l272 694h71l270 -686zM345 614l-126 -330h254z" />
    <glyph glyph-name="uni0388.calt" horiz-adv-x="507" 
d="M462 0h-370v690h360v-63h-291v-235h230l10 -62h-240v-267h301v-63z" />
    <glyph glyph-name="uni0389.calt" horiz-adv-x="705" 
d="M613 0h-69v330h-383v-330h-69v690h69v-298h383v298h69v-690z" />
    <glyph glyph-name="uni038A.calt" horiz-adv-x="268" 
d="M168 0h-69v690h69v-690z" />
    <glyph glyph-name="uni038C.calt" horiz-adv-x="745" 
d="M684 346q0 -159 -87 -259t-226 -100q-138 0 -224 99.5t-86 257.5q0 159 87 259t225 100q139 0 225 -99t86 -258zM613 344q0 133 -66 215t-175 82q-108 0 -174 -81.5t-66 -213.5q0 -133 66 -215t175 -82q108 0 174 81.5t66 213.5z" />
    <glyph glyph-name="uni038E.calt" horiz-adv-x="628" 
d="M595 690l-248 -404v-286h-69v286l-244 397l71 14l209 -349l203 342h78z" />
    <glyph glyph-name="uni038F.calt" horiz-adv-x="744" 
d="M321 58l-8 -58h-237v61h160l-23 21q-71 64 -110 137.5t-39 171.5q0 133 85 222.5t223 89.5q140 0 224 -89t84 -223q0 -98 -39.5 -170t-111.5 -139l-23 -21h1h161v-61h-237l-8 58l53 51q64 61 98 126.5t34 156.5q-1 106 -65 177.5t-171 71.5q-108 0 -172 -71t-64 -178
q0 -90 33.5 -155t98.5 -128z" />
    <glyph glyph-name="uni0399.calt" horiz-adv-x="268" 
d="M89 761h-82v89h82v-89zM262 761h-83v89h83v-89zM168 0h-69v690h69v-690z" />
    <glyph glyph-name="uni03A5.calt" horiz-adv-x="628" 
d="M269 757h-82v89h82v-89zM442 757h-83v89h83v-89zM595 690l-248 -404v-286h-69v286l-244 397l71 14l209 -349l203 342h78z" />
    <glyph glyph-name="uni0409.alt" horiz-adv-x="918" 
d="M340 605l-228 -605h-73l269 694h65l113 -290h161q108 0 168.5 -51.5t60.5 -146.5q0 -97 -65.5 -151.5t-178.5 -54.5h-47v1l-17 -1zM643 343h-133l109 -282h16q82 0 126.5 37t44.5 106q0 68 -41.5 103.5t-121.5 35.5z" />
    <glyph glyph-name="uni0431.srb" horiz-adv-x="531" 
d="M259 -10q-96 0 -153 63t-57 156q0 159 165 239q-61 31 -87.5 59.5t-26.5 66.5q0 92 130 114l191 30l10 -61l-190 -29q-75 -12 -75 -53q0 -22 26 -42t100 -55q98 -47 145 -107.5t47 -147.5q0 -100 -63.5 -166.5t-161.5 -66.5zM261 46q66 0 110.5 50t44.5 124
q0 70 -34 117.5t-108 83.5q-76 -32 -117 -86t-41 -125q0 -70 40.5 -117t104.5 -47z" />
    <glyph glyph-name="uni0459.alt" horiz-adv-x="685" 
d="M246 397l-147 -397h-69l185 479h64l67 -173h123q88 0 134 -39.5t46 -109.5q0 -74 -50.5 -115.5t-136.5 -41.5h-69zM467 250h-99l76 -195h19q58 0 89.5 26.5t31.5 73.5q0 95 -117 95z" />
    <glyph glyph-name="three.alt" 
d="M233 -13q-108 0 -188 53l11 66q87 -59 182 -59q72 0 114.5 39.5t42.5 102.5q0 141 -201 141h-30l-7 49l211 237h-305l-9 60h400v-50l-218 -243q104 -5 165.5 -52.5t61.5 -141.5q0 -88 -63.5 -145t-166.5 -57z" />
    <glyph glyph-name="four.alt" horiz-adv-x="593" 
d="M387 0v160h-346v46l329 476l64 -14l-317 -452h270v187l62 14v-201h111v-56h-111v-160h-62z" />
    <glyph glyph-name="comma.alt" horiz-adv-x="219" 
d="M77 98h72q7 -30 7 -50q0 -92 -91 -184l-36 17q56 83 56 159q0 26 -8 58z" />
    <glyph glyph-name="semicolon.alt" horiz-adv-x="227" 
d="M156 376h-78v97h78v-97zM78 98h72q7 -30 7 -50q0 -93 -90 -184l-37 17q56 83 56 159q0 26 -8 58z" />
    <glyph glyph-name="quotedblleft.alt" horiz-adv-x="384" 
d="M138 473h-71q-9 31 -9 61q0 84 74 165l36 -17q-40 -67 -40 -139q0 -37 10 -70zM305 473h-71q-9 31 -9 61q0 84 74 165l36 -17q-40 -67 -40 -139q0 -37 10 -70z" />
    <glyph glyph-name="quotedblright.alt" horiz-adv-x="384" 
d="M79 690h71q9 -30 9 -61q0 -82 -74 -165l-36 17q40 69 40 140q0 38 -10 69zM247 690h70q9 -30 9 -61q0 -84 -74 -165l-36 17q41 70 41 140q0 32 -10 69z" />
    <glyph glyph-name="quoteleft.alt" horiz-adv-x="217" 
d="M138 473h-71q-9 31 -9 61q0 84 74 165l36 -17q-40 -67 -40 -139q0 -37 10 -70z" />
    <glyph glyph-name="quoteright.alt" horiz-adv-x="217" 
d="M79 690h71q9 -30 9 -61q0 -82 -74 -165l-36 17q40 69 40 140q0 38 -10 69z" />
    <glyph glyph-name="quotedblbase.alt" horiz-adv-x="384" 
d="M240 98h70q9 -30 9 -61q0 -84 -74 -165l-36 17q41 70 41 140q0 32 -10 69zM72 98h71q9 -30 9 -61q0 -82 -74 -165l-36 17q40 69 40 140q0 38 -10 69z" />
    <glyph glyph-name="quotesinglbase.alt" horiz-adv-x="217" 
d="M72 98h71q9 -30 9 -61q0 -82 -74 -165l-36 17q40 69 40 140q0 38 -10 69z" />
    <glyph glyph-name="registered.alt" horiz-adv-x="806" 
d="M747 345q0 -158 -95 -258t-249 -100q-155 0 -250 99.5t-95 258.5q0 158 95 258t249 100q155 0 250 -99.5t95 -258.5zM713 345q0 149 -86.5 239t-224.5 90q-139 0 -224 -90t-85 -239t86 -239t225 -90t224 90t85 239zM509 151l-121 164h-48v-161h-52v394h109q60 0 96 -31
t36 -84q0 -42 -23 -70t-62 -40l122 -161zM340 500v-139h51q39 0 61.5 18.5t22.5 52.5q0 32 -20.5 50t-59.5 18h-55z" />
    <glyph glyph-name="servicemark.alt" horiz-adv-x="801" 
d="M720 345h-45v268l-115 -270h-41l-114 270v-268h-44v345h59l120 -290l121 290h59v-345zM164 340q-53 0 -96 24l5 46q48 -29 92 -29q28 0 47 14t19 39q0 23 -14.5 38t-48.5 30q-54 24 -75 45t-21 58q0 39 29.5 64.5t74.5 25.5q46 0 83 -20l-7 -45q-40 24 -78 24
q-26 0 -42 -12.5t-16 -32.5q0 -22 14.5 -35.5t51.5 -29.5q51 -22 72 -45t21 -62q0 -45 -31.5 -71t-79.5 -26z" />
    <glyph glyph-name="trademark.alt" horiz-adv-x="801" 
d="M303 647h-111v-302h-47v302h-108v43h260zM726 345h-44v268l-115 -270h-42l-113 270v-268h-45v345h60l120 -290l119 290h60v-345z" />
    <glyph glyph-name="space.tab" horiz-adv-x="270" 
 />
    <glyph glyph-name="NUL" horiz-adv-x="0" 
 />
    <glyph glyph-name="A.flat" horiz-adv-x="695" 
d="M345 614l-126 -330h254zM582 0l-86 223h-301l-85 -223h-71l272 694h71l274 -694h-74z" />
    <glyph glyph-name="E.flat" horiz-adv-x="507" 
d="M462 0h-370v690h360v-63h-291v-235h235v-62h-235v-267h301v-63z" />
    <glyph glyph-name="F.flat" horiz-adv-x="477" 
d="M438 627h-277v-246h227v-62h-227v-319h-69v690h346v-63z" />
    <glyph glyph-name="G.flat" horiz-adv-x="694" 
d="M612 57q-105 -70 -227 -70q-151 0 -237.5 98t-86.5 259q0 160 87 259.5t231 99.5q118 0 204 -60l-12 -71q-86 69 -193 69q-114 0 -180 -80.5t-66 -215.5t67 -215.5t187 -80.5q86 0 158 44v206h-171v63h239v-305z" />
    <glyph glyph-name="K.flat" horiz-adv-x="608" 
d="M598 0h-93l-344 356v-356h-69v690h69v-314l320 314h89l-332 -322z" />
    <glyph glyph-name="L.flat" horiz-adv-x="466" 
d="M433 0h-341v690h69v-626h272v-64z" />
    <glyph glyph-name="Q.alt_flat" horiz-adv-x="749" 
d="M691 -19l-113 88q-85 -82 -207 -82q-139 0 -225 99.5t-86 257.5q0 159 87 259t226 100t225 -99.5t86 -257.5q0 -137 -67 -232l74 -55v-78zM373 49q92 0 155 58l-136 103v79l174 -135q47 77 47 190q0 133 -66.5 215t-175.5 82t-174.5 -81t-65.5 -214t66.5 -215t175.5 -82z
" />
    <glyph glyph-name="R.flat" horiz-adv-x="568" 
d="M419 496q0 63 -40 98t-116 35h-102v-269h91q77 0 122 35.5t45 100.5zM161 0h-69v690h175q103 0 162.5 -50.5t59.5 -139.5q0 -77 -44.5 -125.5t-116.5 -64.5l222 -310h-83l-215 301h-91v-301z" />
    <glyph glyph-name="T.flat" horiz-adv-x="579" 
d="M546 627h-222v-627h-69v627h-222v63h513v-63z" />
    <glyph glyph-name="V.flat" horiz-adv-x="684" 
d="M645 690l-272 -694h-62l-272 694h75l229 -604l229 604h73z" />
    <glyph glyph-name="W.flat" horiz-adv-x="1026" 
d="M980 690l-208 -692h-60l-200 597l-199 -597h-58l-210 692h74l169 -584l190 584h71l192 -584l169 584h70z" />
    <glyph glyph-name="W.alt_flat" horiz-adv-x="1017" 
d="M662 -2l-154 410l-152 -410h-61l-256 692h77l212 -599l147 404l-74 195h77l217 -599l209 599h74l-255 -692h-61z" />
    <glyph glyph-name="X.flat" horiz-adv-x="635" 
d="M517 0l-202 309l-203 -309h-76l241 358l-223 332h79l184 -281l184 281h76l-222 -330l240 -360h-78z" />
    <glyph glyph-name="Y.flat" horiz-adv-x="631" 
d="M599 690l-249 -404v-286h-68v286l-250 404h80l205 -342l203 342h79z" />
    <glyph glyph-name="Z.flat" horiz-adv-x="598" 
d="M545 0h-493v50l408 580h-385v60h469v-50l-408 -580h409v-60z" />
    <glyph glyph-name="f.flat" horiz-adv-x="295" 
d="M281 651q-18 4 -40 4q-72 0 -72 -73v-109h102v-56h-102v-417h-65v417h-72v56h72v114q0 64 35 95.5t98 31.5q14 0 34 -2z" />
    <glyph glyph-name="k.flat" horiz-adv-x="466" 
d="M371 0l-228 251v-251h-66v706l66 12v-448l206 203h85l-221 -211l243 -262h-85z" />
    <glyph glyph-name="t.flat" horiz-adv-x="330" 
d="M289 0q-28 -8 -66 -8q-123 0 -123 116v309h-73v56h73v164l65 11v-175h115v-56h-115v-298q0 -36 16 -52.5t54 -16.5q17 0 44 5z" />
    <glyph glyph-name="v.flat" horiz-adv-x="471" 
d="M442 473l-175 -477h-63l-174 477h71l136 -396l136 396h69z" />
    <glyph glyph-name="w.flat" horiz-adv-x="728" 
d="M697 473l-157 -477h-58l-118 388l-117 -388h-57l-159 477h69l119 -389l118 391h57l119 -391l117 389h67z" />
    <glyph glyph-name="x.flat" horiz-adv-x="470" 
d="M361 0l-127 195l-128 -195h-71l164 242l-157 231h74l119 -182l122 182h70l-157 -229l164 -244h-73z" />
    <glyph glyph-name="y.flat" horiz-adv-x="480" 
d="M107 -180q-8 0 -29 3l-10 59q22 -4 38 -4q31 0 50.5 16t33.5 54l19 49l-181 476h70l144 -397l139 397h69l-201 -535q-24 -66 -57 -92t-85 -26z" />
    <glyph glyph-name="z.flat" horiz-adv-x="449" 
d="M402 0h-361v51l282 367h-263v55h339v-51l-282 -367h285v-55z" />
    <glyph glyph-name="two.flat" horiz-adv-x="535" 
d="M50 0v49l249 265q54 58 75.5 99t21.5 88q0 61 -35.5 94.5t-98.5 33.5q-91 0 -184 -81l-10 66q89 75 198 75q93 0 146 -50t53 -134q0 -61 -26.5 -111t-90.5 -117l-208 -218h332v-59h-422z" />
    <glyph glyph-name="three.flat" 
d="M234 -13q-107 0 -189 53l11 66q86 -59 182 -59q72 0 114.5 36.5t42.5 98.5q0 68 -48.5 106t-147.5 38h-35v60h42q86 0 131 34.5t45 94.5q0 51 -35 82.5t-101 31.5q-96 0 -181 -65l-9 63q87 62 193 62q98 0 150 -48.5t52 -122.5q0 -118 -129 -160q142 -41 142 -175
q0 -86 -64 -141t-166 -55z" />
    <glyph glyph-name="three.alt_flat" 
d="M233 -13q-108 0 -188 53l11 66q87 -59 182 -59q72 0 114.5 39.5t42.5 102.5q0 141 -201 141h-30l-7 49l211 237h-310v60h396v-50l-218 -243q104 -5 165.5 -52.5t61.5 -141.5q0 -88 -63.5 -145t-166.5 -57z" />
    <glyph glyph-name="four.alt_flat" horiz-adv-x="593" 
d="M387 0v160h-346v46l326 470h72l-322 -460h270v194h62v-194h111v-56h-111v-160h-62z" />
    <glyph glyph-name="five.flat" horiz-adv-x="534" 
d="M481 208q0 -101 -69.5 -160.5t-172.5 -59.5q-109 0 -188 49l10 64q88 -55 180 -55q73 0 122.5 42t49.5 117q0 68 -41.5 107t-117.5 39q-67 0 -128 -26l-45 11l24 340h345v-59h-289l-16 -227q58 20 115 20q102 0 161.5 -55t59.5 -147z" />
    <glyph glyph-name="seven.flat" horiz-adv-x="532" 
d="M130 0l273 616h-354v60h429v-50l-277 -626h-71z" />
    <glyph glyph-name="sterling.flat" horiz-adv-x="544" 
d="M490 59v-59h-429v47l80 256h-80v59h98l47 151q29 91 77.5 133.5t128.5 42.5q37 0 79 -10l-10 -60q-34 9 -75 9q-54 0 -86 -31t-54 -102l-41 -133h188v-59h-207l-76 -244h360z" />
    <glyph glyph-name="Euro.flat" horiz-adv-x="603" 
d="M567 47q-84 -60 -183 -60q-100 0 -168 66.5t-89 182.5h-95v53h88q-2 30 -2 48q0 37 4 65h-90v54h99q25 108 93.5 170.5t164.5 62.5q94 0 167 -51l-11 -65q-77 58 -156 58q-72 0 -121.5 -46.5t-70.5 -128.5h255v-54h-266q-3 -30 -3 -64q0 -17 2 -49h267v-53h-259
q19 -89 70 -140t124 -51q84 0 171 63z" />
    <glyph glyph-name="yen.flat" horiz-adv-x="614" 
d="M504 99h-167v-99h-61v99h-168v52h168v92h-168v51h158l-228 382h72l198 -345l195 345h71l-227 -382h157v-51h-167v-92h167v-52z" />
    <glyph glyph-name="numbersign.flat" horiz-adv-x="648" 
d="M400 236l33 204h-186l-32 -204h185zM363 -2l28 182h-185l-29 -182h-53l29 182h-109v56h118l32 204h-126v56h135l29 182h53l-29 -182h186l28 182h53l-29 -182h110v-56h-118l-33 -204h126v-56h-134l-29 -182h-53z" />
    <glyph glyph-name="ordfeminine.flat" horiz-adv-x="393" 
d="M169 396q46 0 94 42v85q-82 -8 -114.5 -28t-32.5 -52q0 -22 14 -34.5t39 -12.5zM161 353q-43 0 -69 23.5t-26 63.5q0 54 47.5 84t149.5 39v17q0 56 -63 56q-46 0 -105 -27l-7 46q62 25 116 25q109 0 109 -98v-223h-40l-6 38q-51 -44 -106 -44zM317 230h-248v47h248v-47z
" />
    <glyph glyph-name="ordmasculine.flat" horiz-adv-x="395" 
d="M197 353q-64 0 -103 45.5t-39 118.5q0 72 39 117.5t103 45.5q65 0 103.5 -45t38.5 -118q0 -74 -38.5 -119t-103.5 -45zM286 517q0 51 -22.5 84.5t-66.5 33.5q-43 0 -66 -33.5t-23 -84.5q0 -52 23 -85.5t66 -33.5q44 0 66.5 33.5t22.5 85.5zM65 230v47h264v-47h-264z" />
    <glyph glyph-name="percent.flat" horiz-adv-x="880" 
d="M366 494q0 -87 -43.5 -138.5t-110.5 -51.5t-111 51.5t-44 138.5q0 86 44 138t111 52t110.5 -52t43.5 -138zM254 0h-60l221 344l210 332h60l-221 -344zM307 494q0 61 -25.5 101t-70.5 40t-69.5 -39.5t-24.5 -101.5t25.5 -102t70.5 -40t69.5 39.5t24.5 102.5zM668 -8
q-67 0 -110.5 52t-43.5 138q0 87 43.5 138.5t110.5 51.5t111 -51.5t44 -138.5q0 -86 -44 -138t-111 -52zM669 41q45 0 69.5 39.5t24.5 101.5t-25 102t-70 40q-46 0 -70.5 -39.5t-24.5 -102.5q0 -61 25.5 -101t70.5 -40z" />
    <glyph glyph-name="ampersand.flat" horiz-adv-x="689" 
d="M264 48q111 0 183 99l-198 197q-135 -57 -135 -163q0 -58 42 -95.5t108 -37.5zM594 0l-104 104q-89 -115 -227 -115q-101 0 -160 51t-59 135q0 135 165 211q-39 40 -56 75t-17 80q0 69 49 114.5t131 45.5q87 0 163 -43l-13 -69q-82 52 -152 52q-51 0 -80 -27t-29 -70
q0 -36 16.5 -66t56.5 -71l202 -204q41 82 57 199l63 -13q-23 -139 -75 -231l157 -158h-88z" />
    <glyph glyph-name="exclam.flat" horiz-adv-x="268" 
d="M174 690l-20 -494h-40l-20 494h80zM173 0h-78v98h78v-98z" />
    <glyph glyph-name="exclamdown.flat" horiz-adv-x="268" 
d="M95 690h78v-98h-78v98zM94 0l20 495h40l20 -495h-80z" />
    <glyph glyph-name="question.flat" horiz-adv-x="498" 
d="M250 195h-44l-12 161l28 12q84 41 117 76.5t33 85.5q0 52 -35.5 81.5t-94.5 29.5q-95 0 -186 -73l-9 67q90 68 198 68q87 0 142 -46t55 -124q0 -72 -43.5 -117.5t-138.5 -93.5zM189 0v98h78v-98h-78z" />
    <glyph glyph-name="questiondown.flat" horiz-adv-x="498" 
d="M309 690v-98h-78v98h78zM253 -13q-87 0 -142 46t-55 124q0 72 43.5 117.5t138.5 93.5l10 127h44l12 -161l-28 -12q-84 -41 -117 -76.5t-33 -85.5q0 -52 35.5 -81.5t94.5 -29.5q95 0 186 73l9 -67q-90 -68 -198 -68z" />
    <glyph glyph-name="guillemotleft.flat" horiz-adv-x="514" 
d="M460 473l-144 -236l144 -237h-56l-164 237l164 236h56zM259 473l-143 -236l143 -237h-56l-164 237l164 236h56z" />
    <glyph glyph-name="guillemotright.flat" horiz-adv-x="514" 
d="M54 0l144 236l-144 237h56l164 -237l-164 -236h-56zM255 0l143 236l-143 237h56l163 -237l-163 -236h-56z" />
    <glyph glyph-name="guilsinglleft.flat" horiz-adv-x="313" 
d="M259 473l-143 -236l143 -237h-56l-164 237l164 236h56z" />
    <glyph glyph-name="guilsinglright.flat" horiz-adv-x="313" 
d="M54 0l144 236l-144 237h56l164 -237l-164 -236h-56z" />
    <glyph glyph-name="parenleft.flat" horiz-adv-x="392" 
d="M140 313q0 -112 47.5 -196.5t146.5 -154.5l-11 -62q-253 162 -253 413q0 252 253 414l11 -62q-99 -70 -146.5 -155t-47.5 -197z" />
    <glyph glyph-name="parenright.flat" horiz-adv-x="392" 
d="M252 313q0 112 -48 197t-147 155l12 62q253 -162 253 -414q0 -251 -253 -413l-12 62q99 70 147 155t48 196z" />
    <glyph glyph-name="bracketleft.flat" horiz-adv-x="407" 
d="M347 -105h-250v795h250v-52h-187v-691h187v-52z" />
    <glyph glyph-name="bracketright.flat" horiz-adv-x="407" 
d="M59 690h250v-795h-250v52h187v691h-187v52z" />
    <glyph glyph-name="braceleft.flat" horiz-adv-x="469" 
d="M409 -105h-91q-143 0 -143 130q0 23 6 68.5t6 70.5q0 103 -105 103h-35v51h35q105 0 105 102q0 24 -6 69.5t-6 68.5q0 132 143 132h91v-52h-89q-82 0 -82 -79q0 -20 6.5 -68t6.5 -70q0 -58 -26 -87.5t-75 -40.5v-2q49 -11 75 -40t26 -88q0 -22 -6.5 -70.5t-6.5 -68.5
q0 -77 81 -77h90v-52z" />
    <glyph glyph-name="braceright.flat" horiz-adv-x="469" 
d="M59 690h92q143 0 143 -130q0 -23 -6 -68.5t-6 -70.5q0 -103 105 -103h35v-51h-35q-105 0 -105 -103q0 -24 6 -69.5t6 -68.5q0 -131 -143 -131h-92v52h90q82 0 82 78q0 20 -6.5 68t-6.5 70q0 106 101 128v2q-49 12 -75 41.5t-26 87.5q0 22 6.5 70.5t6.5 68.5q0 77 -81 77
h-91v52z" />
    <glyph glyph-name="registered.alt_flat" horiz-adv-x="806" 
d="M747 345q0 -158 -95 -258t-249 -100q-155 0 -250 99.5t-95 258.5q0 158 95 258t249 100q155 0 250 -99.5t95 -258.5zM713 345q0 149 -86.5 239t-224.5 90q-139 0 -224 -90t-85 -239t86 -239t225 -90t224 90t85 239zM340 500v-139h51q39 0 61.5 18.5t22.5 52.5
q0 32 -20.5 50t-59.5 18h-55zM507 154l-119 161h-48v-161h-52v394h109q60 0 96 -31t36 -84q0 -42 -23 -70t-62 -40l128 -169h-65z" />
    <glyph glyph-name="registered.flat" horiz-adv-x="566" 
d="M510 467q0 -102 -63.5 -167t-163.5 -65q-101 0 -163.5 65t-62.5 168q0 102 63 167t164 65q100 0 163 -65t63 -168zM484 467q0 94 -56.5 152t-144.5 58t-144 -57.5t-56 -151.5t56 -152t144 -58t144.5 57.5t56.5 151.5zM331 528q0 43 -53 43h-33v-87h32q54 0 54 44z
M246 347h-36v258h69q41 0 65 -20t24 -55q0 -55 -54 -71l80 -112h-45l-75 107h-28v-107z" />
    <glyph glyph-name="trademark.flat" horiz-adv-x="801" 
d="M300 647h-108v-302h-47v302h-108v43h263v-43zM735 345h-47l-20 268l-107 -269h-38l-106 268l-21 -267h-45l26 345h56l111 -283l109 283h55z" />
    <glyph glyph-name="trademark.alt_flat" horiz-adv-x="801" 
d="M300 647h-108v-302h-47v302h-108v43h263v-43zM726 345h-44v268l-115 -270h-42l-113 270v-268h-45v345h60l120 -290l119 290h60v-345z" />
    <glyph glyph-name="AE.flat" horiz-adv-x="873" 
d="M459 283v351l-208 -351h208zM459 0v223h-243l-131 -223h-75l410 690h398v-62h-291v-236h235v-62h-235v-268h301v-62h-369z" />
    <glyph glyph-name="OE.flat" horiz-adv-x="877" 
d="M831 0h-414q-168 0 -263 94t-95 250q0 159 98 252.5t264 93.5h400v-62h-288v-236h233v-62h-233v-268h298v-62zM464 62v566h-48q-134 0 -210.5 -72t-76.5 -211q0 -136 78 -209.5t210 -73.5h47z" />
    <glyph glyph-name="Eth.flat" horiz-adv-x="715" 
d="M292 0h-185v331h-86v60h86v299h188q169 0 264 -94t95 -250q0 -159 -98 -252.5t-264 -93.5zM175 62h121q134 0 210.5 72t76.5 211q0 136 -78 209.5t-210 73.5h-120v-237h166v-60h-166v-269z" />
    <glyph glyph-name="Dcroat.flat" horiz-adv-x="715" 
d="M292 0h-185v331h-86v60h86v299h188q169 0 264 -94t95 -250q0 -159 -98 -252.5t-264 -93.5zM175 62h121q134 0 210.5 72t76.5 211q0 136 -78 209.5t-210 73.5h-120v-237h166v-60h-166v-269z" />
    <glyph glyph-name="Hbar.flat" horiz-adv-x="734" 
d="M175 389h383v137h-383v-137zM175 328v-328h-68v525h-86v58h86v107h68v-107h383v107h69v-107h85v-58h-85v-525h-69v328h-383z" />
    <glyph glyph-name="Lslash.flat" horiz-adv-x="481" 
d="M447 0h-340v277l-86 -48v67l86 48v346h68v-309l159 90v-68l-159 -88v-252h272v-63z" />
    <glyph glyph-name="Aogonek.flat" horiz-adv-x="695" 
d="M345 614l-126 -330h254zM665 -167q-30 -11 -61 -11q-35 0 -54.5 17.5t-19.5 49.5q0 38 50 100l9 11h-7l-86 223h-301l-85 -223h-71l272 694h71l274 -694h-19l-21 -29q-31 -44 -31 -68q0 -34 39 -34q20 0 41 6v-42z" />
    <glyph glyph-name="Eogonek.flat" horiz-adv-x="505" 
d="M465 -167q-30 -11 -61 -11q-35 0 -54.5 17.5t-19.5 49.5q0 38 50 100l9 11h-297v690h360v-63h-291v-235h235v-62h-235v-267h301v-63h-25l-21 -29q-31 -44 -31 -68q0 -34 39 -34q20 0 41 6v-42z" />
    <glyph glyph-name="Aring.flat" horiz-adv-x="695" 
d="M404 732q0 26 -16.5 44t-41.5 18t-42 -18t-17 -44t17 -43.5t42 -17.5t41.5 17.5t16.5 43.5zM345 614l-127 -330h255zM583 0l-87 223h-302l-85 -223h-70l254 650q-46 26 -46 82q0 41 28.5 70t70.5 29t70 -28.5t28 -70.5q0 -55 -45 -82l257 -650h-73z" />
    <glyph glyph-name="Aringacute.flat" horiz-adv-x="695" 
d="M493 993l-136 -134h-46l97 153zM404 732q0 26 -16.5 44t-41.5 18t-42 -18t-17 -44t17 -43.5t42 -17.5t41.5 17.5t16.5 43.5zM345 614l-127 -330h255zM583 0l-87 223h-302l-85 -223h-70l254 650q-46 26 -46 82q0 41 28.5 70t70.5 29t70 -28.5t28 -70.5q0 -55 -45 -82
l257 -650h-73z" />
    <glyph glyph-name="Ldot.flat" horiz-adv-x="466" 
d="M433 0h-341v690h69v-626h272v-64zM398 304h-82v88h82v-88z" />
    <glyph glyph-name="Aacute.flat" horiz-adv-x="695" 
d="M500 896l-136 -134h-46l97 153zM345 614l-126 -330h254zM582 0l-86 223h-301l-85 -223h-71l272 694h71l274 -694h-74z" />
    <glyph glyph-name="Agrave.flat" horiz-adv-x="695" 
d="M376 762h-46l-136 134l86 19zM345 614l-126 -330h254zM582 0l-86 223h-301l-85 -223h-71l272 694h71l274 -694h-74z" />
    <glyph glyph-name="Acircumflex.flat" horiz-adv-x="695" 
d="M481 757h-43l-92 83l-91 -83h-43l103 145h62zM345 614l-126 -330h254zM582 0l-86 223h-301l-85 -223h-71l272 694h71l274 -694h-74z" />
    <glyph glyph-name="Abreve.flat" horiz-adv-x="695" 
d="M480 877q-8 -50 -41.5 -81t-91.5 -31q-57 0 -90 31t-41 81l46 9q17 -63 86 -63q66 0 85 63zM345 614l-126 -330h254zM582 0l-86 223h-301l-85 -223h-71l272 694h71l274 -694h-74z" />
    <glyph glyph-name="Atilde.flat" horiz-adv-x="695" 
d="M498 871q-14 -103 -76 -103q-28 0 -75 25q-51 26 -64 26q-24 0 -35 -53l-45 9q15 104 76 104q26 0 75 -26q49 -25 63 -25q24 0 37 52zM345 614l-126 -330h254zM582 0l-86 223h-301l-85 -223h-71l272 694h71l274 -694h-74z" />
    <glyph glyph-name="Amacron.flat" horiz-adv-x="695" 
d="M478 789h-260v56h260v-56zM345 614l-126 -330h254zM582 0l-86 223h-301l-85 -223h-71l272 694h71l274 -694h-74z" />
    <glyph glyph-name="Adieresis.flat" horiz-adv-x="695" 
d="M302 771h-82v89h82v-89zM475 771h-83v89h83v-89zM345 614l-126 -330h254zM582 0l-86 223h-301l-85 -223h-71l272 694h71l274 -694h-74z" />
    <glyph glyph-name="Eacute.flat" horiz-adv-x="507" 
d="M427 886l-136 -134h-46l97 153zM462 0h-370v690h360v-63h-291v-235h235v-62h-235v-267h301v-63z" />
    <glyph glyph-name="Egrave.flat" horiz-adv-x="507" 
d="M303 752h-46l-136 134l86 19zM462 0h-370v690h360v-63h-291v-235h235v-62h-235v-267h301v-63z" />
    <glyph glyph-name="Ecircumflex.flat" horiz-adv-x="507" 
d="M408 752h-43l-92 83l-91 -83h-43l103 145h62zM462 0h-370v690h360v-63h-291v-235h235v-62h-235v-267h301v-63z" />
    <glyph glyph-name="Ecaron.flat" horiz-adv-x="507" 
d="M140 897h43l91 -83l92 83h43l-104 -145h-62zM462 0h-370v690h360v-63h-291v-235h235v-62h-235v-267h301v-63z" />
    <glyph glyph-name="Ebreve.flat" horiz-adv-x="507" 
d="M406 867q-8 -50 -41.5 -81t-91.5 -31q-57 0 -90 31t-41 81l46 9q17 -63 86 -63q66 0 85 63zM462 0h-370v690h360v-63h-291v-235h235v-62h-235v-267h301v-63z" />
    <glyph glyph-name="Emacron.flat" horiz-adv-x="507" 
d="M404 779h-260v56h260v-56zM462 0h-370v690h360v-63h-291v-235h235v-62h-235v-267h301v-63z" />
    <glyph glyph-name="Edieresis.flat" horiz-adv-x="507" 
d="M229 761h-82v89h82v-89zM402 761h-83v89h83v-89zM462 0h-370v690h360v-63h-291v-235h235v-62h-235v-267h301v-63z" />
    <glyph glyph-name="Edotaccent.flat" horiz-adv-x="507" 
d="M316 759h-84v90h84v-90zM462 0h-370v690h360v-63h-291v-235h235v-62h-235v-267h301v-63z" />
    <glyph glyph-name="Gbreve.flat" horiz-adv-x="694" 
d="M502 877q-8 -50 -41.5 -81t-91.5 -31q-57 0 -90 31t-41 81l46 9q17 -63 86 -63q66 0 85 63zM612 57q-105 -70 -227 -70q-151 0 -237.5 98t-86.5 259q0 160 87 259.5t231 99.5q118 0 204 -60l-12 -71q-86 69 -193 69q-114 0 -180 -80.5t-66 -215.5t67 -215.5t187 -80.5
q86 0 158 44v206h-171v63h239v-305z" />
    <glyph glyph-name="Gdotaccent.flat" horiz-adv-x="694" 
d="M412 769h-84v90h84v-90zM612 57q-105 -70 -227 -70q-151 0 -237.5 98t-86.5 259q0 160 87 259.5t231 99.5q118 0 204 -60l-12 -71q-86 69 -193 69q-114 0 -180 -80.5t-66 -215.5t67 -215.5t187 -80.5q86 0 158 44v206h-171v63h239v-305z" />
    <glyph glyph-name="Gcommaaccent.flat" horiz-adv-x="694" 
d="M612 57q-105 -70 -227 -70q-151 0 -237.5 98t-86.5 259q0 160 87 259.5t231 99.5q118 0 204 -60l-12 -71q-86 69 -193 69q-114 0 -180 -80.5t-66 -215.5t67 -215.5t187 -80.5q86 0 158 44v206h-171v63h239v-305zM319 -90l57 23q45 -37 45 -85q0 -52 -72 -116l-43 8
q55 59 55 99q0 36 -42 71z" />
    <glyph glyph-name="Kcommaaccent.flat" horiz-adv-x="608" 
d="M598 0h-93l-344 356v-356h-69v690h69v-314l320 314h89l-332 -322zM253 -86l57 23q45 -37 45 -85q0 -52 -72 -116l-43 8q55 59 55 99q0 36 -42 71z" />
    <glyph glyph-name="Lacute.flat" horiz-adv-x="466" 
d="M294 884l-136 -134h-46l97 153zM433 0h-341v690h69v-626h272v-64z" />
    <glyph glyph-name="Lcaron.flat" horiz-adv-x="466" 
d="M308 694q20 -38 20 -71q0 -63 -64 -120l-33 7q36 52 36 95q0 31 -23 77zM433 0h-341v690h69v-626h272v-64z" />
    <glyph glyph-name="Lcommaaccent.flat" horiz-adv-x="466" 
d="M433 0h-341v690h69v-626h272v-64zM207 -88l57 23q45 -37 45 -85q0 -52 -72 -116l-43 8q55 59 55 99q0 36 -42 71z" />
    <glyph glyph-name="Racute.flat" horiz-adv-x="568" 
d="M423 886l-136 -134h-46l97 153zM419 496q0 63 -40 98t-116 35h-102v-269h91q77 0 122 35.5t45 100.5zM161 0h-69v690h175q103 0 162.5 -50.5t59.5 -139.5q0 -77 -44.5 -125.5t-116.5 -64.5l222 -310h-83l-215 301h-91v-301z" />
    <glyph glyph-name="Rcaron.flat" horiz-adv-x="568" 
d="M137 897h43l91 -83l92 83h43l-104 -145h-62zM419 496q0 63 -40 98t-116 35h-102v-269h91q77 0 122 35.5t45 100.5zM161 0h-69v690h175q103 0 162.5 -50.5t59.5 -139.5q0 -77 -44.5 -125.5t-116.5 -64.5l222 -310h-83l-215 301h-91v-301z" />
    <glyph glyph-name="Rcommaaccent.flat" horiz-adv-x="568" 
d="M419 496q0 63 -40 98t-116 35h-102v-269h91q77 0 122 35.5t45 100.5zM161 0h-69v690h175q103 0 162.5 -50.5t59.5 -139.5q0 -77 -44.5 -125.5t-116.5 -64.5l222 -310h-83l-215 301h-91v-301zM234 -86l57 23q45 -37 45 -85q0 -52 -72 -116l-43 8q55 59 55 99q0 36 -42 71z
" />
    <glyph glyph-name="Tcaron.flat" horiz-adv-x="579" 
d="M159 897h43l91 -83l92 83h43l-104 -145h-62zM546 627h-222v-627h-69v627h-222v63h513v-63z" />
    <glyph glyph-name="Tcommaaccent.flat" horiz-adv-x="579" 
d="M546 627h-222v-627h-69v627h-222v63h513v-63zM242 -88l57 23q45 -37 45 -85q0 -52 -72 -116l-43 8q55 59 55 99q0 36 -42 71z" />
    <glyph glyph-name="Wacute.flat" horiz-adv-x="1026" 
d="M667 886l-136 -134h-46l97 153zM980 690l-208 -692h-60l-200 597l-199 -597h-58l-210 692h74l169 -584l190 584h71l192 -584l169 584h70z" />
    <glyph glyph-name="Wgrave.flat" horiz-adv-x="1026" 
d="M543 752h-46l-136 134l86 19zM980 690l-208 -692h-60l-200 597l-199 -597h-58l-210 692h74l169 -584l190 584h71l192 -584l169 584h70z" />
    <glyph glyph-name="Wcircumflex.flat" horiz-adv-x="1026" 
d="M648 750h-43l-92 83l-91 -83h-43l103 145h62zM980 690l-208 -692h-60l-200 597l-199 -597h-58l-210 692h74l169 -584l190 584h71l192 -584l169 584h70z" />
    <glyph glyph-name="Wdieresis.flat" horiz-adv-x="1026" 
d="M469 761h-82v89h82v-89zM642 761h-83v89h83v-89zM980 690l-208 -692h-60l-200 597l-199 -597h-58l-210 692h74l169 -584l190 584h71l192 -584l169 584h70z" />
    <glyph glyph-name="Wacute.alt_flat" horiz-adv-x="1017" 
d="M657 886l-136 -134h-46l97 153zM662 -2l-154 410l-152 -410h-61l-256 692h77l212 -599l147 404l-74 195h77l217 -599l209 599h74l-255 -692h-61z" />
    <glyph glyph-name="Wgrave.alt_flat" horiz-adv-x="1017" 
d="M534 752h-46l-136 134l86 19zM662 -2l-154 410l-152 -410h-61l-256 692h77l212 -599l147 404l-74 195h77l217 -599l209 599h74l-255 -692h-61z" />
    <glyph glyph-name="Wcircumflex.alt_flat" horiz-adv-x="1017" 
d="M639 752h-43l-92 83l-91 -83h-43l103 145h62zM662 -2l-154 410l-152 -410h-61l-256 692h77l212 -599l147 404l-74 195h77l217 -599l209 599h74l-255 -692h-61z" />
    <glyph glyph-name="Wdieresis.alt_flat" horiz-adv-x="1017" 
d="M459 761h-82v89h82v-89zM632 761h-83v89h83v-89zM662 -2l-154 410l-152 -410h-61l-256 692h77l212 -599l147 404l-74 195h77l217 -599l209 599h74l-255 -692h-61z" />
    <glyph glyph-name="Yacute.flat" horiz-adv-x="631" 
d="M468 882l-136 -134h-46l97 153zM599 690l-249 -404v-286h-68v286l-250 404h80l205 -342l203 342h79z" />
    <glyph glyph-name="Ygrave.flat" horiz-adv-x="631" 
d="M345 748h-46l-136 134l86 19zM599 690l-249 -404v-286h-68v286l-250 404h80l205 -342l203 342h79z" />
    <glyph glyph-name="Ycircumflex.flat" horiz-adv-x="631" 
d="M450 748h-43l-92 83l-91 -83h-43l103 145h62zM599 690l-249 -404v-286h-68v286l-250 404h80l205 -342l203 342h79z" />
    <glyph glyph-name="Ydieresis.flat" horiz-adv-x="631" 
d="M270 757h-82v89h82v-89zM443 757h-83v89h83v-89zM599 690l-249 -404v-286h-68v286l-250 404h80l205 -342l203 342h79z" />
    <glyph glyph-name="Zacute.flat" horiz-adv-x="598" 
d="M455 886l-136 -134h-46l97 153zM545 0h-493v50l408 580h-385v60h469v-50l-408 -580h409v-60z" />
    <glyph glyph-name="Zcaron.flat" horiz-adv-x="598" 
d="M168 897h43l91 -83l92 83h43l-104 -145h-62zM545 0h-493v50l408 580h-385v60h469v-50l-408 -580h409v-60z" />
    <glyph glyph-name="Zdotaccent.flat" horiz-adv-x="598" 
d="M344 759h-84v90h84v-90zM545 0h-493v50l408 580h-385v60h469v-50l-408 -580h409v-60z" />
    <glyph glyph-name="AEacute.flat" horiz-adv-x="871" 
d="M675 886l-136 -134h-46l97 153zM459 283v351l-208 -351h208zM459 0v223h-243l-131 -223h-75l410 690h398v-62h-291v-236h235v-62h-235v-268h301v-62h-369z" />
    <glyph glyph-name="dcroat.flat" horiz-adv-x="531" 
d="M117 226q0 -84 35.5 -130.5t93.5 -46.5q72 0 142 85v261q-55 28 -121 28q-67 0 -108.5 -50.5t-41.5 -146.5zM392 69q-66 -79 -152 -79q-83 0 -137 59.5t-54 173.5q0 124 62 190.5t154 66.5q69 0 123 -23v120h-150v55h150v74l66 12v-86h75v-55h-75v-577h-50z" />
    <glyph glyph-name="hbar.flat" 
d="M143 342v-342h-66v577h-74v55h74v74l66 12v-86h151v-55h-151v-171q88 77 166 77q69 0 105 -37.5t36 -106.5v-339h-66v326q0 98 -88 98q-69 0 -153 -82z" />
    <glyph glyph-name="lslash.flat" horiz-adv-x="272" 
d="M169 0h-65v299l-85 -48v67l85 47v341l65 12v-317l84 47v-67l-84 -46v-335z" />
    <glyph glyph-name="kcommaaccent.flat" horiz-adv-x="466" 
d="M371 0l-228 251v-251h-66v706l66 12v-448l206 203h85l-221 -211l243 -262h-85zM188 -88l57 23q45 -37 45 -85q0 -52 -72 -116l-43 8q55 59 55 99q0 36 -42 71z" />
    <glyph glyph-name="tcaron.flat" horiz-adv-x="330" 
d="M295 735q20 -38 20 -71q0 -63 -64 -120l-33 7q36 52 36 95q0 31 -23 77zM289 0q-28 -8 -66 -8q-123 0 -123 116v309h-73v56h73v164l65 11v-175h115v-56h-115v-298q0 -36 16 -52.5t54 -16.5q17 0 44 5z" />
    <glyph glyph-name="tcommaaccent.flat" horiz-adv-x="330" 
d="M289 0q-28 -8 -66 -8q-123 0 -123 116v309h-73v56h73v164l65 11v-175h115v-56h-115v-298q0 -36 16 -52.5t54 -16.5q17 0 44 5zM138 -88l57 23q45 -37 45 -85q0 -52 -72 -116l-43 8q55 59 55 99q0 36 -42 71z" />
    <glyph glyph-name="wacute.flat" horiz-adv-x="728" 
d="M518 684l-136 -134h-46l97 153zM697 473l-157 -477h-58l-118 388l-117 -388h-57l-159 477h69l119 -389l118 391h57l119 -391l117 389h67z" />
    <glyph glyph-name="wgrave.flat" horiz-adv-x="728" 
d="M394 550h-46l-136 134l86 19zM697 473l-157 -477h-58l-118 388l-117 -388h-57l-159 477h69l119 -389l118 391h57l119 -391l117 389h67z" />
    <glyph glyph-name="wcircumflex.flat" horiz-adv-x="728" 
d="M499 544h-43l-92 83l-91 -83h-43l103 145h62zM697 473l-157 -477h-58l-118 388l-117 -388h-57l-159 477h69l119 -389l118 391h57l119 -391l117 389h67z" />
    <glyph glyph-name="wdieresis.flat" horiz-adv-x="728" 
d="M320 559h-82v89h82v-89zM493 559h-83v89h83v-89zM697 473l-157 -477h-58l-118 388l-117 -388h-57l-159 477h69l119 -389l118 391h57l119 -391l117 389h67z" />
    <glyph glyph-name="yacute.flat" horiz-adv-x="480" 
d="M395 681l-136 -134h-46l97 153zM107 -180q-8 0 -29 3l-10 59q22 -4 38 -4q31 0 50.5 16t33.5 54l19 49l-181 476h70l144 -397l139 397h69l-201 -535q-24 -66 -57 -92t-85 -26z" />
    <glyph glyph-name="ygrave.flat" horiz-adv-x="480" 
d="M271 547h-46l-136 134l86 19zM107 -180q-8 0 -29 3l-10 59q22 -4 38 -4q31 0 50.5 16t33.5 54l19 49l-181 476h70l144 -397l139 397h69l-201 -535q-24 -66 -57 -92t-85 -26z" />
    <glyph glyph-name="ycircumflex.flat" horiz-adv-x="480" 
d="M376 547h-43l-92 83l-91 -83h-43l103 145h62zM107 -180q-8 0 -29 3l-10 59q22 -4 38 -4q31 0 50.5 16t33.5 54l19 49l-181 476h70l144 -397l139 397h69l-201 -535q-24 -66 -57 -92t-85 -26z" />
    <glyph glyph-name="ydieresis.flat" horiz-adv-x="480" 
d="M197 556h-82v89h82v-89zM370 556h-83v89h83v-89zM107 -180q-8 0 -29 3l-10 59q22 -4 38 -4q31 0 50.5 16t33.5 54l19 49l-181 476h70l144 -397l139 397h69l-201 -535q-24 -66 -57 -92t-85 -26z" />
    <glyph glyph-name="zacute.flat" horiz-adv-x="449" 
d="M378 684l-136 -134h-46l97 153zM402 0h-361v51l282 367h-263v55h339v-51l-282 -367h285v-55z" />
    <glyph glyph-name="zcaron.flat" horiz-adv-x="449" 
d="M91 695h43l91 -83l92 83h43l-104 -145h-62zM402 0h-361v51l282 367h-263v55h339v-51l-282 -367h285v-55z" />
    <glyph glyph-name="zdotaccent.flat" horiz-adv-x="449" 
d="M267 557h-84v90h84v-90zM402 0h-361v51l282 367h-263v55h339v-51l-282 -367h285v-55z" />
    <glyph glyph-name="f_f.flat" horiz-adv-x="590" 
d="M576 651q-18 4 -40 4q-72 0 -72 -73v-109h102v-56h-102v-417h-65v417h-72v56h72v114q0 64 35 95.5t98 31.5q14 0 34 -2zM281 651q-18 4 -40 4q-72 0 -72 -73v-109h102v-56h-102v-417h-65v417h-72v56h72v114q0 64 35 95.5t98 31.5q14 0 34 -2z" />
    <glyph glyph-name="f_f_i.flat" horiz-adv-x="824" 
d="M754 634q0 -20 -14 -34t-33 -14t-33.5 14t-14.5 34t14.5 34t33.5 14t33 -14t14 -34zM576 651q-18 4 -40 4q-72 0 -72 -73v-109h102v-56h-102v-417h-65v417h-72v56h72v114q0 64 35 95.5t98 31.5q14 0 34 -2zM281 651q-18 4 -40 4q-72 0 -72 -73v-109h102v-56h-102v-417
h-65v417h-72v56h72v114q0 64 35 95.5t98 31.5q14 0 34 -2zM740 0h-66v473h66v-473z" />
    <glyph glyph-name="f_f_l.flat" horiz-adv-x="824" 
d="M740 0h-66v706l66 12v-718zM576 651q-18 4 -40 4q-72 0 -72 -73v-109h102v-56h-102v-417h-65v417h-72v56h72v114q0 64 35 95.5t98 31.5q14 0 34 -2zM281 651q-18 4 -40 4q-72 0 -72 -73v-109h102v-56h-102v-417h-65v417h-72v56h72v114q0 64 35 95.5t98 31.5q14 0 34 -2z
" />
    <glyph glyph-name="fi.flat" horiz-adv-x="529" 
d="M459 634q0 -20 -14 -34t-33 -14q-20 0 -34 14t-14 34t14 34t34 14q19 0 33 -14t14 -34zM281 651q-18 4 -40 4q-72 0 -72 -73v-109h102v-56h-102v-417h-65v417h-72v56h72v114q0 64 35 95.5t98 31.5q14 0 34 -2zM445 0h-66v473h66v-473z" />
    <glyph glyph-name="fl.flat" horiz-adv-x="529" 
d="M445 0h-66v706l66 12v-718zM281 651q-18 4 -40 4q-72 0 -72 -73v-109h102v-56h-102v-417h-65v417h-72v56h72v114q0 64 35 95.5t98 31.5q14 0 34 -2z" />
    <glyph glyph-name="one.sup_flat" horiz-adv-x="360" 
d="M316 411h-248v46h99v273l-98 -37l-7 44l120 48h39v-328h95v-46z" />
    <glyph glyph-name="two.sup_flat" horiz-adv-x="360" 
d="M314 411h-269v44l146 128q33 30 45.5 49.5t12.5 41.5q0 28 -20.5 45.5t-54.5 17.5q-51 0 -113 -40l-7 48q61 40 125 40q60 0 94.5 -30t34.5 -75q0 -33 -18 -60.5t-59 -61.5l-115 -98h198v-49z" />
    <glyph glyph-name="three.sup_flat" horiz-adv-x="360" 
d="M307 509q0 -48 -39.5 -77.5t-102.5 -29.5q-68 0 -121 30l8 47q58 -30 113 -30q38 0 61.5 17.5t23.5 46.5q0 66 -112 66h-29v46h33q101 0 101 60q0 25 -19.5 39t-54.5 14q-58 0 -111 -33l-7 46q60 34 120 34q61 0 95 -25.5t34 -67.5q0 -66 -84 -90q91 -23 91 -93z" />
    <glyph glyph-name="onehalf.flat" horiz-adv-x="810" 
d="M233 -8l-47 13l209 342l202 340l47 -13l-210 -342zM316 311h-248v46h99v273l-98 -37l-7 44l120 48h39v-328h95v-46zM764 0h-269v44l146 128q33 30 45.5 49.5t12.5 41.5q0 28 -20.5 45.5t-54.5 17.5q-51 0 -113 -40l-7 48q61 40 125 40q60 0 94.5 -30t34.5 -75
q0 -33 -18 -60.5t-59 -61.5l-115 -98h198v-49z" />
    <glyph glyph-name="onequarter.flat" horiz-adv-x="810" 
d="M248 -8l-47 13l209 342l202 340l47 -13l-210 -342zM316 311h-248v46h99v273l-98 -37l-7 44l120 48h39v-328h95v-46zM764 80h-58v-83h-49v83h-186v38l165 250h70v-247h58v-41zM526 121h131v121l1 80h-5l-37 -61l-60 -91l-31 -46z" />
    <glyph glyph-name="threequarters.flat" horiz-adv-x="810" 
d="M238 -8l-47 13l209 342l202 340l47 -13l-210 -342zM307 409q0 -48 -39.5 -77.5t-102.5 -29.5q-68 0 -121 30l8 47q58 -30 113 -30q38 0 61.5 17.5t23.5 46.5q0 66 -112 66h-29v46h33q101 0 101 60q0 25 -19.5 39t-54.5 14q-58 0 -111 -33l-7 46q60 34 120 34
q61 0 95 -25.5t34 -67.5q0 -66 -84 -90q91 -23 91 -93zM764 80h-58v-83h-49v83h-186v38l165 250h70v-247h58v-41zM526 121h131v121l1 80h-5l-37 -61l-60 -91l-31 -46z" />
    <glyph glyph-name="i.dot" horiz-adv-x="234" 
d="M164 634q0 -20 -14 -34t-33 -14t-33.5 14t-14.5 34t14.5 34t33.5 14t33 -14t14 -34zM150 0h-66v473h66v-473z" />
    <glyph glyph-name="caron.alt" horiz-adv-x="456" 
d="M253 716q20 -38 20 -71q0 -63 -64 -120l-33 7q36 52 36 95q0 31 -23 77z" />
    <glyph glyph-name="commaaccent.rot" horiz-adv-x="454" 
d="M284 570l-57 -24q-45 38 -45 85q0 50 72 117l43 -9q-54 -60 -54 -99q0 -34 41 -70z" />
    <glyph glyph-name="uni0384.cap" horiz-adv-x="456" 
d="M289 690l-55 -169h-39l16 169h78z" />
    </font>
</defs>
</svg>
